<ttFont>
<head>
    <!-- Most of this table will be recalculated by the compiler -->
    <tableVersion value="1.0"/>
    <fontRevision value="2.004"/>
    <checkSumAdjustment value="0x3962484"/>
    <magicNumber value="0x5f0f3cf5"/>
    <flags value="00000000 00000011"/>
    <unitsPerEm value="1000"/>
    <created value="Thu Oct  8 09:57:43 2009"/>
    <modified value="Thu Oct  8 09:57:43 2009"/>
    <xMin value="-483"/>
    <yMin value="-292"/>
    <xMax value="1526"/>
    <yMax value="1125"/>
    <macStyle value="00000000 00000000"/>
    <lowestRecPPEM value="3"/>
    <fontDirectionHint value="2"/>
    <indexToLocFormat value="0"/>
    <glyphDataFormat value="0"/>
  </head>
          <CharString index="0">
            hintmask 01011000
            529 90 rmoveto
            9 55 79 callsubr
            -55 rlineto
            -41 -7 -17 -16 -21 hhcurveto
            -37 7 46 11 2 hvcurveto
            35 208 rlineto
            98 16 -87 50 -91 hhcurveto
            -83 -79 -32 -66 -11 hvcurveto
            -30 -5 18 -18 26 hhcurveto
            28 22 20 27 5 hvcurveto
            4 24 -12 17 -21 5 rrcurveto
            25 41 54 0 7 hhcurveto
            56 49 -39 -82 -13 hvcurveto
            -6 -31 -58 -3 -68 -3 -74 -29 rlinecurve
            -95 -38 -26 -58 -6 -33 rrcurveto
            hintmask 10000000
            -86 -14 96 -26 69 hhcurveto
            73 52 41 40 29 hvcurveto
            hintmask 01000000
            -38 -1 19 -38 44 hhcurveto
            10 86 4 91 15 hvcurveto
            -171 51 rmoveto
            hintmask 10100000
            -97 -17 -86 -26 -40 hhcurveto
            -52 -38 35 48 8 hvcurveto
            11 66 73 68 157 5 rrcurveto
            return
          </CharString>
          <CharString index="1">
            130 callgsubr
            4 1 -2 83 callsubr
            -3 -7 -6 -3 hvcurveto
            -97 -52 -86 -3 -18 hhcurveto
            -45 -43 21 46 -22 hvcurveto
            -23 46 11 64 5 30 rrcurveto
            294 15 callgsubr
            89 15 -32 106 -141 hhcurveto
            -124 -114 -103 -124 -20 hvcurveto
            -129 -22 91 -100 126 hhcurveto
            127 68 93 callsubr
            -253 hlineto
            140 33 89 24 37 hhcurveto
            117 -20 -141 -23 -3 hvcurveto
            return
          </CharString>
          <CharString index="2">
            30 5 -20 -28 callsubr
            -27 -21 -30 -5 hvcurveto
            -26 -4 16 -23 29 hhcurveto
            28 26 23 26 4 hvcurveto
            return
          </CharString>
          <CharString index="3">
            rmoveto
            3 -45 callsubr
            -24 3 -31 hhcurveto
            -49 -49 -21 -43 -9 hvcurveto
            -1 -3 rlineto
            -18 -3 13 -12 16 hhcurveto
            16 16 12 19 4 hvcurveto
            2 14 -6 10 -12 131 callgsubr
            21 5 22 hhcurveto
            20 14 20 callsubr
            -2 -16 -2 -10 -6 -9 -8 -5 -35 -21 -27 -30 -6 -34 -3 -18 rcurveline
            -7 -1 4 -5 7 hhcurveto
            7 6 5 7 1 hvcurveto
            3 18 5 26 27 19 45 19 rlinecurve
            20 9 17 16 4 20 rrcurveto
            endchar
          </CharString>
          <CharString index="4">
            -31 callgsubr
            hintmask 1110011110000000
            735 260 rmoveto
            -31 hlineto
            -150 -51 -33 -77 -180 hhcurveto
            -149 hlineto
            -46 -1 7 34 5 hvcurveto
            44 263 rlineto
            97 hlineto
            99 9 -30 -87 -14 hvcurveto
            31 hlineto
            44 267 rlineto
            -31 hlineto
            -87 -14 -19 -30 -99 hhcurveto
            -97 hlineto
            39 236 rlineto
            34 6 3 7 46 hhcurveto
            142 hlineto
            hintmask 1010010001000000
            166 11 -60 -134 -4 hvcurveto
            31 hlineto
            8 227 rlineto
            -590 hlineto
            -5 44 callgsubr
            0 -11 -37 -6 hvcurveto
            145 callsubr
            rlineto
            604 hlineto
            hintmask 0000000010000000
            return
          </CharString>
          <CharString index="5">
            rmoveto
            4 -45 callsubr
            -25 3 -31 hhcurveto
            -49 -48 -21 -43 -9 hvcurveto
            -1 -3 rlineto
            -18 -3 13 -12 16 hhcurveto
            16 16 12 19 3 hvcurveto
            3 14 -7 10 -11 131 callgsubr
            20 5 22 hhcurveto
            20 15 -3 -8 9 hvcurveto
            5 -6 0 7 callgsubr
            5 26 27 69 callgsubr
          </CharString>
          <CharString index="6">
            rmoveto
            41 7 -9 138 callgsubr
            -3 hvcurveto
            -23 -4 12 -19 27 hhcurveto
            16 12 9 2 2 hvcurveto
            -3 -22 -11 -62 -65 -53 -3 -2 -3 -2 -1 -4 rrcurveto
            -7 -1 6 -5 4 hhcurveto
            10 72 59 90 15 hvcurveto
            endchar
          </CharString>
          <CharString index="7">
            823 243 rmoveto
            5 33 rlineto
            -3 -51 -28 0 -57 hhcurveto
            -43 -81 0 3 -39 hvcurveto
            -5 -33 rlineto
            35 hlineto
            95 1 -12 -37 -7 hvcurveto
            -10 -64 -4 -20 -6 -41 -58 -29 rlinecurve
            -28 -55 -56 0 -12 hhcurveto
            -102 -170 62 268 45 hvcurveto
            271 45 193 58 92 hhcurveto
            100 100 -73 -165 -3 hvcurveto
            -10 0 -6 14 17 1 7 19 3 vhcurveto
            39 235 rlineto
            16 3 1 10 -13 hhcurveto
            -7 -1 -1 -13 -11 hvcurveto
            -63 -74 rlineto
            46 -36 -59 42 -90 hhcurveto
            -200 -195 -161 -201 -34 hvcurveto
            -199 -33 136 -164 208 hhcurveto
            77 90 23 59 50 hvcurveto
            -28 14 28 -33 10 hhcurveto
            12 2 11 15 2 hvcurveto
            29 172 rlineto
            40 7 5 5 70 hhcurveto
            return
          </CharString>
          <CharString index="8">
            604 398 67 callsubr
            -36 -2 0 -42 hhcurveto
            -4 -53 90 callgsubr
            29 -2 11 -16 -3 -23 rlinecurve
            -1 -6 -3 -7 -7 -12 -147 -242 rcurveline
            -72 262 rlineto
            -5 15 1 2 4 vvcurveto
            24 4 31 1 22 hhcurveto
            51 callgsubr
            -43 0 -22 hhcurveto
            -21 -48 0 3 -31 hvcurveto
            -81 callsubr
            52 14 -2 -38 11 hvcurveto
            98 -358 rlineto
            -106 -63 -41 -70 -70 hhcurveto
            -25 -14 12 0 hvcurveto
            7 2 25 11 5 29 rrcurveto
            28 4 -18 15 -22 hhcurveto
            -20 -25 -13 -31 -6 hvcurveto
            -44 -7 37 -37 54 hhcurveto
            89 66 107 10 5 hvcurveto
            254 417 35 57 38 10 33 1 rlinecurve
            return
          </CharString>
          <CharString index="9">
            rmoveto
            -28 hlineto
            -86 -17 -76 -46 -62 hhcurveto
            -62 -60 46 86 11 hvcurveto
            -28 hlineto
            -107 -16 65 -56 callsubr
            return
          </CharString>
          <CharString index="10">
            405 129 rmoveto
            8 48 -18 70 -115 22 rrcurveto
            2 -8 -54 10 -4 hhcurveto
            -30 7 -43 21 6 40 rrcurveto
            30 5 29 42 95 hhcurveto
            112 -8 -82 -28 -3 hvcurveto
            -8 6 -3 7 16 1 7 19 3 vhcurveto
            16 94 rlineto
            16 3 1 10 -13 hhcurveto
            -5 -3 0 -16 -18 hvcurveto
            -1 -2 -11 -9 -3 hhcurveto
            0 -3 0 -5 4 vhcurveto
            11 -14 -28 11 -45 hhcurveto
            -140 -43 -76 -48 -8 hvcurveto
            -9 -50 33 -29 2 -3 35 -30 22 -4 65 -12 46 -9 75 -14 -12 -68 rrcurveto
            -39 -6 -34 -46 -92 hhcurveto
            -101 -16 78 53 -4 hvcurveto
            13 -2 0 5 -12 hhcurveto
            -16 -1 -8 -19 -4 hvcurveto
            return
          </CharString>
          <CharString index="11">
            859 650 rmoveto
            51 callgsubr
            -47 0 -26 hhcurveto
            -26 -47 0 3 -44 hvcurveto
            -81 callsubr
            101 -8 -48 -26 -4 hvcurveto
            -71 -427 -287 519 rlineto
            14 -8 -1 1 -20 hhcurveto
            -167 hlineto
            -81 callsubr
            28 hlineto
            18 8 0 -2 20 hvcurveto
            26 -3 0 -1 -3 -19 -86 -518 rcurveline
            -26 -4 -8 -48 -101 96 callgsubr
            46 47 0 26 hhcurveto
            26 172 callsubr
            rlineto
            -101 8 48 26 4 hvcurveto
            return
          </CharString>
          <CharString index="12">
            821 338 rmoveto
            16 96 -21 93 -55 70 -6 8 -8 8 -7 7 44 12 35 46 8 49 rrcurveto
            35 6 -17 32 -33 hhcurveto
            -37 -23 -28 -27 -5 hvcurveto
            -28 -4 14 -28 37 hhcurveto
            3 2 0 1 3 hvcurveto
            -15 -20 -22 -15 -24 -5 rrcurveto
            39 -49 -65 21 -69 hhcurveto
            -94 -96 -39 -68 -77 hvcurveto
            -79 -70 -52 -93 -16 -96 -15 -95 21 -91 55 -68 rrcurveto
            -67 55 83 -38 94 hhcurveto
            94 97 38 67 76 hvcurveto
            78 68 53 91 15 95 rrcurveto
            -101 17 rmoveto
            -14 -87 -31 -87 -63 -71 rrcurveto
            -59 -52 -73 -39 -73 hhcurveto
            -73 -59 39 59 -34 hvcurveto
            -39 71 -1 87 14 87 14 81 30 82 61 63 rrcurveto
            57 53 72 35 72 hhcurveto
            71 61 -35 -57 35 hvcurveto
            39 -63 4 -82 -14 -81 rrcurveto
            return
          </CharString>
          <CharString index="13">
            141 rlineto
            11 -2 -6 21 -24 hhcurveto
            -17 -26 -14 -25 -4 hvcurveto
            -2 -12 5 -7 6 -11 74 -120 rcurveline
            return
          </CharString>
          <CharString index="14">
            811 398 67 callsubr
            -34 -2 0 -43 hhcurveto
            -32 -27 0 3 -31 hvcurveto
            -6 -33 44 -2 7 -26 -3 -18 rlinecurve
            -2 -12 -4 -6 -3 -7 -137 -249 rcurveline
            -57 273 -3 13 0 3 1 4 rlinecurve
            26 4 32 1 24 143 callgsubr
            -40 -53 0 -10 hhcurveto
            -22 -41 0 3 -29 hvcurveto
            -81 callsubr
            61 2 -5 -53 10 hvcurveto
            -133 -247 -56 259 -1 4 -2 11 1 4 rlinecurve
            27 4 38 0 18 143 callgsubr
            -44 -45 0 -19 hhcurveto
            -18 -51 90 callgsubr
            rlineto
            50 10 -4 -28 6 hvcurveto
            75 -352 rlineto
            -15 4 1 -9 16 hhcurveto
            17 6 11 13 7 hvcurveto
            153 281 59 -281 rlineto
            -13 3 2 -11 17 hhcurveto
            16 6 10 11 6 hvcurveto
            174 319 13 23 24 44 59 1 rlinecurve
            return
          </CharString>
          <CharString index="15">
            662 260 rmoveto
            -31 hlineto
            -104 -29 -35 -123 -183 hhcurveto
            -93 hlineto
            -46 -1 7 34 5 hvcurveto
            88 527 -15 callgsubr
            -73 0 -47 hhcurveto
            -153 3 -64 callsubr
            546 hlineto
            return
          </CharString>
          <CharString index="16">
            -87 callgsubr
            3 return
          </CharString>
          <CharString index="17">
            20 callgsubr
            hintmask 10000001
            343 hmoveto
            169 callsubr
            hintmask 01000010
            -69 callsubr
            hintmask 01001000
            -54 callsubr
            hintmask 10000100
            -66 callsubr
            hintmask 10000001
            return
          </CharString>
          <CharString index="18">
            hstemhm
            136 76 0 77 136 76 0 76 hintmask 0000010000010000
            686 473 rmoveto
            35 6 -17 34 -33 hhcurveto
            -37 -23 -28 -28 -5 hvcurveto
            -28 -5 15 -28 37 hhcurveto
            hintmask 0001000000000000
            5 1 -19 -20 -29 -13 -30 -6 rlinecurve
            hintmask 0000100000000000
            9 49 rlineto
            hintmask 0000010000000000
            -155 -11 rlineto
            hintmask 0110100001000000
            149 callsubr
            29 0 -9 12 hvcurveto
            10 -9 -3 -18 -2 -16 -32 -187 rcurveline
            -77 -13 -64 -64 -69 hhcurveto
            -36 -25 6 18 -13 hvcurveto
            -12 15 2 23 7 42 54 320 rcurveline
            hintmask 0000010000000000
            -154 -11 rlineto
            hintmask 1010100010100000
            149 callsubr
            28 0 -9 12 hvcurveto
            11 -10 -3 -20 -3 -17 -37 -220 rcurveline
            -6 -40 6 -37 26 -23 rrcurveto
            -25 28 39 -6 52 hhcurveto
            57 53 34 50 34 hvcurveto
            -14 -84 151 10 34 callgsubr
            -29 0 9 -11 hvcurveto
            -11 9 3 20 3 18 44 267 rcurveline
            hintmask 0000010000000000
            68 12 62 42 11 63 rrcurveto
            return
          </CharString>
          <CharString index="19">
            -37 -7 -3 -11 -77 hhcurveto
            -22 hlineto
            -6 -33 return
          </CharString>
          <CharString index="20">
            793 91 rmoveto
            6 1 2 13 -16 hhcurveto
            -14 -1 -11 -7 -3 hvcurveto
            -63 -15 -39 -22 -28 hhcurveto
            -54 2 46 127 3 hvcurveto
            3 57 1 69 -104 34 81 20 106 57 14 86 rrcurveto
            99 16 -113 81 -149 hhcurveto
            -326 hlineto
            -71 callsubr
            -86 -521 rlineto
            return
          </CharString>
          <CharString index="21">
            hvcurveto
            -52 callgsubr
            31 28 35 callgsubr
            return
          </CharString>
          <CharString index="22">
            rmoveto
            -105 callsubr
            215 hmoveto
            -105 callsubr
            endchar
          </CharString>
          <CharString index="23">
            rmoveto
            -49 -9 -40 -4 -26 hhcurveto
            -19 -47 0 53 9 hvcurveto
            49 8 40 4 26 hhcurveto
            19 47 0 -53 -8 hvcurveto
            38 -1 rmoveto
            51 9 -42 38 -56 hhcurveto
            -63 -50 -42 -45 -7 hvcurveto
            -51 -9 42 -38 56 hhcurveto
            63 50 42 45 7 hvcurveto
            return
          </CharString>
          <CharString index="24">
            746 234 rmoveto
            10 2 1 9 -16 hhcurveto
            -11 -4 -5 -10 -2 hvcurveto
            -154 -34 -136 -72 -106 hhcurveto
            -85 -181 52 278 46 hvcurveto
            269 45 190 60 95 hhcurveto
            94 105 -67 -172 -3 hvcurveto
            -8 0 -7 14 17 1 7 19 3 vhcurveto
            39 235 rlineto
            16 3 1 10 -13 hhcurveto
            -7 -1 -1 -13 -11 hvcurveto
            -63 -74 rlineto
            39 -30 -58 49 -96 hhcurveto
            -201 -194 -161 -201 -34 hvcurveto
            return
          </CharString>
          <CharString index="25">
            -63 callgsubr
            17 hhcurveto
            20 54 0 -3 38 hvcurveto
            return
          </CharString>
          <CharString index="26">
            -6 -33 rlineto
            return
          </CharString>
          <CharString index="27">
            13 callgsubr
            145 -3 -75 callgsubr
            41 247 rlineto
            126 hlineto
            74 27 -37 -8 5 hvcurveto
            24 -32 -3 -19 -12 -68 -10 -63 -7 -43 36 -37 rrcurveto
            return
          </CharString>
          <CharString index="28">
            -37 36 55 -5 29 hhcurveto
            83 34 82 30 5 hvcurveto
            -165 412 rmoveto
            -111 -19 -86 -36 -105 hhcurveto
            -123 hlineto
            43 253 4 26 3 11 24 3 rlinecurve
            1 9 32 0 20 hhcurveto
            90 132 0 -147 -24 hvcurveto
            return
          </CharString>
          <CharString index="29">
            6 33 rlineto
            return
          </CharString>
          <CharString index="30">
            -38 -229 -94 callgsubr
            return
          </CharString>
          <CharString index="31">
            rmoveto
            -130 128 rlineto
            9 -10 -10 2 -6 hhcurveto
            -25 -21 -23 -24 1 hvcurveto
            -16 9 -7 11 -6 vhcurveto
            161 -89 rlineto
            endchar
          </CharString>
          <CharString index="32">
            740 342 rmoveto
            188 31 -127 153 -188 hhcurveto
            -189 -179 -153 -188 -31 hvcurveto
            -189 -31 127 -153 189 hhcurveto
            188 179 153 189 31 hvcurveto
            -46 hmoveto
            -164 -27 -154 -132 -163 hhcurveto
            -164 -110 132 164 27 hvcurveto
            163 27 154 132 164 hhcurveto
            163 110 -132 -163 -27 hvcurveto
            return
          </CharString>
          <CharString index="33">
            -45 -49 -59 callsubr
            return
          </CharString>
          <CharString index="34">
            807 335 rmoveto
            193 32 -120 155 -179 72 callgsubr
            380 hlineto
            180 170 150 185 31 hvcurveto
            -101 1 rmoveto
            -8 -51 -17 -98 -75 -74 rrcurveto
            -41 -42 -70 -39 -89 hhcurveto
            -115 hlineto
            -46 -1 7 34 5 hvcurveto
            90 535 rlineto
            34 5 3 7 46 hhcurveto
            115 hlineto
            78 60 -32 -50 36 hvcurveto
            51 -76 -18 -107 -8 -49 rrcurveto
            return
          </CharString>
          <CharString index="35">
            -49 callgsubr
            207 hmoveto
            -58 callgsubr
          </CharString>
          <CharString index="36">
            -6 44 callgsubr
            1 -11 -37 -7 hvcurveto
            return
          </CharString>
          <CharString index="37">
            640 269 rmoveto
            -31 hlineto
            -139 -31 -38 -94 -189 hhcurveto
            -177 hlineto
            514 608 10 12 1 4 1 5 rlinecurve
            18 3 -10 0 -18 hhcurveto
            -475 hlineto
            -50 -227 rlineto
            31 hlineto
            148 33 76 46 132 hhcurveto
            167 hlineto
            -515 -609 -10 -12 -1 -5 -1 -5 rlinecurve
            -19 -3 9 0 19 hhcurveto
            490 hlineto
            return
          </CharString>
          <CharString index="38">
            177 callgsubr
            38 7 4 10 79 hhcurveto
            24 hlineto
            6 33 -153 -3 rlineto
            return
          </CharString>
          <CharString index="39">
            -94 callgsubr
            -81 callgsubr
            30 181 rlineto
            105 18 return
          </CharString>
          <CharString index="40">
            823 339 rmoveto
            16 96 -21 110 -80 78 88 100 rcurveline
            -22 18 -87 -98 rlineto
            55 -78 -69 6 -40 hhcurveto
            -197 -184 -165 -200 -33 hvcurveto
            -12 -70 1 -119 96 -91 -87 -99 rcurveline
            21 -18 87 98 rlineto
            -29 37 64 -32 85 hhcurveto
            194 187 158 202 34 hvcurveto
            -138 269 rmoveto
            -450 -510 -31 50 -17 68 21 123 rlinecurve
            8 50 22 116 80 80 rrcurveto
            69 69 78 22 60 hhcurveto
            68 54 -27 -41 38 hvcurveto
            46 -269 rmoveto
            -7 -42 -18 -100 -64 -78 rrcurveto
            -81 -68 -90 -31 -70 hhcurveto
            -74 -56 32 36 -30 hvcurveto
            448 509 36 -55 11 -77 -18 -113 rlinecurve
            return
          </CharString>
          <CharString index="41">
            -86 -521 rlineto
            -38 -7 -4 -10 -79 hhcurveto
            -24 hlineto
            -6 -33 153 3 rlineto
            return
          </CharString>
          <CharString index="42">
            rmoveto
            -125 162 -179 -162 11 -14 157 108 121 -108 rlineto
            return
          </CharString>
          <CharString index="43">
            -71 callsubr
            -86 -521 -46 callsubr
            return
          </CharString>
          <CharString index="44">
            rmoveto
            -254 hlineto
            -25 -30 1 2 -25 hvcurveto
            -51 4 0 9 16 vvcurveto
            -31 hlineto
            -69 -211 rlineto
            31 hlineto
            4 15 23 69 15 8 rrcurveto
            5 12 75 0 15 hhcurveto
            212 hlineto
            -126 -138 -140 -152 -50 -158 -13 -79 rlinecurve
            -10 -2 -8 -46 47 hhcurveto
            47 8 45 12 2 hvcurveto
            8 48 24 144 44 118 60 65 rlinecurve
            183 198 10 11 1 2 3 22 rlinecurve
            endchar
          </CharString>
          <CharString index="45">
            rmoveto
            -105 callsubr
            181 hmoveto
            -105 callsubr
            endchar
          </CharString>
          <CharString index="46">
            rmoveto
            -8 16 -151 -66 -129 66 -14 -16 131 -117 rlineto
            endchar
          </CharString>
          <CharString index="47">
            -51 callgsubr
            hintmask 0000001100000000
            -73 -1 11 36 6 hvcurveto
            25 148 13 75 49 108 96 2 rlinecurve
            -7 -4 -11 -8 -4 -23 rrcurveto
            -31 -5 22 -14 20 hhcurveto
            return
          </CharString>
          <CharString index="48">
            -31 0 -11 hhcurveto
            -23 -19 10 13 -22 hvcurveto
            return
          </CharString>
          <CharString index="49">
            531 -10 28 -23 38 207 27 33 92 26 28 return
          </CharString>
          <CharString index="50">
            rmoveto
            24 9 -14 23 -25 hhcurveto
            -6 -10 -2 -9 -13 hvcurveto
            -173 -128 return
          </CharString>
          <CharString index="51">
            -69 83 hhcurveto
            83 88 70 106 19 hvcurveto
            return
          </CharString>
          <CharString index="52">
            -20 155 callgsubr
            hintmask 10100110
            -39 callgsubr
            hintmask 10100101
            26 24 18 30 5 hvcurveto
            62 10 -63 30 -94 hhcurveto
            -139 -112 -111 -119 -20 hvcurveto
            -127 -21 87 -99 126 hhcurveto
            141 55 118 12 2 hvcurveto
            hintmask 00011000
            return
          </CharString>
          <CharString index="53">
            -151 3 -81 callsubr
            24 hlineto
            79 2 -10 -38 -7 hvcurveto
            return
          </CharString>
          <CharString index="54">
            130 callgsubr
            12 2 -13 0 -3 hhcurveto
            -7 -5 -1 -10 -5 hvcurveto
            -21 -10 -41 -79 -100 hhcurveto
            -62 -81 48 148 24 hvcurveto
            144 24 83 54 73 hhcurveto
            9 53 0 -18 32 hvcurveto
            return
          </CharString>
          <CharString index="55">
            -60 callgsubr
            64 hvcurveto
            endchar
          </CharString>
          <CharString index="56">
            531 -10 28 -18 32 -32 33 0 33 332 33 -28 28 245 28 hstemhm
            128 75 23 75 24 81 42 81 hintmask 0000011101000000
            529 175 rmoveto
            16 93 -36 103 -99 44 103 34 43 63 8 48 rrcurveto
            78 13 -68 66 -103 hhcurveto
            -83 -103 -50 -100 -17 hvcurveto
            -20 -123 rlineto
            -76 hlineto
            hintmask 0010101100000000
            -81 callsubr
            76 132 callgsubr
            17 0 36 hhcurveto
            35 8 0 -3 13 hvcurveto
            93 555 rlineto
            113 18 88 8 19 hhcurveto
            44 52 -30 -85 -14 hvcurveto
            -11 -63 -48 -60 -91 -7 -11 -1 -8 0 -2 -13 rrcurveto
            hintmask 1000010001100000
            -13 -3 9 -1 6 hhcurveto
            102 -8 41 -99 -20 -122 rrcurveto
            -128 -21 -75 -28 -37 hhcurveto
            hintmask 0101000010000000
            -5 -21 0 14 -17 hvcurveto
            0 25 9 4 27 vhcurveto
            23 4 -15 14 -19 hhcurveto
            -19 -21 -12 -27 -5 hvcurveto
            hintmask 1000000000100000
            -40 -7 33 -36 60 hhcurveto
            94 105 73 112 18 hvcurveto
            endchar
          </CharString>
          <CharString index="57">
            -11 -6 -7 -7 -7 hvcurveto
            -56 -54 -70 -41 -92 hhcurveto
            -38 -80 9 67 -68 hvcurveto
            16 -15 -19 19 -39 hhcurveto
            -81 -88 -85 -116 -19 hvcurveto
            -119 -20 118 callsubr
            8 48 -4 37 -5 20 rrcurveto
            -42 69 70 0 12 hhcurveto
            24 58 4 27 53 hvcurveto
            1 -1 -573 -652 -13 -14 -1 -2 -1 -6 rlinecurve
            -13 -2 9 -10 13 hhcurveto
            9 6 4 11 10 hvcurveto
            658 747 rlineto
            11 12 1 6 3 vvcurveto
            return
          </CharString>
          <CharString index="58">
            45 275 rlineto
            149 133 callgsubr
            -149 hlineto
            31 184 rlineto
            -31 hlineto
            -17 -91 -56 -95 -94 -3 -5 -28 rcurveline
            90 hlineto
            return
          </CharString>
          <CharString index="59">
            8 callgsubr
            27 167 148 114 151 -267 8 -13 4 -9 -2 -12 rlinecurve
            -28 -4 -35 0 -18 hhcurveto
            -6 -33 138 3 rlineto
            27 56 0 -3 34 hvcurveto
            return
          </CharString>
          <CharString index="60">
            826 -10 28 -28 31 71 28 103 28 -23 26 164 28 hstemhm
            67 82 105 76 111 82 164 82 0 68 hintmask 0100100000000000
            815 120 rmoveto
            4 1 -2 83 callsubr
            -3 -8 -5 -3 hvcurveto
            -100 -50 -80 0 -15 hhcurveto
            -8 -147 0 207 34 hvcurveto
            287 hlineto
            hintmask 1011011100100000
            151 callsubr
            -66 -72 -32 -67 -55 hvcurveto
            64 -32 -64 35 -73 hhcurveto
            -124 -119 -102 100 callgsubr
            -129 -22 87 -100 122 hhcurveto
            73 80 37 65 50 hvcurveto
            -63 32 65 -39 75 hhcurveto
            118 64 93 callsubr
            hintmask 1000110011000000
            -246 hlineto
            125 32 83 39 49 hhcurveto
            104 -18 -135 -29 -4 hvcurveto
            -328 -31 rmoveto
            -189 -31 -122 -16 -28 hhcurveto
            hintmask 0001011010000000
            -25 -118 11 194 32 hvcurveto
            178 30 113 17 35 hhcurveto
            24 121 -11 -184 -31 hvcurveto
            endchar
          </CharString>
          <CharString index="61">
            -85 callgsubr
            rlineto
            return
          </CharString>
          <CharString index="62">
            21 -10 19 -17 11 rrcurveto
            12 -21 return
          </CharString>
          <CharString index="63">
            25 4 -22 14 -17 hhcurveto
            -24 -12 -21 -11 -6 hvcurveto
            -80 -141 24 -16 114 120 10 11 7 7 2 12 rlinecurve
            return
          </CharString>
          <CharString index="64">
            31 callsubr
            15 hhcurveto
            13 60 0 -3 34 hvcurveto
            return
          </CharString>
          <CharString index="65">
            -41 -7 35 -53 65 hhcurveto
            50 63 37 58 22 hvcurveto
            return
          </CharString>
          <CharString index="66">
            200 rmoveto
            116 20 -67 103 -118 hhcurveto
            -50 -50 -16 -34 -43 hvcurveto
            32 193 rlineto
            -4 12 38 -10 42 hhcurveto
            125 91 88 15 3 hvcurveto
            11 1 -6 3 -5 hhcurveto
            0 -4 0 -10 -5 vhcurveto
            -15 -41 -48 -12 -54 hhcurveto
            -59 -47 15 12 -29 hvcurveto
            -9 5 -3 0 0 vvcurveto
            hintmask 0001100100000000
            -13 -2 -11 -18 -3 hvcurveto
            -49 -293 rlineto
            -18 -3 -2 -12 16 hhcurveto
            8 4 4 8 6 hvcurveto
            15 15 46 51 85 hhcurveto
            56 20 -46 -19 5 hvcurveto
            11 -36 -5 -46 -7 -39 -6 -37 -10 -54 -35 -44 rrcurveto
            hintmask 1010000001000000
            -30 -24 -45 -31 -53 hhcurveto
            -65 -58 41 65 -12 hvcurveto
            hintmask 0100000100000000
            3 -1 7 0 0 vvcurveto
            28 25 18 31 5 hvcurveto
            hintmask 1100000010000000
            37 6 -26 13 -20 hhcurveto
            -18 -34 -10 -43 -7 hvcurveto
            -90 -15 62 -91 115 hhcurveto
            hintmask 0010000000000000
            125 123 97 124 20 hvcurveto
            endchar
          </CharString>
          <CharString index="67">
            6 rmoveto
            116 19 -66 103 -118 hhcurveto
            -50 -50 -16 -34 -44 hvcurveto
            32 193 rlineto
            -4 13 38 -10 42 hhcurveto
            125 91 88 15 2 hvcurveto
            11 2 -6 3 -5 hhcurveto
            0 -4 0 -10 -5 vhcurveto
            -15 -42 -48 -12 -54 hhcurveto
            -59 -46 15 12 -29 hvcurveto
            -9 5 -3 0 0 vvcurveto
            -13 -2 -11 -18 -3 hvcurveto
            hintmask 0001000010000000
            -49 -293 rlineto
            -18 -3 -2 -12 16 hhcurveto
            hintmask 1010100001000000
            8 4 4 8 6 hvcurveto
            15 14 47 51 85 hhcurveto
            56 19 -46 -19 6 hvcurveto
            11 -36 -6 -46 -6 -39 -6 -37 -10 -54 -36 -44 rrcurveto
            -30 -24 -45 -31 -53 hhcurveto
            -65 -57 41 65 -12 hvcurveto
            hintmask 0100000100000000
            3 -1 7 0 0 vvcurveto
            28 25 18 31 5 hvcurveto
            37 6 -27 13 -20 hhcurveto
            -18 -33 -10 -43 -8 hvcurveto
            hintmask 1010000001000000
            -90 -15 63 -91 115 hhcurveto
            125 122 97 124 21 hvcurveto
            endchar
          </CharString>
          <CharString index="68">
            -27 -5 -20 -101 -69 hhcurveto
            -15 -22 4 5 -12 hvcurveto
            6 2 24 13 4 28 rrcurveto
            27 5 -16 20 -28 hhcurveto
            -25 -25 -17 -31 -5 hvcurveto
            return
          </CharString>
          <CharString index="69">
            811 0 33 48 32 213 32 292 33 hstemhm
            100 101 -95 101 -6 89 -83 89 410 101 hintmask 0011010000000000
            75 callgsubr
            -40 -244 rlineto
            -101 hlineto
            hintmask 1110100010000000
            -6 -32 rlineto
            101 hlineto
            -40 -245 -46 callsubr
            380 hlineto
            180 170 150 185 31 hvcurveto
            -101 1 rmoveto
            -8 -51 -17 -98 -75 -74 rrcurveto
            -41 -42 -70 -39 -89 hhcurveto
            hintmask 1010001000000000
            -115 hlineto
            -46 -1 7 34 5 hvcurveto
            42 252 rlineto
            170 hlineto
            6 32 rlineto
            hintmask 0011000110000000
            -170 hlineto
            42 251 85 callsubr
          </CharString>
          <CharString index="70">
            -20 -106 callgsubr
            hintmask 00000110
            132 291 -96 callgsubr
            return
          </CharString>
          <CharString index="71">
            hmoveto
            -78 callsubr
            return
          </CharString>
          <CharString index="72">
            rrcurveto
            -30 callgsubr
            return
          </CharString>
          <CharString index="73">
            447 378 rmoveto
            35 6 -27 28 -44 hhcurveto
            -65 -53 -49 -56 -30 hvcurveto
            -1 hlineto
            18 105 rlineto
            return
          </CharString>
          <CharString index="74">
            -29 callgsubr
            -20 return
          </CharString>
          <CharString index="75">
            203 rmoveto
            131 22 -84 92 -111 hhcurveto
            -72 -51 -46 -49 -31 hvcurveto
            14 83 19 73 46 61 rrcurveto
            50 39 58 41 63 hhcurveto
            20 45 -3 -35 17 hvcurveto
            -45 -2 -10 -34 -2 -11 rrcurveto
            -30 -5 21 -17 24 hhcurveto
            18 30 11 38 7 hvcurveto
            return
          </CharString>
          <CharString index="76">
            -27 callgsubr
            hintmask 00110000
            return
          </CharString>
          <CharString index="77">
            rmoveto
            6 38 rlineto
            -382 hlineto
            -6 -38 rlineto
            endchar
          </CharString>
          <CharString index="78">
            -32 callsubr
            hintmask 1000100100000000
            60 10 -37 49 -90 hhcurveto
            -139 -163 -132 -216 -36 hvcurveto
            -271 -45 114 -67 97 hhcurveto
            hintmask 0100010010000000
            48 55 13 43 52 hvcurveto
            46 39 41 42 15 87 rrcurveto
            -94 1 rmoveto
            -8 -51 -8 -44 -26 -36 rrcurveto
            -46 -33 -38 -18 -44 hhcurveto
            -53 -27 37 28 -11 hvcurveto
            -15 45 9 68 7 38 rrcurveto
            hintmask 0010001000000000
            99 16 66 74 77 hhcurveto
            50 26 -26 -35 13 hvcurveto
            hintmask 0000000010000000
            15 -37 -7 -45 -9 -51 rrcurveto
            endchar
          </CharString>
          <CharString index="79">
            21 -26 hhcurveto
            -26 return
          </CharString>
          <CharString index="80">
            -16 -3 -2 -10 13 hhcurveto
            6 1 1 19 22 hvcurveto
            6 5 13 13 6 5 rrcurveto
            -41 38 46 -2 26 hhcurveto
            127 57 73 66 11 hvcurveto
            return
          </CharString>
          <CharString index="81">
            -20 hstemhm
            187 110 hintmask 01011000
            529 90 rmoveto
            9 55 79 callsubr
            -55 rlineto
            -41 -7 -17 -16 -21 hhcurveto
            -37 7 46 11 2 hvcurveto
            35 208 rlineto
            98 16 -87 50 -91 hhcurveto
            -83 -79 -32 -66 -11 hvcurveto
            -30 -5 18 -18 26 hhcurveto
            28 22 20 27 5 hvcurveto
            4 24 -12 17 -21 5 rrcurveto
            25 41 54 0 7 hhcurveto
            56 49 -39 -82 -13 hvcurveto
            -6 -31 -58 -3 -68 -3 -74 -29 rlinecurve
            -95 -38 -26 -58 -6 -33 rrcurveto
            hintmask 10000000
            -86 -14 96 -26 69 hhcurveto
            73 52 41 40 29 hvcurveto
            hintmask 01000000
            -38 -1 19 -38 44 hhcurveto
            10 86 4 91 15 hvcurveto
            -171 51 rmoveto
            hintmask 10100110
            -97 -17 -86 -26 -40 hhcurveto
            -52 -38 35 48 8 hvcurveto
            11 66 73 68 157 5 rrcurveto
            return
          </CharString>
          <CharString index="82">
            -24 callsubr
            -24 callgsubr
            return
          </CharString>
          <CharString index="83">
            -22 23 -29 hhcurveto
            return
          </CharString>
          <CharString index="84">
            325 109 callsubr
            240 33 -28 28 112 callsubr
            -20 73 135 90 hintmask 01010100
            482 632 rmoveto
            43 8 -38 29 -53 hhcurveto
            -75 -98 -54 -107 -17 hvcurveto
            -19 -112 rlineto
            -82 hlineto
            -81 callsubr
            82 hlineto
            hintmask 10001000
            -53 -320 rlineto
            -45 -7 -12 0 -64 hhcurveto
            -51 callgsubr
            -73 -1 11 36 6 hvcurveto
            hintmask 01010100
            53 318 rlineto
            120 133 callgsubr
            -123 hlineto
            19 113 rlineto
            87 14 57 45 44 hhcurveto
            hintmask 00100010
            16 8 -4 -1 4 35 callsubr
            endchar
          </CharString>
          <CharString index="85">
            -40 -35 -50 -24 -47 hhcurveto
            -46 -36 24 37 -18 hvcurveto
            -20 39 3 49 8 47 9 58 16 41 29 35 rrcurveto
            37 30 50 28 51 hhcurveto
            48 44 -24 -52 21 hvcurveto
            return
          </CharString>
          <CharString index="86">
            -151 -86 callgsubr
            -35 -211 rlineto
            38 -29 -43 20 -52 hhcurveto
            -125 -128 -97 -129 -21 hvcurveto
            -123 -21 83 -102 126 hhcurveto
            59 54 28 35 39 hvcurveto
            -11 -63 rlineto
            return
          </CharString>
          <CharString index="87">
            329 rmoveto
            260 43 -102 76 -103 hhcurveto
            -118 -121 -92 -131 -22 hvcurveto
            -129 -22 82 -94 113 hhcurveto
            71 50 45 51 33 hvcurveto
            -4 -20 rlineto
            -244 -40 -123 -42 -58 hhcurveto
            -21 -52 3 31 -22 hvcurveto
            hintmask 11101010
            45 4 8 33 2 10 rrcurveto
            30 5 -20 17 -24 hhcurveto
            -18 -31 -11 -38 -6 hvcurveto
            -68 -12 49 -41 92 hhcurveto
            137 153 136 214 36 hvcurveto
            -81 92 rmoveto
            -79 -13 -59 -95 -89 hhcurveto
            hintmask 00010100
            -46 -25 21 37 -16 hvcurveto
            -17 37 8 48 9 51 9 59 7 42 34 41 rrcurveto
            36 31 36 20 47 hhcurveto
            67 18 -66 -5 2 hvcurveto
            13 -49 -12 -78 -4 -20 rrcurveto
            endchar
          </CharString>
          <CharString index="88">
            7 -6 5 -6 vhcurveto
            -4 hlineto
            -5 -4 -2 -4 -2 hvcurveto
            -45 -86 -63 -77 -76 -63 rrcurveto
            -3 -2 -2 -4 -3 vvcurveto
            -3 1 -3 2 -2 vhcurveto
            55 -63 37 -76 16 -85 rrcurveto
            -6 1 5 -4 6 hhcurveto
            4 hlineto
            7 5 5 8 hvcurveto
            -6 81 -21 76 -34 70 57 69 47 77 33 81 rrcurveto
            1 1 2 1 vvcurveto
            return
          </CharString>
          <CharString index="89">
            723 0 33 304 33 277 33 return
          </CharString>
          <CharString index="90">
            32 callgsubr
            -20 -26 -161 89 -11 6 -9 0 callgsubr
          </CharString>
          <CharString index="91">
            13 2 -9 10 -13 hhcurveto
            -8 -7 -4 -6 -5 hvcurveto
            -532 -643 -4 -4 -2 -4 -1 -5 rlinecurve
            -13 -2 8 -10 13 hhcurveto
            8 8 4 6 5 hvcurveto
            533 644 3 3 2 5 1 4 rlinecurve
            return
          </CharString>
          <CharString index="92">
            115 19 -47 87 -77 hhcurveto
            -81 -88 -85 -116 -20 hvcurveto
            -119 -19 118 callsubr
            return
          </CharString>
          <CharString index="93">
            86 callsubr
            55 0 24 hhcurveto
            59 2 0 -3 64 96 callsubr
            return
          </CharString>
          <CharString index="94">
            -20 hstemhm
            415 68 hintmask 11100100
            -106 callsubr
            hintmask 00011000
            61 277 -96 callgsubr
            return
          </CharString>
          <CharString index="95">
            596 475 rmoveto
            35 6 -18 32 -33 hhcurveto
            -37 -22 -28 -28 -5 hvcurveto
            -28 -5 14 -28 37 3 2 1 3 hhcurveto
            return
          </CharString>
          <CharString index="96">
            31 callgsubr
            hintmask 00100000
            5 callsubr
            return
          </CharString>
          <CharString index="97">
            -19 rlineto
            hintmask 01000000
            -73 callgsubr
            hintmask 10000000
            -52 callsubr
          </CharString>
          <CharString index="98">
            295 0 33 0 44 320 33 -33 44 return
          </CharString>
          <CharString index="99">
            111 hstem
            316 36 callsubr
            return
          </CharString>
          <CharString index="100">
            319 rmoveto
            18 107 0 65 -22 64 rrcurveto
            88 -30 -77 22 -55 hhcurveto
            -126 -62 -94 -28 -18 hvcurveto
            -49 -73 -18 -99 -9 -52 -11 -66 -14 -101 35 -80 rrcurveto
            -74 34 70 -19 53 hhcurveto
            48 89 15 99 67 hvcurveto
            49 72 17 89 11 65 rrcurveto
            -87 12 rmoveto
            -10 -59 -15 -90 -21 -56 rrcurveto
            -105 -38 -72 -14 -33 hhcurveto
            -34 -66 16 105 -4 hvcurveto
            -1 57 16 94 8 52 12 69 11 70 21 55 rrcurveto
            102 38 79 10 25 hhcurveto
            34 66 -17 -91 5 hvcurveto
            3 -55 -12 -75 -12 -68 rrcurveto
            endchar
          </CharString>
          <CharString index="101">
            -46 rmoveto
            82 487 -159 -11 -81 callsubr
            75 8 -7 -49 -8 hvcurveto
            -65 -389 rlineto
            return
          </CharString>
          <CharString index="102">
            225 rmoveto
            11 67 -1 68 -36 49 rrcurveto
            46 -34 -61 16 -62 hhcurveto
            -62 -67 -16 -46 -50 hvcurveto
            -52 -49 -23 -68 -11 -67 -12 -67 1 -68 36 -49 rrcurveto
            -46 34 61 -16 62 hhcurveto
            62 67 16 46 50 hvcurveto
            52 49 23 68 12 67 rrcurveto
            -89 hmoveto
            -10 -57 -14 -58 -38 -48 rrcurveto
            -35 -27 -42 -20 -41 hhcurveto
            -41 -34 20 35 -17 hvcurveto
            -22 48 6 58 10 57 9 57 14 58 38 48 rrcurveto
            35 28 41 20 41 hhcurveto
            41 35 -20 -35 16 hvcurveto
            22 -48 -6 -58 -9 -57 rrcurveto
            endchar
          </CharString>
          <CharString index="103">
            296 530 rmoveto
            -105 callsubr
            215 hmoveto
            -105 callsubr
            return
          </CharString>
          <CharString index="104">
            472 -10 28 164 26 207 31 hstem
            477 217 rmoveto
            129 22 -92 100 -126 hhcurveto
            -127 -67 -107 -23 -4 hvcurveto
            -4 -1 1 -10 13 hhcurveto
            11 4 7 6 3 hvcurveto
            97 52 86 3 18 hhcurveto
            45 43 -21 -46 22 hvcurveto
            22 -46 -10 -64 -5 -30 rrcurveto
            -294 hlineto
            -22 -6 0 -23 -4 hvcurveto
            -89 -15 31 -106 141 hhcurveto
            124 115 103 124 20 hvcurveto
            -96 -35 rmoveto
            -140 -32 -89 -24 -37 hhcurveto
            -117 20 141 23 2 hvcurveto
            endchar
          </CharString>
          <CharString index="105">
            133 rmoveto
            -105 callsubr
            215 hmoveto
            -105 callsubr
            return
          </CharString>
          <CharString index="106">
            -116 3 -81 callsubr
            26 27 -2 -14 20 hvcurveto
            15 -10 5 -19 -3 -19 -60 -358 rcurveline
            -10 -58 -29 -55 -46 -41 rrcurveto
            -39 -44 -56 -23 -55 hhcurveto
            -50 -44 23 39 -26 hvcurveto
            -25 39 -3 52 10 63 rrcurveto
            hintmask 0110001000000000
            64 386 3 13 7 13 11 4 rlinecurve
            6 18 39 0 28 hhcurveto
            hintmask 0001000000000000
            -78 callsubr
            hintmask 0010000000000000
            -147 -3 rlineto
            hintmask 0101001000000000
            124 callsubr
            29 38 0 -6 16 hvcurveto
            12 -4 3 -13 -3 -13 rrcurveto
            return
          </CharString>
          <CharString index="107">
            -101 8 48 26 4 hvcurveto
            88 531 2 1 149 -615 rlineto
            -13 4 2 -11 14 hhcurveto
            13 7 12 12 7 hvcurveto
            359 623 1 -1 -94 -565 -85 callgsubr
            143 3 rlineto
            return
          </CharString>
          <CharString index="108">
            -98 callsubr
            35 120 83 callgsubr
            hintmask 01000000
            -45 -48 -59 callsubr
            hintmask 00100000
            11 callsubr
            hintmask 01000000
            17 -19 rlineto
            hintmask 00100000
            24 callgsubr
            22 hvcurveto
            hintmask 01000000
            -13 24 15 callsubr
          </CharString>
          <CharString index="109">
            590 -10 43 78 44 242 44 return
          </CharString>
          <CharString index="110">
            38 225 rlineto
            84 14 -29 54 -105 hhcurveto
            -88 -56 -56 -32 -23 hvcurveto
            -1 hlineto
            57 341 rlineto
            return
          </CharString>
          <CharString index="111">
            531 -10 31 397 28 return
          </CharString>
          <CharString index="112">
            2 9 29 0 19 hhcurveto
            153 19 -25 -169 -14 hvcurveto
            return
          </CharString>
          <CharString index="113">
            57 callsubr
            376 33 return
          </CharString>
          <CharString index="114">
            3 -54 callgsubr
            return
          </CharString>
          <CharString index="115">
            596 650 67 callsubr
            -52 -28 0 -56 hhcurveto
            -44 -76 0 3 -40 hvcurveto
            -81 callsubr
            34 hlineto
            94 1 -12 -37 -6 hvcurveto
            return
          </CharString>
          <CharString index="116">
            -45 -273 rlineto
            -117 -20 87 -18 46 hhcurveto
            67 50 60 75 13 hvcurveto
            return
          </CharString>
          <CharString index="117">
            -36 callsubr
            -17 hlineto
            return
          </CharString>
          <CharString index="118">
            13 -25 -17 9 -23 hhcurveto
            -39 -23 165 callsubr
            return
          </CharString>
          <CharString index="119">
            19 31 0 -2 8 hvcurveto
            18 -4 0 -10 -5 -25 rrcurveto
            return
          </CharString>
          <CharString index="120">
            164 rmoveto
            -78 callsubr
            -106 hlineto
            75 450 rlineto
            20 3 2 8 -21 hhcurveto
            -13 -2 -1 -14 -12 hvcurveto
            -396 -463 -81 callsubr
            282 hlineto
            -13 -83 rlineto
            -37 -7 -4 -11 -77 hhcurveto
            -23 hlineto
            -6 -33 145 3 143 -3 -78 callsubr
            -23 hlineto
            -77 -2 11 37 7 hvcurveto
            13 83 rlineto
            -69 33 rmoveto
            -254 hlineto
            315 369 rlineto
            hintmask 01010000
            endchar
          </CharString>
          <CharString index="121">
            rmoveto
            107 16 -64 69 -83 hhcurveto
            -83 -88 -70 -106 -20 hvcurveto
            28 hlineto
            86 18 75 46 62 hhcurveto
            62 61 -46 -86 -12 hvcurveto
            endchar
          </CharString>
          <CharString index="122">
            17 -9 23 hhcurveto
            39 23 99 callgsubr
          </CharString>
          <CharString index="123">
            12 callgsubr
            113 142 callgsubr
            return
          </CharString>
          <CharString index="124">
            105 18 88 49 61 hhcurveto
            61 8 -43 -63 -11 hvcurveto
            return
          </CharString>
          <CharString index="125">
            22 6 0 23 4 hvcurveto
            return
          </CharString>
          <CharString index="126">
            557 -21 92 38 hstem
            637 552 rmoveto
            92 15 -147 22 -63 hhcurveto
            -14 hlineto
            -68 -7 -122 -25 -14 -82 -1 -8 2 -7 8 -1 rrcurveto
            6 hlineto
            17 3 -1 20 10 10 rrcurveto
            43 32 88 16 56 hhcurveto
            50 66 -7 -38 35 hvcurveto
            16 -15 -7 -30 15 -2 rrcurveto
            6 hlineto
            10 2 4 7 1 7 rrcurveto
            endchar
          </CharString>
          <CharString index="127">
            -3 -8 9 hvcurveto
            5 -6 0 -9 return
          </CharString>
          <CharString index="128">
            -271 -21 146 83 return
          </CharString>
          <CharString index="129">
            rmoveto
            7 38 rlineto
            -382 hlineto
            -7 -38 rlineto
            endchar
          </CharString>
          <CharString index="130">
            34 6 155 callsubr
            -5 hvcurveto
            -34 -5 156 callgsubr
            4 hvcurveto
            return
          </CharString>
          <CharString index="131">
            472 -200 32 73 32 hstemhm
            205 64 -1 88 hintmask 01100000
            356 -131 rmoveto
            47 8 -52 21 -55 hhcurveto
            12 68 rlineto
            -64 hlineto
            -17 -100 rlineto
            hintmask 10010000
            16 callsubr
            endchar
          </CharString>
          <CharString index="132">
            590 -10 43 -38 22 328 43 0 43 -34 44 -11 43 return
          </CharString>
          <CharString index="133">
            -14 callgsubr
            33 return
          </CharString>
          <CharString index="134">
            -6 -33 114 3 -42 -28 -44 -47 -9 -48 rlinecurve
            -30 callgsubr
            -95 5 14 104 98 55 rrcurveto
            45 20 0 -3 51 hvcurveto
            -224 262 rmoveto
            -247 hlineto
            178 327 rlineto
            return
          </CharString>
          <CharString index="135">
            -79 -2 10 38 7 hvcurveto
            return
          </CharString>
          <CharString index="136">
            -19 -1 -8 -1 -2 -13 rrcurveto
            -14 -3 9 0 17 hhcurveto
            50 hlineto
            79 41 -58 -105 -18 hvcurveto
            -125 -21 -77 -37 -53 hhcurveto
            -55 -72 20 53 -26 hvcurveto
            36 29 23 33 6 hvcurveto
            32 5 -19 23 -32 hhcurveto
            -27 -31 -17 -40 -7 hvcurveto
            -95 -16 92 -62 114 hhcurveto
            return
          </CharString>
          <CharString index="137">
            -15 callsubr
            -344 hmoveto
            -15 callsubr
            return
          </CharString>
          <CharString index="138">
            86 callsubr
            56 0 return
          </CharString>
          <CharString index="139">
            -51 -8 51 -28 62 hhcurveto
            80 76 64 94 15 hvcurveto
            return
          </CharString>
          <CharString index="140">
            -2 callsubr
            endchar
          </CharString>
          <CharString index="141">
            -51 39 49 -8 32 hhcurveto
            127 127 98 128 21 hvcurveto
            -89 hmoveto
            -115 -19 -86 -83 -81 hhcurveto
            -35 -43 15 50 -24 hvcurveto
            -9 17 0 1 3 19 36 213 rcurveline
            40 29 56 37 63 hhcurveto
            77 51 -85 -109 -18 hvcurveto
            endchar
          </CharString>
          <CharString index="142">
            hvcurveto
            -20 -9 -7 -17 -3 -13 rrcurveto
            -26 -4 16 -19 26 hhcurveto
            27 21 19 26 4 hvcurveto
            return
          </CharString>
          <CharString index="143">
            586 -49 callgsubr
            return
          </CharString>
          <CharString index="144">
            -19 hvcurveto
            -18 -110 rlineto
            -82 hlineto
            -81 callsubr
            82 hlineto
            return
          </CharString>
          <CharString index="145">
            -6 -33 143 3 return
          </CharString>
          <CharString index="146">
            hlineto
            -64 callsubr
            return
          </CharString>
          <CharString index="147">
            444 172 callgsubr
            -31 -29 -25 -31 -5 hvcurveto
            -30 -5 21 -25 30 hhcurveto
            33 27 27 28 5 hvcurveto
            return
          </CharString>
          <CharString index="148">
            796 -21 33 638 33 return
          </CharString>
          <CharString index="149">
            91 15 86 45 80 hhcurveto
            36 15 -4 -3 11 hvcurveto
            -16 -9 -7 -13 -3 -15 -4 -29 18 -10 2 -1 rrcurveto
            endchar
          </CharString>
          <CharString index="150">
            -106 -18 -66 -68 -51 hhcurveto
            -18 -70 9 164 27 hvcurveto
            165 28 71 9 19 hhcurveto
            52 43 -70 -103 -17 hvcurveto
            return
          </CharString>
          <CharString index="151">
            107 18 51 113 93 hhcurveto
            61 49 -31 -48 14 hvcurveto
            -5 hlineto
            -26 -24 50 callsubr
            91 15 -73 67 -96 hhcurveto
            -121 -100 -121 -131 -22 hvcurveto
            return
          </CharString>
          <CharString index="152">
            33 226 44 110 28 209 33 -33 44 return
          </CharString>
          <CharString index="153">
            103 callsubr
            hintmask 0000000001000000
            57 callgsubr
            return
          </CharString>
          <CharString index="154">
            rlineto
            -26 -4 -8 -48 -101 96 callgsubr
            46 47 0 26 hhcurveto
            26 172 callsubr
            rlineto
            return
          </CharString>
          <CharString index="155">
            323 -119 rmoveto
            45 callgsubr
            17 27 26 22 29 15 102 -3 rcurveline
            169 callsubr
            return
          </CharString>
          <CharString index="156">
            554 69 callsubr
            101 605 rlineto
            return
          </CharString>
          <CharString index="157">
            -21 -26 -4 hvcurveto
            -26 -5 18 -21 26 hhcurveto
            26 24 21 26 5 hvcurveto
            return
          </CharString>
          <CharString index="158">
            -23 -4 12 -19 27 hhcurveto
            16 12 9 2 3 135 callgsubr
            -2 7 -5 4 hhcurveto
            10 71 59 90 15 hvcurveto
            endchar
          </CharString>
          <CharString index="159">
            590 0 45 callsubr
            return
          </CharString>
          <CharString index="160">
            70 callsubr
            -20 10 13 -21 hvcurveto
            return
          </CharString>
          <CharString index="161">
            33 5 -25 callsubr
            -5 hvcurveto
            return
          </CharString>
          <CharString index="162">
            79 75 90 111 18 hvcurveto
            return
          </CharString>
          <CharString index="163">
            834 -21 63 callgsubr
            return
          </CharString>
          <CharString index="164">
            hstemhm
            183 92 -30 92 -33 33 return
          </CharString>
          <CharString index="165">
            rmoveto
            -1 14 -5 13 -3 13 -23 101 rcurveline
            18 -6 -5 16 -21 hhcurveto
            -21 -24 -18 -22 -4 hvcurveto
            -3 vlineto
            -1 -19 14 -15 9 -14 20 -32 26 -33 15 -34 rrcurveto
            return
          </CharString>
          <CharString index="166">
            155 callsubr
            -4 hvcurveto
            -34 -6 156 callgsubr
            return
          </CharString>
          <CharString index="167">
            808 250 rmoveto
            23 4 -24 0 -15 hhcurveto
            -629 hlineto
            -15 -24 0 -23 -4 hvcurveto
            -23 -4 20 0 15 hhcurveto
            637 hlineto
            15 20 0 23 4 hvcurveto
            return
          </CharString>
          <CharString index="168">
            rmoveto
            21 5 -16 17 -21 hhcurveto
            -22 -20 -17 -21 -2 hvcurveto
            -18 -243 rlineto
            32 hlineto
            return
          </CharString>
          <CharString index="169">
            23 134 rmoveto
            -3 -18 -1 -4 -18 -20 rrcurveto
            return
          </CharString>
          <CharString index="170">
            38 225 rlineto
            81 13 -25 57 -109 hhcurveto
            -92 -57 -63 -29 -21 hvcurveto
            72 -6 -53 20 -65 hhcurveto
            -97 -58 -69 -27 -17 hvcurveto
            -1 hlineto
            16 96 rlineto
            return
          </CharString>
          <CharString index="171">
            354 183 65 hstemhm
            67 282 -272 282 hintmask 10100000
            349 183 36 callgsubr
          </CharString>
          <CharString index="172">
            33 617 171 callgsubr
            356 92 return
          </CharString>
          <CharString index="173">
            28 -7 33 295 28 294 33 return
          </CharString>
          <CharString index="174">
            rmoveto
            29 callgsubr
            return
          </CharString>
          <CharString index="175">
            -4 -1 1 2 -4 hvcurveto
            13 -31 -44 0 -12 hhcurveto
            -108 -129 -53 -110 37 callsubr
            return
          </CharString>
          <CharString index="176">
            -36 callsubr
            -68 -7 7 49 8 hvcurveto
            return
          </CharString>
          <CharString index="177">
            -45 -48 -31 0 -11 hhcurveto
            -23 return
          </CharString>
          <CharString index="178">
            39 -36 hhcurveto
            -25 return
          </CharString>
          <CharString index="179">
            30 29 -7 -19 21 hvcurveto
            0 -42 -8 -7 -41 vhcurveto
            -32 -5 23 -16 22 hhcurveto
            14 36 9 41 7 hvcurveto
            53 8 -44 48 -85 hhcurveto
            return
          </CharString>
          <CharString index="180">
            -10 -13 22 hvcurveto
            return
          </CharString>
          <CharString index="181">
            597 224 rmoveto
            90 15 -62 58 -74 hhcurveto
            -90 -70 -72 -74 -12 hvcurveto
            -90 -15 62 -58 74 hhcurveto
            90 70 72 74 12 hvcurveto
            return
          </CharString>
          <CharString index="182">
            hlineto
            124 273 4 9 2 7 1 3 rlinecurve
            125 callsubr
            -17 -5 -12 -13 -6 hvcurveto
            -132 -290 rlineto
            return
          </CharString>
          <CharString index="183">
            rlineto
            -295 hlineto
            -14 -22 0 -23 -4 hvcurveto
            -23 -4 22 0 14 hhcurveto
            return
          </CharString>
          <CharString index="184">
            0 149 callgsubr
            return
          </CharString>
          <CharString index="185">
            11 2 -2 5 -12 hhcurveto
            -16 -1 -6 -20 -4 hvcurveto
            -5 -31 -16 -94 -59 -72 -69 -49 rlinecurve
            -19 -14 -41 -28 -10 -63 rrcurveto
            return
          </CharString>
          <CharString index="186">
            rlineto
            -31 hlineto
            -9 return
          </CharString>
          <CharString index="187">
            -5 -33 rlineto
            3 43 44 0 27 hhcurveto
            29 42 0 -3 43 hvcurveto
            return
          </CharString>
          <CharString index="188">
            31 377 33 184 -20 return
          </CharString>
          <CharString index="189">
            24 23 16 29 5 hvcurveto
            return
          </CharString>
          <CharString index="190">
            10 -13 hhcurveto
            -11 return
          </CharString>
          <CharString index="191">
            153 callgsubr
            -66 3 -13 49 32 48 17 27 25 22 30 15 rrcurveto
            return
          </CharString>
          <CharString index="192">
            rlineto
            34 5 3 7 46 hhcurveto
            115 hlineto
            78 60 -32 -50 36 hvcurveto
            51 -76 -18 -107 -8 -49 rrcurveto
            endchar
          </CharString>
          <CharString index="193">
            -14 callgsubr
            40 return
          </CharString>
          <CharString index="194">
            30 5 -21 -28 callsubr
            -26 -21 -30 -5 hvcurveto
            -26 -5 16 -23 29 hhcurveto
            28 26 23 26 5 hvcurveto
            return
          </CharString>
          <CharString index="195">
            -8 138 callgsubr
            -4 hvcurveto
            return
          </CharString>
          <CharString index="196">
            -9 -2 6 -7 9 hhcurveto
            return
          </CharString>
          <CharString index="197">
            82 78 callgsubr
            return
          </CharString>
          <CharString index="198">
            973 77 callsubr
            hstemhm
            168 34 -34 82 return
          </CharString>
          <CharString index="199">
            rlineto
            14 2 4 22 -23 hhcurveto
            141 callsubr
            return
          </CharString>
          <CharString index="200">
            107 23 4 hvcurveto
            -46 134 rmoveto
            return
          </CharString>
          <CharString index="201">
            28 hstemhm
            124 73 -20 73 return
          </CharString>
          <CharString index="202">
            114 callgsubr
            hstemhm
            return
          </CharString>
          <CharString index="203">
            hvcurveto
            -78 callsubr
            return
          </CharString>
          <CharString index="204">
            54 -9 54 hstemhm
            return
          </CharString>
          <CharString index="205">
            506 531 -96 callgsubr
            return
          </CharString>
          <CharString index="206">
            -26 32 hhcurveto
            31 return
          </CharString>
          <CharString index="207">
            rmoveto
            54 callsubr
            hintmask 00001000
            -52 callgsubr
            return
          </CharString>
          <CharString index="208">
            -31 396 -96 callgsubr
            return
          </CharString>
          <CharString index="209">
            22 -28 hhcurveto
            -34 -26 -27 -28 -5 hvcurveto
            -34 -6 24 -22 28 hhcurveto
            34 26 27 28 5 hvcurveto
            return
          </CharString>
          <CharString index="210">
            hstemhm
            131 81 callgsubr
            return
          </CharString>
          <CharString index="211">
            782 -21 66 callsubr
            return
          </CharString>
          <CharString index="212">
            767 0 109 callgsubr
            return
          </CharString>
          <CharString index="213">
            82 95 callsubr
            return
          </CharString>
          <CharString index="214">
            95 -21 176 -20 hstemhm
            return
          </CharString>
          <CharString index="215">
            9 8 7 9 2 hvcurveto
            return
          </CharString>
          <CharString index="216">
            0 33 365 33 return
          </CharString>
          <CharString index="217">
            3 20 rrcurveto
            endchar
          </CharString>
          <CharString index="218">
            531 -83 -21 94 28 400 28 89 -20 hstem
            72 76 115 76 115 76 return
          </CharString>
          <CharString index="219">
            hstemhm
            131 73 return
          </CharString>
          <CharString index="220">
            -16 -1 -10 -6 return
          </CharString>
          <CharString index="221">
            590 216 rmoveto
            126 21 -86 99 -122 hhcurveto
            -79 -57 -43 -18 -20 hvcurveto
            return
          </CharString>
          <CharString index="222">
            31 23 22 29 5 hvcurveto
            6 37 -29 14 -22 1 rrcurveto
            55 51 78 3 18 hhcurveto
            return
          </CharString>
          <CharString index="223">
            -1 -2 -2 0 -14 hhcurveto
            -130 130 callsubr
            99 17 99 37 62 hhcurveto
            return
          </CharString>
          <CharString index="224">
            rmoveto
            6 38 rlineto
            -204 hlineto
            -6 -38 rlineto
            127 -51 0 128 hhcurveto
            endchar
          </CharString>
          <CharString index="225">
            62 -83 79 hhcurveto
            55 callsubr
            return
          </CharString>
          <CharString index="226">
            472 0 31 372 28 return
          </CharString>
          <CharString index="227">
            hvcurveto
            -4 -22 -10 -62 -66 -53 return
          </CharString>
          <CharString index="228">
            97 callgsubr
            306 33 return
          </CharString>
          <CharString index="229">
            3 20 rlineto
            -16 hlineto
            -56 -1 6 23 4 hvcurveto
            8 49 rlineto
            82 565 rmoveto
            return
          </CharString>
          <CharString index="230">
            -18 2 -14 4 -23 7 rrcurveto
            6 -21 -25 6 -18 hhcurveto
            -41 -6 -37 0 hvcurveto
            return
          </CharString>
          <CharString index="231">
            -146 3 -81 callsubr
            return
          </CharString>
          <CharString index="232">
            13 2 -8 10 -13 hhcurveto
            return
          </CharString>
          <CharString index="233">
            -21 189 -20 return
          </CharString>
          <CharString index="234">
            -52 12 32 -20 hvcurveto
            26 20 13 20 4 hvcurveto
            19 3 -15 14 -23 hhcurveto
            return
          </CharString>
          <CharString index="235">
            752 0 33 308 28 281 33 return
          </CharString>
          <CharString index="236">
            183 callsubr
            -21 return
          </CharString>
          <CharString index="237">
            hlineto
            18 109 rlineto
            return
          </CharString>
          <CharString index="238">
            9 23 4 hvcurveto
            31 5 -36 0 -9 hhcurveto
            44 29 50 15 36 hhcurveto
            return
          </CharString>
          <CharString index="239">
            171 rmoveto
            13 83 -53 76 -98 22 83 28 71 68 13 80 rrcurveto
            return
          </CharString>
          <CharString index="240">
            hhcurveto
            -380 hlineto
            -71 callsubr
            return
          </CharString>
          <CharString index="241">
            -23 rmoveto
            14 83 -53 76 -99 22 84 28 70 68 14 80 rrcurveto
            return
          </CharString>
          <CharString index="242">
            -41 callgsubr
            -95 5 14 return
          </CharString>
          <CharString index="243">
            -9 -48 37 callgsubr
            return
          </CharString>
          <CharString index="244">
            1091 0 -21 671 33 return
          </CharString>
          <CharString index="245">
            0 184 callsubr
            -17 28 return
          </CharString>
          <CharString index="246">
            767 -21 33 659 33 return
          </CharString>
          <CharString index="247">
            -9 -8 -7 -9 -2 hvcurveto
            return
          </CharString>
          <CharString index="248">
            -23 -4 -22 -14 -2 hvcurveto
            return
          </CharString>
          <CharString index="249">
            9 56 rlineto
            -31 hlineto
            return
          </CharString>
          <CharString index="250">
            531 502 -21 return
          </CharString>
          <CharString index="251">
            rmoveto
            -11 17 rlineto
            -41 -56 -58 -30 -51 hhcurveto
            -40 -26 17 20 return
          </CharString>
          <CharString index="252">
            -86 -518 -85 callgsubr
            return
          </CharString>
          <CharString index="253">
            hstemhm
            153 92 -86 92 -86 99 -19 92 -86 92 37 99 return
          </CharString>
          <CharString index="254">
            rrcurveto
            -1 -3 -1 -4 -3 vvcurveto
            -2 -8 1 -7 10 -1 rrcurveto
            return
          </CharString>
          <CharString index="255">
            hlineto
            14 22 182 callsubr
          </CharString>
          <CharString index="256">
            -81 callsubr
            22 return
          </CharString>
          <CharString index="257">
            413 -228 -21 999 -20 21 -20 hstemhm
            hintmask 00100000
            return
          </CharString>
          <CharString index="258">
            18 callsubr
            100 17 -38 95 -124 hhcurveto
            return
          </CharString>
          <CharString index="259">
            -56 28 347 28 0 28 236 28 83 28 hstemhm
            return
          </CharString>
          <CharString index="260">
            885 168 callgsubr
            return
          </CharString>
          <CharString index="261">
            46 rmoveto
            -87 hlineto
            152 908 rlineto
            87 hlineto
            endchar
          </CharString>
          <CharString index="262">
            166 callsubr
            -34 -27 -27 -28 return
          </CharString>
          <CharString index="263">
            126 callsubr
            hstemhm
            return
          </CharString>
          <CharString index="264">
            92 -74 92 -18 33 -12 92 19 33 hintmask 0000111010110000
            return
          </CharString>
          <CharString index="265">
            26 4 -17 -28 callsubr
            -25 -21 -26 -4 hvcurveto
            return
          </CharString>
          <CharString index="266">
            531 -250 28 458 28 458 28 hstem
            return
          </CharString>
          <CharString index="267">
            -194 33 -30 30 161 33 451 -20 hstemhm
            return
          </CharString>
          <CharString index="268">
            hvcurveto
            hintmask 00100000
            22 10 22 11 19 14 rrcurveto
            endchar
          </CharString>
          <CharString index="269">
            -21 30 0 26 363 28 81 92 40 26 hstemhm
            return
          </CharString>
          <CharString index="270">
            31 28 35 callgsubr
            endchar
          </CharString>
          <CharString index="271">
            -232 44 132 -20 return
          </CharString>
          <CharString index="272">
            -21 -59 -64 hvcurveto
            return
          </CharString>
          <CharString index="273">
            -23 22 -28 hhcurveto
            return
          </CharString>
          <CharString index="274">
            1062 22 -21 227 46 227 -20 hstem
            return
          </CharString>
          <CharString index="275">
            590 -10 28 0 44 290 28 33 28 return
          </CharString>
          <CharString index="276">
            -78 callsubr
            -24 hlineto
            28 callsubr
            return
          </CharString>
          <CharString index="277">
            38 callgsubr
            617 33 return
          </CharString>
          <CharString index="278">
            hhcurveto
            -13 -12 -10 -13 -2 hvcurveto
            return
          </CharString>
          <CharString index="279">
            47 0 -3 44 hvcurveto
            6 33 return
          </CharString>
          <CharString index="280">
            178 callgsubr
            515 34 return
          </CharString>
          <CharString index="281">
            rmoveto
            125 callsubr
            return
          </CharString>
          <CharString index="282">
            -21 132 44 hstem
            return
          </CharString>
          <CharString index="283">
            531 515 44 return
          </CharString>
          <CharString index="284">
            22 hhcurveto
            6 33 return
          </CharString>
          <CharString index="285">
            94 66 94 -94 97 -9 94 hintmask 0011111000000000
            return
          </CharString>
          <CharString index="286">
            0 77 -63 32 31 77 285 32 hstemhm
            return
          </CharString>
          <CharString index="287">
            rmoveto
            4 20 rlineto
            -77 hlineto
            45 270 rlineto
            return
          </CharString>
          <CharString index="288">
            959 0 33 279 33 305 33 return
          </CharString>
          <CharString index="289">
            0 23 4 hvcurveto
            endchar
          </CharString>
          <CharString index="290">
            531 536 return
          </CharString>
          <CharString index="291">
            33 364 33 return
          </CharString>
        <CharString name=".notdef">
          280 endchar
        </CharString>
        <CharString name="A">
          -33 callsubr
          hstem
          -107 callgsubr
          endchar
        </CharString>
        <CharString name="AE">
          -53 callgsubr
        </CharString>
        <CharString name="AE.dup">
          -53 callgsubr
        </CharString>
        <CharString name="AEacute">
          181 callsubr
          82 -21 165 -20 136 callgsubr
          hintmask 1100010111000000
          971 260 rmoveto
          -31 hlineto
          -149 -50 -29 -78 -171 hhcurveto
          -108 hlineto
          -46 -1 7 34 5 hvcurveto
          40 238 rlineto
          91 hlineto
          97 6 -31 -86 -14 hvcurveto
          31 hlineto
          44 267 rlineto
          -31 hlineto
          -86 -14 -16 -31 -97 hhcurveto
          hintmask 1110001000100000
          -91 hlineto
          44 264 rlineto
          34 5 3 7 46 hhcurveto
          109 hlineto
          145 13 -59 -135 -7 hvcurveto
          31 hlineto
          9 227 rlineto
          -588 hlineto
          -81 callsubr
          46 hlineto
          12 14 0 -1 12 hvcurveto
          -307 -546 -14 -26 -25 -43 -86 -1 rlinecurve
          26 callsubr
          53 0 18 hhcurveto
          20 172 callsubr
          -59 1 -6 33 3 15 rlinecurve
          1 7 0 1 8 14 117 208 rcurveline
          hintmask 1100010001000000
          173 hlineto
          -39 -234 -87 callgsubr
          518 hlineto
          -384 345 rmoveto
          -161 hlineto
          169 301 42 -1 -5 -27 -3 -17 rlinecurve
          hintmask 0100001000000000
          hintmask 0001100000000000
          226 261 -97 callgsubr
        </CharString>
        <CharString name="Aacute">
          -33 callsubr
          71 78 callgsubr
          hintmask 11100000
          -107 callgsubr
          hintmask 00011000
          220 273 -97 callgsubr
        </CharString>
        <CharString name="Abreve">
          -33 callsubr
          50 44 132 -20 hstemhm
          hintmask 11100000
          -107 callgsubr
          hintmask 00011000
          246 331 -98 callsubr
          endchar
        </CharString>
        <CharString name="Abreveacute">
          -33 callsubr
          50 44 317 -20 hstemhm
          hintmask 11100000
          -107 callgsubr
          hintmask 00011000
          246 331 -98 callsubr
          -30 138 -50 callgsubr
        </CharString>
        <CharString name="Abrevedotbelow">
          -33 callsubr
          50 44 132 -20 hstemhm
          319 110 hintmask 11111000
          -107 callgsubr
          246 331 -98 callsubr
          hintmask 00000100
          -283 -1065 -99 callgsubr
          endchar
        </CharString>
        <CharString name="Abrevegrave">
          -33 callsubr
          50 44 132 -20 hstemhm
          hintmask 11100000
          -107 callgsubr
          hintmask 00011000
          246 331 -98 callsubr
          -44 46 rmoveto
          -20 -26 -162 89 -11 6 -8 0 callgsubr
        </CharString>
        <CharString name="Abrevehookabove">
          -33 callsubr
          50 44 226 44 67 -20 hstemhm
          hintmask 11100000
          -107 callgsubr
          hintmask 00011100
          246 331 -98 callsubr
          -34 139 -102 callsubr
        </CharString>
        <CharString name="Abrevetilde">
          -33 callsubr
          50 44 172 97 callsubr
          hintmask 11100000
          -107 callgsubr
          hintmask 00010100
          246 331 -98 callsubr
          35 120 83 callgsubr
          hintmask 00001000
          -45 -48 -59 callsubr
          hintmask 00000100
          11 callsubr
          hintmask 00001000
          17 -19 rlineto
          hintmask 00000100
          24 callgsubr
          22 hvcurveto
          hintmask 00001000
          -13 24 15 callsubr
        </CharString>
        <CharString name="Acaron">
          158 callgsubr
          133 -20 hstemhm
          hintmask 11100000
          -107 callgsubr
          hintmask 00011000
          225 262 -61 callsubr
        </CharString>
        <CharString name="Acircumflex">
          158 callgsubr
          133 -20 hstemhm
          hintmask 11100000
          -107 callgsubr
          hintmask 00011000
          98 callgsubr
          endchar
        </CharString>
        <CharString name="Acircumflexacute">
          158 callgsubr
          318 -20 hstemhm
          hintmask 11100000
          -107 callgsubr
          hintmask 00011000
          208 161 -3 callgsubr
          12 -26 191 89 13 6 11 7 5 16 rlinecurve
          endchar
        </CharString>
        <CharString name="Acircumflexdotbelow">
          158 callgsubr
          133 -20 hstemhm
          319 110 hintmask 11111000
          -107 callgsubr
          98 callgsubr
          hintmask 00000100
          -230 -879 -99 callgsubr
          endchar
        </CharString>
        <CharString name="Acircumflexgrave">
          158 callgsubr
          133 -20 hstemhm
          hintmask 11100000
          -107 callgsubr
          hintmask 00011000
          208 161 -17 callsubr
        </CharString>
        <CharString name="Acircumflexhookabove">
          158 callgsubr
          338 -20 hstemhm
          hintmask 11100000
          -107 callgsubr
          hintmask 00011000
          98 callgsubr
          114 272 -104 callsubr
        </CharString>
        <CharString name="Acircumflextilde">
          158 callgsubr
          173 97 callsubr
          hintmask 11100000
          -107 callgsubr
          hintmask 00010100
          208 161 47 callgsubr
          hintmask 00001000
          -74 callsubr
          hintmask 00000100
          -71 callgsubr
          hintmask 00001000
          17 -19 rlineto
          hintmask 00000100
          -73 callgsubr
          hintmask 00001000
          88 callgsubr
        </CharString>
        <CharString name="Adblgrave">
          -33 callsubr
          71 156 callsubr
          hintmask 11100000
          -107 callgsubr
          hintmask 00011000
          161 171 rmoveto
          -33 -94 callsubr
          -148 16 rmoveto
          -33 -94 callsubr
          endchar
        </CharString>
        <CharString name="Adieresis">
          -33 callsubr
          40 100 hstemhm
          371 99 116 99 hintmask 11100000
          -107 callgsubr
          hintmask 00011100
          4 194 -85 callsubr
        </CharString>
        <CharString name="Adotbelow">
          -33 callsubr
          hstemhm
          319 110 hintmask 11100000
          -107 callgsubr
          hintmask 00010000
          -37 -734 -99 callgsubr
          endchar
        </CharString>
        <CharString name="Agrave">
          -33 callsubr
          71 78 callgsubr
          hintmask 11100000
          -107 callgsubr
          hintmask 00011000
          132 181 -76 callsubr
        </CharString>
        <CharString name="Ahookabove">
          -33 callsubr
          82 176 callgsubr
          hintmask 11100000
          -107 callgsubr
          hintmask 00011000
          184 305 -102 callsubr
        </CharString>
        <CharString name="Alpha">
          -33 callsubr
          hstem
          -107 callgsubr
          endchar
        </CharString>
        <CharString name="Amacron">
          -33 callsubr
          60 38 hstemhm
          hintmask 11100000
          -107 callgsubr
          hintmask 00010000
          249 165 -30 callsubr
        </CharString>
        <CharString name="Aogonek">
          146 callgsubr
          hstemhm
          485 274 -268 274 hintmask 01110100
          759 10 callsubr
          -63 -9 9 32 -7 hvcurveto
          -131 618 rlineto
          13 -2 -2 9 -17 hhcurveto
          -18 -4 -8 -14 -8 hvcurveto
          -321 -589 rlineto
          -27 -14 -28 -43 -82 hhcurveto
          26 callsubr
          53 0 18 hhcurveto
          32 30 0 -3 48 hvcurveto
          6 33 -44 1 -23 20 5 29 rlinecurve
          1 7 0 2 7 12 68 125 rcurveline
          272 hlineto
          32 -148 rlineto
          3 -12 -1 -6 0 vvcurveto
          -30 -5 -52 0 -28 hhcurveto
          hintmask 11101000
          27 callsubr
          endchar
        </CharString>
        <CharString name="Aogonekacute">
          146 callgsubr
          71 78 callgsubr
          485 274 -268 274 hintmask 01110001
          759 10 callsubr
          -63 -9 9 32 -7 hvcurveto
          -131 618 rlineto
          13 -2 -2 9 -17 hhcurveto
          -18 -4 -8 -14 -8 hvcurveto
          -321 -589 rlineto
          -27 -14 -28 -43 -82 hhcurveto
          26 callsubr
          53 0 18 hhcurveto
          32 30 0 -3 48 hvcurveto
          6 33 -44 1 -23 20 5 29 rlinecurve
          1 7 0 2 7 12 68 125 rcurveline
          272 hlineto
          32 -148 rlineto
          3 -12 -1 -6 0 vvcurveto
          -30 -5 -52 0 -28 hhcurveto
          hintmask 11100010
          27 callsubr
          hintmask 00001100
          220 273 -97 callgsubr
        </CharString>
        <CharString name="Aring">
          -29 callgsubr
          35 106 35 hstemhm
          hintmask 11100000
          -107 callgsubr
          hintmask 00110000
          132 213 -61 callgsubr
        </CharString>
        <CharString name="Aringacute">
          -29 callgsubr
          35 106 35 185 -20 hstemhm
          hintmask 11100000
          -107 callgsubr
          hintmask 00111000
          132 213 -84 callsubr
          41 227 -50 callgsubr
        </CharString>
        <CharString name="Atilde">
          -33 callsubr
          40 97 callsubr
          hintmask 11100000
          -107 callgsubr
          hintmask 00001000
          244 225 rmoveto
          -17 -91 callgsubr
          64 hvcurveto
          endchar
        </CharString>
        <CharString name="B">
          128 callsubr
          hstem
          453 97 0 101 0 97 cntrmask 00011100
          105 callgsubr
          46 callgsubr
          62 callgsubr
          -157 hlineto
          40 240 rlineto
          34 5 3 7 46 hhcurveto
          61 callgsubr
          97 44 -78 -79 -13 hvcurveto
          endchar
        </CharString>
        <CharString name="Beta">
          128 callsubr
          hstemhm
          428 101 -76 97 0 101 -29 101 -72 97 hintmask 00000100
          105 callgsubr
          rrcurveto
          hintmask 10100001
          46 callgsubr
          hintmask 01101010
          62 callgsubr
          -157 hlineto
          40 240 rlineto
          34 5 3 7 46 hhcurveto
          hintmask 11110100
          61 callgsubr
          hintmask 00000010
          97 44 -78 -79 -13 hvcurveto
          endchar
        </CharString>
        <CharString name="C">
          139 callsubr
          hstem
          116 104 496 104 vstem
          -83 callsubr
          -202 -34 140 -161 203 hhcurveto
          168 133 133 122 20 hvcurveto
          endchar
        </CharString>
        <CharString name="Cacute">
          139 callsubr
          61 78 callgsubr
          116 104 496 104 hintmask 11001100
          -83 callsubr
          -202 -34 140 -161 203 hhcurveto
          168 133 133 122 20 hvcurveto
          hintmask 00110000
          -35 628 -97 callgsubr
        </CharString>
        <CharString name="Ccaron">
          139 callsubr
          51 -21 133 -20 hstemhm
          116 104 496 104 hintmask 11001100
          -83 callsubr
          -202 -34 140 -161 203 hhcurveto
          168 133 133 122 20 hvcurveto
          hintmask 00110100
          -30 617 -61 callsubr
        </CharString>
        <CharString name="Ccedilla">
          139 callsubr
          hstem
          116 104 496 104 vstem
          -83 callsubr
          -31 -189 120 -153 182 -19 -13 -76 rcurveline
          16 callsubr
          47 8 -53 21 -54 hhcurveto
          8 43 156 12 120 126 19 116 rlinecurve
          endchar
        </CharString>
        <CharString name="Ccircumflex">
          139 callsubr
          51 -21 133 -20 hstemhm
          116 104 496 104 hintmask 11001100
          -83 callsubr
          -202 -34 140 -161 203 hhcurveto
          168 133 133 122 20 hvcurveto
          hintmask 00110000
          -47 516 -96 callgsubr
          endchar
        </CharString>
        <CharString name="Cdotaccent">
          139 callsubr
          51 111 hstemhm
          116 104 282 110 104 104 hintmask 11010100
          -83 callsubr
          -202 -34 140 -161 203 hhcurveto
          168 133 133 122 20 hvcurveto
          hintmask 00101000
          -134 576 -80 callgsubr
        </CharString>
        <CharString name="Chi">
          -46 callgsubr
        </CharString>
        <CharString name="D">
          811 77 callsubr
          hstem
          706 101 vstem
          -73 callsubr
          endchar
        </CharString>
        <CharString name="Dcaron">
          811 77 callsubr
          125 callgsubr
          706 101 hintmask 11001000
          -73 callsubr
          hintmask 00110000
          -70 515 -61 callsubr
        </CharString>
        <CharString name="Dcroat">
          -38 callsubr
        </CharString>
        <CharString name="Ddotbelow">
          811 77 callsubr
          hstemhm
          263 110 333 101 hintmask 11010000
          -73 callsubr
          hintmask 00100000
          -333 -481 -99 callgsubr
          endchar
        </CharString>
        <CharString name="Delta">
          885 0 79 635 -20 hstem
          835 10 rmoveto
          0 0 4 -5 11 vhcurveto
          -242 669 rlineto
          20 -8 -12 0 -7 hhcurveto
          -7 -12 0 -20 -14 hvcurveto
          -466 -669 rlineto
          -9 -11 0 -4 0 vvcurveto
          -10 -2 8 0 16 hhcurveto
          734 hlineto
          17 7 0 10 2 hvcurveto
          -128 69 rmoveto
          -570 hlineto
          375 537 rlineto
          endchar
        </CharString>
        <CharString name="Dlinebelow">
          811 -163 38 125 149 callgsubr
          hstemhm
          706 101 hintmask 01110000
          -73 callsubr
          hintmask 10000000
          -200 -499 -30 callsubr
        </CharString>
        <CharString name="E">
          -22 callgsubr
        </CharString>
        <CharString name="Eacute">
          -18 callsubr
          85 -21 165 -20 -103 callsubr
          hintmask 0001100000000000
          2 862 -97 callgsubr
        </CharString>
        <CharString name="Ebreve">
          -18 callsubr
          64 44 132 -20 -103 callsubr
          hintmask 0001100000000000
          28 920 -98 callsubr
          endchar
        </CharString>
        <CharString name="Ecaron">
          161 callgsubr
          133 -20 -103 callsubr
          hintmask 0001101000000000
          7 851 -61 callsubr
        </CharString>
        <CharString name="Ecircumflex">
          161 callgsubr
          133 -20 -103 callsubr
          hintmask 0001100000000000
          101 callgsubr
          endchar
        </CharString>
        <CharString name="Ecircumflexacute">
          161 callgsubr
          318 -20 -103 callsubr
          hintmask 0001100000000000
          -10 750 -3 callgsubr
          12 -26 191 89 13 6 11 7 5 16 rlinecurve
          endchar
        </CharString>
        <CharString name="Ecircumflexdotbelow">
          161 callgsubr
          133 -20 157 callgsubr
          34 110 91 31 13 31 145 31 -27 31 hintmask 1110011111000000
          735 260 rmoveto
          -31 hlineto
          -150 -51 -33 -77 -180 hhcurveto
          -149 hlineto
          -46 -1 7 34 5 hvcurveto
          44 263 rlineto
          97 hlineto
          99 9 -30 -87 -14 hvcurveto
          31 hlineto
          44 267 rlineto
          -31 hlineto
          -87 -14 -19 -30 -99 hhcurveto
          -97 hlineto
          39 236 rlineto
          34 6 3 7 46 hhcurveto
          142 hlineto
          hintmask 1010010000100000
          166 11 -60 -134 -4 hvcurveto
          31 hlineto
          8 227 rlineto
          -590 hlineto
          -5 44 callgsubr
          0 -11 -37 -6 hvcurveto
          145 callsubr
          rlineto
          604 hlineto
          hintmask 0001100001000000
          101 callgsubr
          hintmask 0000001000000000
          -230 -879 -99 callgsubr
          endchar
        </CharString>
        <CharString name="Ecircumflexgrave">
          161 callgsubr
          133 -20 -103 callsubr
          hintmask 0001100000000000
          -10 750 -17 callsubr
        </CharString>
        <CharString name="Ecircumflexhookabove">
          161 callgsubr
          338 -20 -103 callsubr
          hintmask 0001100000000000
          101 callgsubr
          114 272 -104 callsubr
        </CharString>
        <CharString name="Ecircumflextilde">
          161 callgsubr
          173 54 -9 54 -31 callgsubr
          hintmask 1110001111000000
          735 260 rmoveto
          -31 hlineto
          -150 -51 -33 -77 -180 hhcurveto
          -149 hlineto
          -46 -1 7 34 5 hvcurveto
          44 263 rlineto
          97 hlineto
          99 9 -30 -87 -14 hvcurveto
          31 hlineto
          44 267 rlineto
          -31 hlineto
          -87 -14 -19 -30 -99 hhcurveto
          -97 hlineto
          39 236 rlineto
          34 6 3 7 46 hhcurveto
          142 hlineto
          hintmask 1010001000100000
          166 11 -60 -134 -4 hvcurveto
          31 hlineto
          8 227 rlineto
          -590 hlineto
          -5 44 callgsubr
          0 -11 -37 -6 hvcurveto
          145 callsubr
          rlineto
          604 hlineto
          hintmask 0000000001000000
          hintmask 0001010000000000
          -10 750 47 callgsubr
          hintmask 0000100000000000
          -74 callsubr
          hintmask 0000010000000000
          -71 callgsubr
          hintmask 0000100000000000
          17 -19 rlineto
          hintmask 0000010000000000
          -73 callgsubr
          hintmask 0000100000000000
          88 callgsubr
        </CharString>
        <CharString name="Edblgrave">
          -18 callsubr
          85 -21 189 -20 -103 callsubr
          hintmask 0001100000000000
          -28 760 rmoveto
          -33 -94 callsubr
          -148 16 rmoveto
          -33 -94 callsubr
          endchar
        </CharString>
        <CharString name="Edieresis">
          -18 callsubr
          54 100 157 callgsubr
          86 99 50 31 13 31 -9 99 55 31 -27 31 hintmask 1110101101000000
          735 260 rmoveto
          -31 hlineto
          -150 -51 -33 -77 -180 hhcurveto
          -149 hlineto
          -46 -1 7 34 5 hvcurveto
          44 263 rlineto
          97 hlineto
          99 9 -30 -87 -14 hvcurveto
          31 hlineto
          44 267 rlineto
          -31 hlineto
          -87 -14 -19 -30 -99 hhcurveto
          -97 hlineto
          39 236 rlineto
          34 6 3 7 46 hhcurveto
          142 hlineto
          hintmask 1010100000100000
          166 11 -60 -134 -4 hvcurveto
          31 hlineto
          8 227 rlineto
          -590 hlineto
          -5 44 callgsubr
          0 -11 -37 -6 hvcurveto
          145 callsubr
          rlineto
          604 hlineto
          hintmask 0000000001000000
          hintmask 0001010010000000
          -214 783 -85 callsubr
        </CharString>
        <CharString name="Edotaccent">
          -18 callsubr
          75 111 157 callgsubr
          192 110 -67 31 13 31 145 31 -27 31 hintmask 1110101110000000
          735 260 rmoveto
          -31 hlineto
          -150 -51 -33 -77 -180 hhcurveto
          -149 hlineto
          -46 -1 7 34 5 hvcurveto
          44 263 rlineto
          97 hlineto
          99 9 -30 -87 -14 hvcurveto
          31 hlineto
          44 267 rlineto
          -31 hlineto
          -87 -14 -19 -30 -99 hhcurveto
          -97 hlineto
          39 236 rlineto
          34 6 3 7 46 hhcurveto
          142 hlineto
          hintmask 1010100001000000
          166 11 -60 -134 -4 hvcurveto
          31 hlineto
          8 227 rlineto
          -590 hlineto
          -5 44 callgsubr
          0 -11 -37 -6 hvcurveto
          145 callsubr
          rlineto
          604 hlineto
          hintmask 0000000010000000
          hintmask 0001010000000000
          -97 810 -80 callgsubr
        </CharString>
        <CharString name="Edotbelow">
          -18 callsubr
          157 callgsubr
          34 110 91 31 13 31 145 31 -27 31 hintmask 1111111100000000
          735 260 rmoveto
          -31 hlineto
          -150 -51 -33 -77 -180 hhcurveto
          -149 hlineto
          -46 -1 7 34 5 hvcurveto
          44 263 rlineto
          97 hlineto
          99 9 -30 -87 -14 hvcurveto
          31 hlineto
          44 267 rlineto
          -31 hlineto
          -87 -14 -19 -30 -99 hhcurveto
          -97 hlineto
          39 236 rlineto
          34 6 3 7 46 hhcurveto
          142 hlineto
          hintmask 1011000010000000
          166 11 -60 -134 -4 hvcurveto
          31 hlineto
          8 227 rlineto
          -590 hlineto
          -5 44 callgsubr
          0 -11 -37 -6 hvcurveto
          145 callsubr
          rlineto
          604 hlineto
          hintmask 0000000100000000
          hintmask 0000100000000000
          -255 -145 -99 callgsubr
          endchar
        </CharString>
        <CharString name="Egrave">
          -18 callsubr
          85 -21 165 -20 -103 callsubr
          hintmask 0001100000000000
          -86 770 -76 callsubr
        </CharString>
        <CharString name="Ehookabove">
          -18 callsubr
          96 -21 205 -20 -103 callsubr
          hintmask 0001100000000000
          -35 894 -102 callsubr
        </CharString>
        <CharString name="Emacron">
          -18 callsubr
          74 38 -31 callgsubr
          hintmask 1110111100000000
          735 260 rmoveto
          -31 hlineto
          -150 -51 -33 -77 -180 hhcurveto
          -149 hlineto
          -46 -1 7 34 5 hvcurveto
          44 263 rlineto
          97 hlineto
          99 9 -30 -87 -14 hvcurveto
          31 hlineto
          44 267 rlineto
          -31 hlineto
          -87 -14 -19 -30 -99 hhcurveto
          -97 hlineto
          39 236 rlineto
          34 6 3 7 46 hhcurveto
          142 hlineto
          hintmask 1010100010000000
          166 11 -60 -134 -4 hvcurveto
          31 hlineto
          8 227 rlineto
          -590 hlineto
          -5 44 callgsubr
          0 -11 -37 -6 hvcurveto
          145 callsubr
          rlineto
          604 hlineto
          hintmask 0000000100000000
          hintmask 0001000000000000
          31 754 -30 callsubr
        </CharString>
        <CharString name="Eng">
          796 -21 94 -73 149 callgsubr
          -11 32 hstemhm
          147 104 -98 92 -86 92 -6 104 -98 92 366 104 hintmask 0001000000000000
          813 342 rmoveto
          192 32 -106 170 -184 hhcurveto
          -80 -78 -34 -54 -57 hvcurveto
          hintmask 0010010000000000
          11 67 rlineto
          -2 -15 -17 -1 -15 hhcurveto
          -151 3 rlineto
          hintmask 0010100000000000
          -81 callsubr
          24 hlineto
          hintmask 0000010000000000
          79 2 -10 -38 -7 hvcurveto
          hintmask 0100001000000000
          -66 callsubr
          hintmask 0100000010000000
          151 -3 rlineto
          hintmask 0100000100000000
          -78 callsubr
          -24 hlineto
          hintmask 1001000011000000
          28 callsubr
          80 483 rlineto
          65 51 83 43 85 hhcurveto
          145 41 -166 -164 -27 hvcurveto
          -22 -130 -24 -148 -82 -42 rrcurveto
          30 6 -18 -28 callsubr
          -24 -21 -26 -5 hvcurveto
          -26 -4 17 -21 26 hhcurveto
          157 99 183 180 30 hvcurveto
          endchar
        </CharString>
        <CharString name="Eogonek">
          723 -214 53 161 33 304 33 277 33 157 callgsubr
          147 92 -4 31 13 31 145 31 -27 31 hintmask 0110101110000000
          735 260 rmoveto
          -31 hlineto
          -150 -51 -33 -77 -180 hhcurveto
          -149 hlineto
          -46 -1 7 34 5 hvcurveto
          44 263 rlineto
          97 hlineto
          99 9 -30 -87 -14 hvcurveto
          31 hlineto
          44 267 rlineto
          -31 hlineto
          hintmask 1111110001000000
          -87 -14 -19 -30 -99 hhcurveto
          -97 hlineto
          39 236 rlineto
          34 6 3 7 46 hhcurveto
          142 hlineto
          166 11 -60 -134 -4 hvcurveto
          31 hlineto
          8 227 rlineto
          -590 hlineto
          -5 44 callgsubr
          0 -11 -37 -6 hvcurveto
          145 callsubr
          rlineto
          444 hlineto
          -40 -23 -44 -49 -9 -48 -35 callsubr
          -95 5 13 101 98 55 rrcurveto
          115 hlineto
          hintmask 0000000010000000
          endchar
        </CharString>
        <CharString name="Eogonekacute">
          723 -214 53 161 33 304 33 277 33 85 78 callgsubr
          157 92 147 92 -4 31 13 31 145 31 -27 31 hintmask 0110001011100000
          735 260 rmoveto
          -31 hlineto
          -150 -51 -33 -77 -180 hhcurveto
          -149 hlineto
          -46 -1 7 34 5 hvcurveto
          44 263 rlineto
          97 hlineto
          99 9 -30 -87 -14 hvcurveto
          31 hlineto
          44 267 rlineto
          -31 hlineto
          hintmask 1111001100010000
          -87 -14 -19 -30 -99 hhcurveto
          -97 hlineto
          39 236 rlineto
          34 6 3 7 46 hhcurveto
          142 hlineto
          166 11 -60 -134 -4 hvcurveto
          31 hlineto
          8 227 rlineto
          -590 hlineto
          -5 44 callgsubr
          0 -11 -37 -6 hvcurveto
          145 callsubr
          rlineto
          444 hlineto
          -40 -23 -44 -49 -9 -48 -35 callsubr
          -95 5 13 101 98 55 rrcurveto
          115 hlineto
          hintmask 0000000000100000
          hintmask 0000110000000000
          2 862 -97 callgsubr
        </CharString>
        <CharString name="Epsilon">
          -22 callgsubr
        </CharString>
        <CharString name="Ereversed">
          -18 callsubr
          hstemhm
          87 31 -30 92 -62 31 0 31 115 31 -18 31 0 31 230 92 hintmask 1110001101100000
          692 hmoveto
          -75 callgsubr
          86 518 rlineto
          37 6 4 11 77 hhcurveto
          22 hlineto
          5 33 rlineto
          -590 hlineto
          -66 -227 rlineto
          31 hlineto
          134 40 31 60 166 hhcurveto
          142 hlineto
          46 1 -7 -34 -6 hvcurveto
          -39 -236 rlineto
          -97 hlineto
          -99 -9 30 87 14 hvcurveto
          -31 hlineto
          -44 -267 rlineto
          31 hlineto
          87 14 19 30 99 hhcurveto
          97 hlineto
          -44 -263 rlineto
          -34 -5 -3 -7 -46 hhcurveto
          hintmask 1000010010000000
          -149 hlineto
          -180 -9 77 150 -1 hvcurveto
          hintmask 0001000000000000
          -31 hlineto
          hintmask 1000100000100000
          1 -260 rlineto
          endchar
        </CharString>
        <CharString name="Eta">
          128 callgsubr
          hstemhm
          159 92 -6 92 235 92 -6 92 hintmask 10000100
          751 hmoveto
          -75 callgsubr
          hintmask 01101010
          86 521 -95 callgsubr
          77 1 -11 -37 -7 hvcurveto
          -38 -230 rlineto
          -321 hlineto
          38 230 -95 callgsubr
          77 1 -11 -37 -7 hvcurveto
          hintmask 11010100
          -86 -521 -76 callgsubr
          endchar
        </CharString>
        <CharString name="Eth">
          -38 callsubr
        </CharString>
        <CharString name="Etilde">
          -18 callsubr
          54 54 -9 54 -103 callsubr
          hintmask 0000100000000000
          26 814 83 callgsubr
          hintmask 0001000000000000
          -74 callsubr
          hintmask 0000100000000000
          -71 callgsubr
          hintmask 0001000000000000
          17 -19 rlineto
          hintmask 0000100000000000
          -73 callgsubr
          hintmask 0001000000000000
          -52 callsubr
        </CharString>
        <CharString name="Euro">
          665 -21 32 257 32 84 32 244 32 -20 32 hstemhm
          175 104 hintmask 11101100
          604 -9 rmoveto
          26 150 rlineto
          7 1 -5 5 -6 hhcurveto
          -8 hlineto
          -7 -5 -4 -6 -2 hvcurveto
          -74 -21 -70 -58 -73 hhcurveto
          -65 -50 39 55 -26 hvcurveto
          -24 49 -4 56 5 58 rrcurveto
          273 hlineto
          5 147 callgsubr
          -277 hlineto
          6 42 8 42 rlineto
          310 hlineto
          6 147 callgsubr
          -311 hlineto
          15 57 23 57 40 48 rrcurveto
          55 44 63 39 65 hhcurveto
          73 51 -57 -74 -4 hvcurveto
          -6 4 -5 6 vhcurveto
          8 hlineto
          7 6 5 7 1 hvcurveto
          hintmask 00010000
          25 150 rlineto
          hintmask 00001000
          7 1 -4 5 -7 hhcurveto
          -2 hlineto
          -3 -4 -1 -2 -2 hvcurveto
          hintmask 00010000
          -46 -41 rlineto
          hintmask 11101100
          28 -28 -40 16 -46 hhcurveto
          -84 -85 -42 -65 -65 hvcurveto
          -52 -52 -38 -63 -22 -66 rrcurveto
          -52 hlineto
          -6 -5 -4 -5 -2 hvcurveto
          -4 -8 rlineto
          -8 -4 5 -7 8 hhcurveto
          50 hlineto
          -4 -14 -3 -14 -2 -14 -2 -14 -2 -14 -1 -14 rrcurveto
          -48 hlineto
          -5 -5 -4 -5 -3 hvcurveto
          -4 -8 rlineto
          -8 -3 4 -7 8 hhcurveto
          55 hlineto
          -67 17 -63 35 -52 vhcurveto
          -65 43 71 -42 85 hhcurveto
          45 46 17 28 37 hvcurveto
          32 -41 rlineto
          -3 2 3 -1 3 hhcurveto
          2 hlineto
          7 6 5 7 1 hvcurveto
          endchar
        </CharString>
        <CharString name="F">
          693 0 33 291 33 290 33 hstemhm
          159 92 -52 92 -46 92 1 31 106 31 13 31 143 31 hintmask 0010010000000000
          724 453 rmoveto
          8 227 rlineto
          -575 hlineto
          -5 44 callgsubr
          0 -11 -37 -6 hvcurveto
          hintmask 1001000000000000
          145 callsubr
          rlineto
          hintmask 1000101000000000
          155 3 rlineto
          47 73 0 -3 44 96 callsubr
          hintmask 1000010000000000
          -32 hlineto
          hintmask 0001000000000000
          -94 2 14 35 6 hvcurveto
          hintmask 0110101111000000
          40 242 rlineto
          93 hlineto
          98 7 -31 -86 -14 hvcurveto
          31 hlineto
          44 267 rlineto
          -31 hlineto
          -85 -14 -17 -32 -98 hhcurveto
          -93 hlineto
          41 249 rlineto
          34 6 3 7 46 hhcurveto
          133 hlineto
          163 8 -63 -131 -4 hvcurveto
          endchar
        </CharString>
        <CharString name="G">
          56 callsubr
          hstem
          116 104 418 92 vstem
          -100 callsubr
          endchar
        </CharString>
        <CharString name="Gacute">
          56 callsubr
          61 78 callgsubr
          116 104 418 92 hintmask 11100110
          -100 callsubr
          hintmask 00011000
          -118 619 -97 callgsubr
        </CharString>
        <CharString name="Gamma">
          664 0 33 614 171 callgsubr
          hintmask 01010000
          695 453 rmoveto
          8 227 rlineto
          -546 hlineto
          -5 44 callgsubr
          0 -11 -37 -6 hvcurveto
          hintmask 10100000
          145 callsubr
          155 3 rlineto
          47 73 0 -3 44 96 callsubr
          hintmask 10010000
          -32 hlineto
          hintmask 01100000
          -94 2 14 35 6 hvcurveto
          87 524 rlineto
          34 6 3 7 46 hhcurveto
          115 hlineto
          155 5 -65 -129 -4 hvcurveto
          endchar
        </CharString>
        <CharString name="Gbreve">
          56 callsubr
          40 44 132 -20 hstemhm
          116 104 418 92 hintmask 11100110
          -100 callsubr
          hintmask 00011000
          -92 677 -98 callsubr
          endchar
        </CharString>
        <CharString name="Gcaron">
          56 callsubr
          51 -21 133 -20 hstemhm
          116 104 418 92 hintmask 11100110
          -100 callsubr
          hintmask 00011000
          -113 608 -61 callsubr
        </CharString>
        <CharString name="Gcedilla">
          834 139 callgsubr
          63 callgsubr
          hstem
          116 104 418 92 vstem
          -100 callsubr
          -384 -386 -101 callsubr
        </CharString>
        <CharString name="Gcircumflex">
          56 callsubr
          51 -21 133 -20 hstemhm
          116 104 418 92 hintmask 11100110
          -100 callsubr
          hintmask 00011000
          -130 507 -96 callgsubr
          endchar
        </CharString>
        <CharString name="Gcommaaccent">
          834 139 callgsubr
          63 callgsubr
          hstemhm
          116 104 418 92 hintmask 00111110
          -100 callsubr
          hintmask 11000000
          -384 -386 -101 callsubr
        </CharString>
        <CharString name="Gdotaccent">
          56 callsubr
          51 111 hstemhm
          116 104 277 110 31 92 hintmask 11101010
          -100 callsubr
          hintmask 00010100
          -216 567 -80 callgsubr
        </CharString>
        <CharString name="H">
          128 callgsubr
          hstemhm
          159 92 -6 92 235 92 -6 92 hintmask 10000100
          751 hmoveto
          -75 callgsubr
          hintmask 01101010
          86 521 -95 callgsubr
          77 1 -11 -37 -7 hvcurveto
          -38 -230 rlineto
          -321 hlineto
          38 230 -95 callgsubr
          77 1 -11 -37 -7 hvcurveto
          hintmask 11010100
          -86 -521 -76 callgsubr
          endchar
        </CharString>
        <CharString name="H_uni0303">
          128 callgsubr
          51 54 -9 54 60 callgsubr
          235 92 -6 92 hintmask 1000000100000000
          751 hmoveto
          -75 callgsubr
          hintmask 0110001010000000
          86 521 -95 callgsubr
          77 1 -11 -37 -7 hvcurveto
          -38 -230 rlineto
          -321 hlineto
          38 230 -95 callgsubr
          77 1 -11 -37 -7 hvcurveto
          hintmask 1100010100000000
          -86 -521 -76 callgsubr
          hintmask 0000100000000000
          105 811 83 callgsubr
          hintmask 0001000000000000
          -74 callsubr
          hintmask 0000100000000000
          -71 callgsubr
          hintmask 0001000000000000
          17 -19 rlineto
          hintmask 0000100000000000
          -73 callgsubr
          hintmask 0001000000000000
          -52 callsubr
        </CharString>
        <CharString name="Hbar">
          121 callsubr
          125 32 121 33 hstemhm
          159 92 -23 92 -87 92 -80 92 235 92 -23 92 -87 92 -80 92 hintmask 1000000010000000
          751 hmoveto
          -75 callgsubr
          hintmask 0010000001000000
          69 416 rlineto
          101 hlineto
          5 32 rlineto
          hintmask 0010000000100000
          -101 hlineto
          hintmask 0001000000010000
          12 73 -95 callgsubr
          77 1 -11 -37 -7 hvcurveto
          hintmask 0010001000100000
          -12 -73 rlineto
          -321 hlineto
          hintmask 0001000100000000
          12 73 -95 callgsubr
          77 1 -11 -37 -7 hvcurveto
          hintmask 0010001000000000
          -12 -73 rlineto
          -101 hlineto
          -5 -32 rlineto
          hintmask 0010010000000000
          101 hlineto
          hintmask 1100100010000000
          -69 -416 -76 callgsubr
          15 369 rmoveto
          -321 hlineto
          hintmask 0110010001000000
          21 125 rlineto
          321 hlineto
          endchar
        </CharString>
        <CharString name="Hbrevebelow">
          796 164 callsubr
          76 33 306 33 278 171 callgsubr
          235 92 -6 92 hintmask 0010000100000000
          751 hmoveto
          -75 callgsubr
          hintmask 0001101010000000
          86 521 -95 callgsubr
          77 1 -11 -37 -7 hvcurveto
          -38 -230 rlineto
          -321 hlineto
          38 230 -95 callgsubr
          77 1 -11 -37 -7 hvcurveto
          hintmask 0011010100000000
          -86 -521 -76 callgsubr
          hintmask 1100000000000000
          -55 -59 11 callgsubr
        </CharString>
        <CharString name="Hcircumflex">
          128 callgsubr
          72 -21 133 -20 60 callgsubr
          235 92 -6 92 hintmask 1000000100000000
          751 hmoveto
          -75 callgsubr
          hintmask 0110001010000000
          86 521 -95 callgsubr
          77 1 -11 -37 -7 hvcurveto
          -38 -230 rlineto
          -321 hlineto
          38 230 -95 callgsubr
          77 1 -11 -37 -7 hvcurveto
          hintmask 1100010100000000
          -86 -521 -76 callgsubr
          hintmask 0001100000000000
          69 747 -96 callgsubr
          endchar
        </CharString>
        <CharString name="Hdieresis">
          128 callgsubr
          51 100 60 callgsubr
          34 99 102 92 -78 99 -27 92 hintmask 1000000100000000
          751 hmoveto
          -75 callgsubr
          hintmask 0110010001000000
          86 521 -95 callgsubr
          77 1 -11 -37 -7 hvcurveto
          -38 -230 rlineto
          -321 hlineto
          38 230 -95 callgsubr
          77 1 -11 -37 -7 hvcurveto
          hintmask 1100100100000000
          -86 -521 -76 callgsubr
          hintmask 0001001010000000
          -135 780 -85 callsubr
        </CharString>
        <CharString name="Hdotbelow">
          128 callgsubr
          hstemhm
          159 92 -6 92 -18 110 143 92 -6 92 hintmask 10000010
          751 hmoveto
          -75 callgsubr
          hintmask 01101001
          86 521 -95 callgsubr
          77 1 -11 -37 -7 hvcurveto
          -38 -230 rlineto
          -321 hlineto
          38 230 -95 callgsubr
          77 1 -11 -37 -7 hvcurveto
          hintmask 11010010
          -86 -521 -76 callgsubr
          hintmask 00000100
          -176 -148 -99 callgsubr
          endchar
        </CharString>
        <CharString name="I">
          71 callgsubr
          20 callgsubr
          hintmask 10000100
          343 hmoveto
          169 callsubr
          hintmask 01001000
          -69 callsubr
          hintmask 01100000
          -54 callsubr
          hintmask 10010000
          -66 callsubr
          hintmask 10000100
          endchar
        </CharString>
        <CharString name="I_J">
          890 -21 28 -7 33 26 110 -88 33 536 33 20 callgsubr
          72 110 -74 110 0 89 28 89 -75 89 76 89 hintmask 0101000010000000
          343 hmoveto
          169 callsubr
          hintmask 0000100100100000
          -69 callsubr
          hintmask 0000110000000000
          -54 callsubr
          hintmask 0101001000000000
          -66 callsubr
          hintmask 0100100010011010
          748 647 67 callsubr
          -52 -28 0 -56 hhcurveto
          -44 -76 0 3 -40 hvcurveto
          -81 callsubr
          34 hlineto
          94 1 -12 -37 -6 hvcurveto
          hintmask 1000000000100100
          -75 -452 rlineto
          -92 -15 -63 -50 -53 hhcurveto
          -43 -42 20 31 -18 hvcurveto
          hintmask 0001000001000000
          28 1 33 17 6 38 rrcurveto
          hintmask 1010100001000110
          35 6 -24 20 -28 hhcurveto
          -21 -36 -14 -43 -7 hvcurveto
          -74 -13 63 -59 94 hhcurveto
          92 112 60 110 18 hvcurveto
          76 456 rlineto
          45 7 12 0 64 hhcurveto
          endchar
        </CharString>
        <CharString name="Iacute">
          71 callgsubr
          82 -21 165 -20 -90 callsubr
          hintmask 00110000
          288 859 -97 callgsubr
        </CharString>
        <CharString name="Ibreve">
          71 callgsubr
          61 44 132 -20 -90 callsubr
          hintmask 00110000
          314 917 -98 callsubr
          endchar
        </CharString>
        <CharString name="Icaron">
          71 callgsubr
          72 -21 133 -20 -90 callsubr
          hintmask 00110000
          293 848 -61 callsubr
        </CharString>
        <CharString name="Icircumflex">
          71 callgsubr
          72 -21 133 -20 -90 callsubr
          hintmask 00110000
          276 747 -96 callgsubr
          endchar
        </CharString>
        <CharString name="Idblgrave">
          71 callgsubr
          82 -21 189 -20 -90 callsubr
          hintmask 00110000
          258 757 rmoveto
          -33 -94 callsubr
          -148 16 rmoveto
          -33 -94 callsubr
          endchar
        </CharString>
        <CharString name="Idieresis">
          71 callgsubr
          51 100 146 callsubr
          hintmask 1000000100000000
          343 hmoveto
          169 callsubr
          hintmask 0100001000000000
          -69 callsubr
          hintmask 0101000000000000
          -54 callsubr
          hintmask 1000100000000000
          -66 callsubr
          hintmask 1000000100000000
          hintmask 0010010010000000
          72 780 -85 callsubr
        </CharString>
        <CharString name="Idieresisacute">
          71 callgsubr
          51 100 81 -21 165 -20 146 callsubr
          hintmask 1000000001000000
          343 hmoveto
          169 callsubr
          hintmask 0100000010000000
          -69 callsubr
          hintmask 0100010000000000
          -54 callsubr
          hintmask 1000001000000000
          -66 callsubr
          hintmask 1000000001000000
          hintmask 0011100100100000
          72 780 rmoveto
          -105 callsubr
          215 hmoveto
          -105 callsubr
          26 229 -97 callgsubr
        </CharString>
        <CharString name="Idotaccent">
          71 callgsubr
          72 111 20 callgsubr
          -72 110 hintmask 10000010
          343 hmoveto
          169 callsubr
          hintmask 01000100
          -69 callsubr
          hintmask 01010000
          -54 callsubr
          hintmask 10001000
          -66 callsubr
          hintmask 10000010
          hintmask 00100001
          189 807 -80 callgsubr
        </CharString>
        <CharString name="Idotbelow">
          71 callgsubr
          hstemhm
          113 110 -70 92 -86 92 -6 92 -86 92 hintmask 10000010
          343 hmoveto
          169 callsubr
          hintmask 01000100
          -69 callsubr
          hintmask 01010000
          -54 callsubr
          hintmask 10001000
          -66 callsubr
          hintmask 10000010
          hintmask 00100000
          31 -148 100 callsubr
          hintmask 00100000
          163 callsubr
        </CharString>
        <CharString name="Igrave">
          71 callgsubr
          82 -21 165 -20 -90 callsubr
          hintmask 00110000
          200 767 -76 callsubr
        </CharString>
        <CharString name="Ihookabove">
          71 callgsubr
          93 -21 205 -20 -90 callsubr
          hintmask 00110001
          251 891 -102 callsubr
        </CharString>
        <CharString name="Imacron">
          71 callgsubr
          71 38 20 callgsubr
          hintmask 10000010
          343 hmoveto
          169 callsubr
          hintmask 01000100
          -69 callsubr
          hintmask 01010000
          -54 callsubr
          hintmask 10001000
          -66 callsubr
          hintmask 10000010
          hintmask 00100000
          317 751 -30 callsubr
        </CharString>
        <CharString name="Imacron.alt">
          71 callgsubr
          71 38 20 callgsubr
          hintmask 10000010
          343 hmoveto
          169 callsubr
          hintmask 01000100
          -69 callsubr
          hintmask 01010000
          -54 callsubr
          hintmask 10001000
          -66 callsubr
          hintmask 10000010
          hintmask 00100000
          228 751 117 callsubr
        </CharString>
        <CharString name="Iogonek">
          383 -214 53 161 149 callgsubr
          20 callgsubr
          hintmask 11000010
          48 callsubr
          hintmask 00100100
          -69 callsubr
          hintmask 00110000
          -54 callsubr
          hintmask 11001000
          -86 -521 rlineto
          -38 -7 -4 -10 -79 hhcurveto
          -24 hlineto
          -6 -33 151 3 -40 -30 -47 -50 -8 -43 rlinecurve
          -42 callsubr
          endchar
        </CharString>
        <CharString name="Iogonekacute">
          383 -214 53 161 149 callgsubr
          82 -21 165 -20 20 callgsubr
          hintmask 1100000010000000
          48 callsubr
          hintmask 0010000100000000
          -69 callsubr
          hintmask 0010010000000000
          -54 callsubr
          hintmask 1100001000000000
          -86 -521 rlineto
          -38 -7 -4 -10 -79 hhcurveto
          -24 hlineto
          -6 -33 151 3 -40 -30 -47 -50 -8 -43 rlinecurve
          -42 callsubr
          hintmask 0001100000000000
          157 981 -97 callgsubr
        </CharString>
        <CharString name="Iota">
          71 callgsubr
          20 callgsubr
          hintmask 10000100
          343 hmoveto
          169 callsubr
          hintmask 01001000
          -69 callsubr
          hintmask 01100000
          -54 callsubr
          hintmask 10010000
          -66 callsubr
          hintmask 10000100
          endchar
        </CharString>
        <CharString name="Itilde">
          71 callgsubr
          51 54 -9 54 -90 callsubr
          hintmask 00010000
          312 811 -74 callgsubr
        </CharString>
        <CharString name="J">
          181 callgsubr
          73 callgsubr
          hintmask 00101101
          8 callsubr
          hintmask 11111011
          -38 callgsubr
          endchar
        </CharString>
        <CharString name="J_uni030C.cap">
          545.5 -21 28 52 110 306 -21 146 83 -33 33 73 callgsubr
          hintmask 0000101101000000
          8 callsubr
          hintmask 1100111011000000
          -38 callgsubr
          124 -47 rmoveto
          41 6 88 callsubr
          hintmask 0011000000000000
          52 callgsubr
        </CharString>
        <CharString name="Jacute">
          181 callgsubr
          82 -21 165 -20 73 callgsubr
          hintmask 0010001101000000
          8 callsubr
          hintmask 1110011011000000
          -38 callgsubr
          hintmask 0001100000000000
          33 212 -97 callgsubr
        </CharString>
        <CharString name="Jcircumflex">
          181 callgsubr
          72 -21 133 -20 73 callgsubr
          hintmask 0010001101000000
          8 callsubr
          hintmask 1110011011000000
          -38 callgsubr
          hintmask 0001100001000000
          21 100 -96 callgsubr
          endchar
        </CharString>
        <CharString name="K">
          825 0 65 callsubr
          hintmask 11011000
          -66 callgsubr
          hintmask 10100000
          -48 callsubr
          endchar
        </CharString>
        <CharString name="Kappa">
          825 0 65 callsubr
          hintmask 11011000
          -66 callgsubr
          hintmask 10100000
          -48 callsubr
          endchar
        </CharString>
        <CharString name="Kcedilla">
          825 -271 -21 146 83 63 65 callsubr
          hintmask 00110110
          -66 callgsubr
          hintmask 11101000
          -48 callsubr
          -344 -143 -101 callsubr
        </CharString>
        <CharString name="Kcommaaccent">
          825 -271 -21 146 83 63 65 callsubr
          hintmask 00110110
          -66 callgsubr
          hintmask 00101000
          -48 callsubr
          hintmask 11000000
          -344 -143 -101 callsubr
        </CharString>
        <CharString name="L">
          121 callgsubr
          hstem
          245 92 vstem
          -92 callsubr
          endchar
        </CharString>
        <CharString name="L_uni0303">
          121 callgsubr
          51 97 callsubr
          245 92 hintmask 11001000
          -92 callsubr
          hintmask 00010000
          -79 814 -74 callgsubr
        </CharString>
        <CharString name="Lacute">
          121 callgsubr
          90 callsubr
          245 92 hintmask 11001000
          -92 callsubr
          hintmask 00110000
          -103 862 -97 callgsubr
        </CharString>
        <CharString name="Lambda">
          737 0 33 681 -20 hstem
          701 -36 callsubr
          -59 -18 0 40 -8 hvcurveto
          -113 618 rlineto
          16 -3 -4 7 -15 hhcurveto
          -15 -6 -7 -16 -9 hvcurveto
          -305 -591 -24 -45 -33 -21 -54 -1 rlinecurve
          26 callsubr
          35 0 28 hhcurveto
          17 48 0 -3 44 hvcurveto
          6 33 -49 1 -20 24 4 26 rlinecurve
          1 5 0 2 7 13 244 471 rcurveline
          91 -494 rlineto
          2 -13 0 -2 -3 vvcurveto
          -30 -5 -55 0 -26 hhcurveto
          -6 -33 141 3 rlineto
          39 43 0 -3 44 hvcurveto
          endchar
        </CharString>
        <CharString name="Lcaron">
          664 0 33 442 -21 146 83 -33 33 hstemhm
          245 92 hintmask 10011000
          -92 callsubr
          25 603 rmoveto
          41 6 88 callsubr
          hintmask 01100000
          52 callgsubr
        </CharString>
        <CharString name="Lcedilla">
          664 170 callsubr
          hstem
          245 92 vstem
          -92 callsubr
          -236 -143 -101 callsubr
        </CharString>
        <CharString name="Lcommaaccent">
          664 170 callsubr
          hstemhm
          245 92 hintmask 00111000
          -92 callsubr
          hintmask 11000000
          -236 -143 -101 callsubr
        </CharString>
        <CharString name="Ldot">
          664 0 33 318 111 188 33 hstem
          245 92 vstem
          -92 callsubr
          56 406 -99 callgsubr
          endchar
        </CharString>
        <CharString name="Ldotbelow">
          121 callgsubr
          hstemhm
          245 92 -84 110 hintmask 11100000
          -92 callsubr
          hintmask 00010000
          -227 -145 -99 callgsubr
          endchar
        </CharString>
        <CharString name="Ldotbelowmacron">
          121 callgsubr
          71 38 hstemhm
          245 92 -84 110 hintmask 11010000
          -92 callsubr
          -227 74 callgsubr
          hintmask 00100000
          158 899 -30 callsubr
        </CharString>
        <CharString name="Lslash">
          121 callgsubr
          hstem
          245 92 vstem
          662 260 rmoveto
          -31 hlineto
          -104 -29 -35 -123 -183 hhcurveto
          -93 hlineto
          -46 -1 7 34 5 hvcurveto
          49 291 199 140 -18 28 -173 -122 31 190 -15 callgsubr
          -73 0 -47 hhcurveto
          -153 3 -71 callsubr
          -44 -265 -102 -72 19 -28 76 54 -35 -210 -46 callsubr
          546 hlineto
          endchar
        </CharString>
        <CharString name="M">
          91 callsubr
          504 82 11 82 hintmask 11011100
          -45 callgsubr
          hintmask 10101100
          0 callsubr
          endchar
        </CharString>
        <CharString name="Mdotbelow">
          91 callsubr
          158 110 236 82 11 82 hintmask 11010110
          -45 callgsubr
          hintmask 10100110
          0 callsubr
          hintmask 00001000
          -264 -148 -99 callgsubr
          endchar
        </CharString>
        <CharString name="Mu">
          91 callsubr
          504 82 11 82 hintmask 11011100
          -45 callgsubr
          hintmask 10101100
          0 callsubr
          endchar
        </CharString>
        <CharString name="N">
          796 0 151 callgsubr
          hintmask 10111000
          -96 callsubr
          hintmask 11001000
          -56 callgsubr
          endchar
        </CharString>
        <CharString name="Nacute">
          106 callgsubr
          82 -21 165 -20 173 callsubr
          hintmask 10100110
          -96 callsubr
          hintmask 11000010
          -56 callgsubr
          hintmask 00011000
          -173 212 -97 callgsubr
        </CharString>
        <CharString name="Ncaron">
          106 callgsubr
          72 -21 133 -20 173 callsubr
          hintmask 10100110
          -96 callsubr
          hintmask 11000010
          -56 callgsubr
          hintmask 00011000
          -168 201 -61 callsubr
        </CharString>
        <CharString name="Ncedilla">
          796 -271 -21 146 83 63 151 callgsubr
          hintmask 00101110
          -96 callsubr
          hintmask 11110010
          -56 callgsubr
          -439 -793 -101 callsubr
        </CharString>
        <CharString name="Ncommaaccent">
          796 -271 -21 146 83 63 151 callgsubr
          hintmask 00101110
          -96 callsubr
          hintmask 00110010
          -56 callgsubr
          hintmask 11000000
          -439 -793 -101 callsubr
        </CharString>
        <CharString name="Ndotaccent">
          106 callgsubr
          51 111 178 callgsubr
          277 110 128 34 hintmask 10101010
          -96 callsubr
          hintmask 11000010
          -56 callgsubr
          hintmask 00010100
          -275 139 -80 callgsubr
        </CharString>
        <CharString name="Ndotbelow">
          106 callgsubr
          178 callgsubr
          122 110 283 34 hintmask 10110100
          -96 callsubr
          hintmask 11000100
          -56 callgsubr
          hintmask 00001000
          -430 -795 -99 callgsubr
          endchar
        </CharString>
        <CharString name="Ntilde">
          106 callgsubr
          51 54 -9 54 173 callsubr
          hintmask 10100110
          -96 callsubr
          hintmask 11000010
          -56 callgsubr
          hintmask 00001000
          -149 164 rmoveto
          -17 -91 callgsubr
          64 hvcurveto
          endchar
        </CharString>
        <CharString name="Nu">
          796 0 151 callgsubr
          hintmask 10111000
          -96 callsubr
          hintmask 11001000
          -56 callgsubr
          endchar
        </CharString>
        <CharString name="O">
          3 callgsubr
          hstem
          -104 callgsubr
          endchar
        </CharString>
        <CharString name="OE">
          -55 callgsubr
        </CharString>
        <CharString name="OE.dup">
          -55 callgsubr
        </CharString>
        <CharString name="Oacute">
          3 callgsubr
          61 78 callgsubr
          hintmask 11000000
          -104 callgsubr
          hintmask 00110000
          -19 508 -97 callgsubr
        </CharString>
        <CharString name="Obreve">
          3 callgsubr
          40 44 132 -20 hstemhm
          hintmask 11000000
          -104 callgsubr
          hintmask 00110000
          7 566 -98 callsubr
          endchar
        </CharString>
        <CharString name="Ocaron">
          3 callgsubr
          51 -21 133 -20 hstemhm
          hintmask 11000000
          -104 callgsubr
          hintmask 00110000
          -14 497 -61 callsubr
        </CharString>
        <CharString name="Ocircumflex">
          3 callgsubr
          51 -21 133 -20 hstemhm
          hintmask 11000000
          -104 callgsubr
          hintmask 00110000
          101 callsubr
          endchar
        </CharString>
        <CharString name="Ocircumflexacute">
          3 callgsubr
          51 -21 318 -20 hstemhm
          hintmask 11000000
          -104 callgsubr
          hintmask 00110000
          -31 396 -3 callgsubr
          12 -26 191 89 13 6 11 7 5 16 rlinecurve
          endchar
        </CharString>
        <CharString name="Ocircumflexdotbelow">
          3 callgsubr
          51 -21 133 -20 hstemhm
          335 110 hintmask 11110000
          -104 callgsubr
          101 callsubr
          hintmask 00001000
          -230 -879 -99 callgsubr
          endchar
        </CharString>
        <CharString name="Ocircumflexgrave">
          3 callgsubr
          51 -21 133 -20 hstemhm
          hintmask 11000000
          -104 callgsubr
          hintmask 00110000
          -31 396 -17 callsubr
        </CharString>
        <CharString name="Ocircumflexhookabove">
          3 callgsubr
          51 -21 338 -20 hstemhm
          hintmask 11000000
          -104 callgsubr
          hintmask 00110000
          101 callsubr
          114 272 -104 callsubr
        </CharString>
        <CharString name="Ocircumflextilde">
          3 callgsubr
          51 -21 173 97 callsubr
          hintmask 11000000
          -104 callgsubr
          hintmask 00101000
          -31 396 rmoveto
          -132 117 -170 -117 7 -16 151 66 129 -66 rlineto
          79 253 rmoveto
          -16 -91 callgsubr
          63 hvcurveto
          endchar
        </CharString>
        <CharString name="Odblgrave">
          3 callgsubr
          61 156 callsubr
          hintmask 11000000
          -104 callgsubr
          hintmask 00110000
          -49 406 rmoveto
          -33 -94 callsubr
          -148 16 rmoveto
          -33 -94 callsubr
          endchar
        </CharString>
        <CharString name="Odieresis">
          3 callgsubr
          30 100 hstemhm
          387 99 116 99 hintmask 11000000
          -104 callgsubr
          hintmask 00111000
          -235 429 -85 callsubr
        </CharString>
        <CharString name="Odotbelow">
          3 callgsubr
          hstemhm
          335 110 hintmask 11000000
          -104 callgsubr
          hintmask 00100000
          -276 -499 -99 callgsubr
          endchar
        </CharString>
        <CharString name="Ograve">
          3 callgsubr
          61 78 callgsubr
          hintmask 11000000
          -104 callgsubr
          hintmask 00110000
          -107 416 -76 callsubr
        </CharString>
        <CharString name="Ohookabove">
          3 callgsubr
          72 176 callgsubr
          hintmask 11000000
          -104 callgsubr
          hintmask 00110000
          -56 540 -102 callsubr
        </CharString>
        <CharString name="Ohorn">
          3 callgsubr
          90 -20 hstem
          -95 callsubr
          endchar
        </CharString>
        <CharString name="Ohornacute">
          3 callgsubr
          61 -21 50 -20 135 -20 hstemhm
          hintmask 11010000
          -95 callsubr
          hintmask 00101000
          -48 507 -97 callgsubr
        </CharString>
        <CharString name="Ohorndotbelow">
          3 callgsubr
          90 -20 hstemhm
          335 110 hintmask 11100000
          -95 callsubr
          hintmask 00010000
          -275 -500 -99 callgsubr
          endchar
        </CharString>
        <CharString name="Ohorngrave">
          3 callgsubr
          61 -21 50 -20 135 -20 hstemhm
          hintmask 11010000
          -95 callsubr
          hintmask 00101000
          -106 415 -76 callsubr
        </CharString>
        <CharString name="Ohornhookabove">
          3 callgsubr
          72 -21 39 -20 186 -20 hstemhm
          hintmask 11010000
          -95 callsubr
          hintmask 00101000
          -55 539 -102 callsubr
        </CharString>
        <CharString name="Ohorntilde">
          3 callgsubr
          30 54 -9 54 -39 -20 hstemhm
          hintmask 11001000
          -95 callsubr
          hintmask 00010000
          6 459 -74 callgsubr
        </CharString>
        <CharString name="Ohungarumlaut">
          3 callgsubr
          61 156 callsubr
          hintmask 11000000
          -104 callgsubr
          hintmask 00110000
          -156 540 rmoveto
          -43 callgsubr
          177 hmoveto
          -43 callgsubr
          endchar
        </CharString>
        <CharString name="Omacron">
          3 callgsubr
          50 38 hstemhm
          hintmask 11000000
          -104 callgsubr
          hintmask 00100000
          10 400 -30 callsubr
        </CharString>
        <CharString name="Omega">
          -37 callgsubr
        </CharString>
        <CharString name="Omicron">
          3 callgsubr
          hstem
          -104 callgsubr
          endchar
        </CharString>
        <CharString name="Oogonek">
          826 -21 33 -31 31 661 31 hstemhm
          426 104 hintmask 01110000
          -13 callgsubr
          endchar
        </CharString>
        <CharString name="Oogonekacute">
          826 -21 33 -31 31 661 31 61 78 callgsubr
          426 104 hintmask 01100100
          -13 callgsubr
          hintmask 00011000
          -19 508 -97 callgsubr
        </CharString>
        <CharString name="Orogate">
          826 823 339 rmoveto
          32 196 -124 161 -187 8 29 174 rcurveline
          -28 hlineto
          -29 -174 -191 -8 -177 -162 -32 -195 rlinecurve
          -34 -199 130 -154 184 -7 -29 -173 rcurveline
          28 hlineto
          29 173 188 8 178 155 33 197 rlinecurve
          -102 15 rmoveto
          -254 -42 -159 -88 -105 hhcurveto
          -109 -126 91 251 42 hvcurveto
          239 40 159 80 103 hhcurveto
          108 128 -84 -235 -39 hvcurveto
          endchar
        </CharString>
        <CharString name="Oslash">
          118 callgsubr
          hstem
          116 92 523 92 vstem
          -67 callsubr
          endchar
        </CharString>
        <CharString name="Oslash.dup">
          118 callgsubr
          hstem
          116 92 523 92 vstem
          -67 callsubr
          endchar
        </CharString>
        <CharString name="Oslashacute">
          118 callgsubr
          44 78 callgsubr
          116 92 523 92 hintmask 11110011
          -67 callsubr
          hintmask 00001100
          -29 523 -97 callgsubr
        </CharString>
        <CharString name="Otilde">
          3 callgsubr
          30 97 callsubr
          hintmask 11000000
          -104 callgsubr
          hintmask 00010000
          5 460 -74 callgsubr
        </CharString>
        <CharString name="P">
          -17 callgsubr
        </CharString>
        <CharString name="Phi">
          767 0 33 101 31 353 31 101 33 hstemhm
          116 101 134 85 -76 85 -80 85 -27 85 -80 85 -76 85 141 101 hintmask 0000000001000000
          764 341 rmoveto
          16 95 -88 95 -179 16 rrcurveto
          hintmask 0001010000100000
          9 54 -15 callgsubr
          -75 0 -48 hhcurveto
          -48 -76 0 3 -44 hvcurveto
          -81 callsubr
          32 hlineto
          94 -2 -14 -35 -6 hvcurveto
          hintmask 0000100001000000
          -9 -55 -169 -15 -127 -92 -16 -97 rlinecurve
          hintmask 0000001000000000
          -17 -102 101 -88 160 -15 rrcurveto
          hintmask 1000110000100000
          59 callgsubr
          hintmask 0000101000010000
          9 54 189 17 115 98 15 90 rlinecurve
          -399 -176 rmoveto
          -86 10 -83 41 21 125 rrcurveto
          hintmask 0010000010000000
          19 112 79 53 108 12 rrcurveto
          hintmask 0100000100000000
          240 -176 rmoveto
          -21 -128 -99 -41 -93 -8 rrcurveto
          hintmask 0010000010010000
          58 353 87 -7 90 -40 -22 -129 rlinecurve
          endchar
        </CharString>
        <CharString name="Pi">
          97 callgsubr
          614 33 hstem
          159 92 321 92 vstem
          751 hmoveto
          -75 callgsubr
          86 518 rlineto
          37 6 4 11 77 hhcurveto
          22 hlineto
          5 33 rlineto
          -707 hlineto
          -5 44 callgsubr
          0 -11 -37 -6 hvcurveto
          -86 -518 -7 callgsubr
          146 -3 -75 callgsubr
          94 566 rlineto
          321 hlineto
          -94 -566 2 callgsubr
          endchar
        </CharString>
        <CharString name="Psi">
          826 0 33 104 31 354 33 95 33 hstemhm
          162 85 -42 85 91 85 -76 85 -80 85 -13 85 hintmask 0010000010000000
          856 541 rmoveto
          14 3 -13 0 -15 hhcurveto
          -35 hlineto
          -73 -35 -61 -95 -16 hvcurveto
          -17 -93 -50 -114 -125 -25 rrcurveto
          hintmask 0001001001000000
          72 434 -15 callgsubr
          -75 0 -48 hhcurveto
          -48 -76 0 3 -44 hvcurveto
          -81 callsubr
          32 hlineto
          94 -2 -14 -35 -6 hvcurveto
          hintmask 0110010010000000
          -72 -433 -137 32 20 149 12 68 rlinecurve
          74 12 -16 64 -71 hhcurveto
          -34 hlineto
          -15 -14 0 -14 -3 hvcurveto
          hintmask 0000100000000000
          -12 -2 12 -2 3 hhcurveto
          hintmask 0100010100000000
          59 -7 -14 -91 -2 -8 -10 -59 -31 -198 226 -27 rrcurveto
          hintmask 1000101001000000
          59 callgsubr
          hintmask 0100000100000000
          9 55 209 21 59 165 13 71 rlinecurve
          7 41 15 84 58 8 8 1 10 1 2 12 rrcurveto
          endchar
        </CharString>
        <CharString name="Q">
          826 -194 104 0 104 -35 31 -17 31 -28 28 99 28 522 31 hstemhm
          116 101 119 28 145 101 112 101 hintmask 0100000000000000
          770 -9 rmoveto
          9 2 2 14 -14 hhcurveto
          hintmask 1000101100100000
          -12 -2 -11 -7 -3 hvcurveto
          -61 -16 -53 -25 -39 hhcurveto
          -42 -22 24 74 -20 hvcurveto
          98 35 144 116 30 180 rrcurveto
          201 33 -132 164 -194 hhcurveto
          -197 -184 -165 -200 -33 hvcurveto
          hintmask 0010000000000000
          -202 -34 133 -158 194 hhcurveto
          hintmask 1001011111100000
          32 35 5 9 33 hvcurveto
          -102 4 4 -85 93 hhcurveto
          104 47 128 57 9 hvcurveto
          -48 348 rmoveto
          -21 -125 -57 -108 -102 -60 rrcurveto
          92 -24 -46 13 -34 hhcurveto
          -50 -44 -39 -46 -8 hvcurveto
          -3 -19 4 -16 3 -7 -99 41 -52 106 28 168 rrcurveto
          241 40 156 93 111 hhcurveto
          115 122 -96 -238 -39 hvcurveto
          -215 -310 rmoveto
          hintmask 0010010010000000
          -15 -37 -30 -4 -25 hhcurveto
          -52 -1 43 13 2 hvcurveto
          28 5 28 29 38 hhcurveto
          49 18 -36 -58 5 hvcurveto
          endchar
        </CharString>
        <CharString name="R">
          782 -21 77 callgsubr
          hintmask 10011100
          -87 callsubr
          hintmask 01101000
          -80 callsubr
          hintmask 10110100
          -79 callsubr
          endchar
        </CharString>
        <CharString name="Racute">
          104 callsubr
          82 -21 165 -20 175 callgsubr
          hintmask 10010011
          -87 callsubr
          hintmask 01100010
          -80 callsubr
          hintmask 10110001
          -79 callsubr
          hintmask 00001100
          51 359 -97 callgsubr
        </CharString>
        <CharString name="Rcaron">
          104 callsubr
          72 -21 133 -20 175 callgsubr
          hintmask 10010011
          -87 callsubr
          hintmask 01100010
          -80 callsubr
          hintmask 10110001
          -79 callsubr
          hintmask 00001100
          56 348 -61 callsubr
        </CharString>
        <CharString name="Rcedilla">
          782 139 callgsubr
          77 callgsubr
          hintmask 00100111
          -87 callsubr
          hintmask 00011010
          -80 callsubr
          hintmask 11101101
          -79 callsubr
          -215 -646 -101 callsubr
        </CharString>
        <CharString name="Rcommaaccent">
          782 139 callgsubr
          77 callgsubr
          hintmask 00100111
          -87 callsubr
          hintmask 00011010
          -80 callsubr
          hintmask 00101101
          -79 callsubr
          hintmask 11000000
          -215 -646 -101 callsubr
        </CharString>
        <CharString name="Rdblgrave">
          104 callsubr
          82 -21 189 -20 175 callgsubr
          hintmask 10010011
          -87 callsubr
          hintmask 01100010
          -80 callsubr
          hintmask 10110001
          -79 callsubr
          hintmask 00001100
          -8 257 rmoveto
          -33 -94 callsubr
          -148 16 rmoveto
          -33 -94 callsubr
          endchar
        </CharString>
        <CharString name="Rdotaccent">
          104 callsubr
          72 111 167 callgsubr
          221 110 47 104 hintmask 10010101
          -87 callsubr
          hintmask 01100100
          -80 callsubr
          hintmask 10110001
          -79 callsubr
          hintmask 00001010
          -47 307 -80 callgsubr
        </CharString>
        <CharString name="Rdotbelow">
          104 callsubr
          167 callgsubr
          62 110 206 104 hintmask 10011010
          -87 callsubr
          hintmask 01101000
          -80 callsubr
          hintmask 10110010
          -79 callsubr
          hintmask 00000100
          -206 -648 -99 callgsubr
          endchar
        </CharString>
        <CharString name="Rdotbelowmacron">
          104 callsubr
          71 38 167 callgsubr
          62 110 206 104 hintmask 10010101
          -87 callsubr
          hintmask 01100100
          -80 callsubr
          hintmask 10110011
          -79 callsubr
          -206 -648 -99 callgsubr
          hintmask 00001000
          286 899 -30 callsubr
        </CharString>
        <CharString name="Rho">
          -17 callgsubr
        </CharString>
        <CharString name="S">
          56 callgsubr
          hstem
          541 63 vstem
          561 185 rmoveto
          -101 callgsubr
          -56 54 71 -13 60 hhcurveto
          125 101 99 107 18 hvcurveto
          endchar
        </CharString>
        <CharString name="S_S">
          1181 -21 33 470 30 162 30 hstem
          541 63 9 63 455 63 vstem
          561 185 rmoveto
          -101 callgsubr
          -56 54 71 -13 60 hhcurveto
          125 101 99 107 18 hvcurveto
          590 hmoveto
          -101 callgsubr
          -56 54 71 -13 60 hhcurveto
          125 101 99 107 18 hvcurveto
          endchar
        </CharString>
        <CharString name="Sacute">
          56 callgsubr
          61 78 callgsubr
          541 63 hintmask 11100100
          561 185 rmoveto
          -101 callgsubr
          -56 54 71 -13 60 hhcurveto
          125 101 99 107 18 hvcurveto
          hintmask 00011000
          23 677 -97 callgsubr
        </CharString>
        <CharString name="Scaron">
          56 callgsubr
          51 -21 133 -20 hstemhm
          541 63 hintmask 11100100
          561 185 rmoveto
          -101 callgsubr
          -56 54 71 -13 60 hhcurveto
          125 101 99 107 18 hvcurveto
          hintmask 00011000
          28 666 -61 callsubr
        </CharString>
        <CharString name="Scedilla">
          56 callgsubr
          hstemhm
          184 63 13 63 -7 63 162 63 hintmask 11110110
          561 185 rmoveto
          -101 callgsubr
          hintmask 00011000
          38 -39 45 -18 45 -8 -13 -78 rcurveline
          16 callsubr
          hintmask 00000100
          47 8 -52 21 -55 hhcurveto
          hintmask 10001000
          7 42 123 3 97 98 18 105 rlinecurve
          endchar
        </CharString>
        <CharString name="Scircumflex">
          56 callgsubr
          51 -21 133 -20 hstemhm
          541 63 hintmask 11100100
          561 185 rmoveto
          -101 callgsubr
          -56 54 71 -13 60 hhcurveto
          125 101 99 107 18 hvcurveto
          hintmask 00011000
          11 565 -96 callgsubr
          endchar
        </CharString>
        <CharString name="Sdotbelow">
          56 callgsubr
          hstemhm
          217 110 214 63 hintmask 11101000
          561 185 rmoveto
          -101 callgsubr
          -56 54 71 -13 60 hhcurveto
          125 101 99 107 18 hvcurveto
          hintmask 00010000
          -234 -330 -99 callgsubr
          endchar
        </CharString>
        <CharString name="Sigma">
          767 0 45 605 33 hstem
          747 239 rmoveto
          -31 hlineto
          -166 -50 -67 -28 -171 hhcurveto
          -292 hlineto
          308 279 14 11 0 2 1 5 rlinecurve
          1 4 -3 6 -3 4 -166 294 rcurveline
          244 hlineto
          156 73 -23 -171 -9 hvcurveto
          31 hlineto
          9 227 rlineto
          -590 hlineto
          -22 -7 0 -23 -4 hvcurveto
          203 -361 -297 -268 -10 -10 -3 -1 -1 -6 rlinecurve
          -14 -2 13 0 16 hhcurveto
          590 hlineto
          endchar
        </CharString>
        <CharString name="T">
          105 callsubr
          hstemhm
          351 92 -6 92 -21 callgsubr
          hintmask 01001000
          12 callsubr
          hintmask 10010000
          -64 callgsubr
          hintmask 01001000
          -11 callsubr
          endchar
        </CharString>
        <CharString name="T_uni0303">
          105 callsubr
          58 97 callsubr
          351 92 -6 92 -21 callgsubr
          hintmask 01000010
          12 callsubr
          hintmask 10000100
          -64 callgsubr
          hintmask 01000010
          -11 callsubr
          hintmask 00001000
          -76 365 rmoveto
          -17 -91 callgsubr
          64 hvcurveto
          endchar
        </CharString>
        <CharString name="T_uni0308">
          105 callsubr
          58 100 hstemhm
          351 92 -86 99 -19 92 43 99 -21 callgsubr
          hintmask 01000010
          12 callsubr
          hintmask 10001000
          -64 callgsubr
          hintmask 01000010
          -11 callsubr
          hintmask 00010101
          -316 334 -85 callsubr
        </CharString>
        <CharString name="Tau">
          105 callsubr
          hstemhm
          351 92 -6 92 -21 callgsubr
          hintmask 01001000
          12 callsubr
          hintmask 10010000
          -64 callgsubr
          hintmask 01001000
          -11 callsubr
          endchar
        </CharString>
        <CharString name="Tcaron">
          105 callsubr
          79 -21 133 -20 hstemhm
          351 92 -6 92 -21 callgsubr
          hintmask 01000010
          12 callsubr
          hintmask 10000100
          -64 callgsubr
          hintmask 01000010
          -11 callsubr
          hintmask 00011000
          -95 402 -61 callsubr
        </CharString>
        <CharString name="Tcedilla">
          767 -200 32 73 32 63 109 callgsubr
          hstemhm
          351 92 -28 88 -66 92 hintmask 00010000
          803 449 rmoveto
          18 227 rlineto
          -650 hlineto
          -58 -227 rlineto
          31 hlineto
          hintmask 00001000
          169 42 27 25 153 hhcurveto
          hintmask 00010001
          12 callsubr
          hintmask 01100100
          -86 -520 110 callgsubr
          -104 hhcurveto
          -38 hlineto
          -81 callsubr
          2 30 76 1 50 hhcurveto
          -16 -98 rlineto
          hintmask 11100010
          16 callsubr
          47 8 -52 21 -55 hhcurveto
          11 66 rlineto
          51 76 -1 -2 29 96 callsubr
          -38 hlineto
          hintmask 00000100
          -104 2 14 35 6 hvcurveto
          hintmask 00010001
          31 callgsubr
          hintmask 00001000
          5 callsubr
          endchar
        </CharString>
        <CharString name="Tdotbelow">
          105 callsubr
          hstemhm
          305 110 -64 92 -6 92 -21 callgsubr
          hintmask 01000100
          12 callsubr
          hintmask 10001000
          -64 callgsubr
          hintmask 01000100
          -11 callsubr
          hintmask 00010000
          -357 -594 100 callsubr
          hintmask 00010000
          163 callsubr
        </CharString>
        <CharString name="Theta">
          826 -21 30 294 79 294 28 hstemhm
          116 97 48 31 -7 31 -5 97 215 31 -25 97 -79 31 48 97 hintmask 1111001001100000
          823 339 rmoveto
          201 33 -132 164 -194 hhcurveto
          -197 -184 -165 -200 -33 hvcurveto
          -204 -34 136 -156 190 hhcurveto
          194 187 158 202 34 hvcurveto
          -97 hmoveto
          -242 -41 -161 -88 -109 hhcurveto
          -114 -128 92 238 40 hvcurveto
          240 40 158 97 114 hhcurveto
          119 121 -101 -236 -39 hvcurveto
          -72 -70 rmoveto
          24 147 rlineto
          -31 hlineto
          -5 -34 rlineto
          -331 hlineto
          hintmask 0000010000000000
          5 34 rlineto
          -31 hlineto
          hintmask 0100100010000000
          -24 -147 rlineto
          31 hlineto
          6 34 rlineto
          331 hlineto
          hintmask 0000000100000000
          -6 -34 rlineto
          endchar
        </CharString>
        <CharString name="Thorn">
          664 0 33 145 33 308 33 98 33 hstem
          662 365 rmoveto
          85 14 -58 102 -155 hhcurveto
          -140 hlineto
          8 48 4 24 3 17 27 5 rlinecurve
          4 18 32 0 24 hhcurveto
          6 33 -143 -3 -142 3 -81 callsubr
          20 31 0 -3 18 hvcurveto
          28 -5 0 -12 -5 -30 -86 -517 rcurveline
          -4 -24 -3 -17 -27 -5 rrcurveto
          -4 -19 -31 0 -24 hhcurveto
          38 callsubr
          142 -3 -78 callsubr
          -20 -31 0 3 -18 hvcurveto
          -29 5 1 12 5 30 16 95 rcurveline
          151 hlineto
          125 108 87 100 17 hvcurveto
          -101 hmoveto
          -81 -14 -71 -73 -94 hhcurveto
          -116 hlineto
          52 308 rlineto
          122 hlineto
          110 21 -91 -63 -10 hvcurveto
          endchar
        </CharString>
        <CharString name="Tlinebelow">
          767 -163 38 125 109 callgsubr
          hstemhm
          351 92 -6 92 hintmask 00100000
          803 449 rmoveto
          18 227 rlineto
          -650 hlineto
          -58 -227 rlineto
          31 hlineto
          hintmask 00010000
          169 42 27 25 153 hhcurveto
          hintmask 00100100
          12 callsubr
          hintmask 01001000
          -64 callgsubr
          hintmask 00100100
          31 callgsubr
          hintmask 00010000
          5 callsubr
          hintmask 10000000
          -224 -612 -30 callsubr
        </CharString>
        <CharString name="U">
          41 callsubr
          6 callsubr
          hintmask 11101100
          -102 callgsubr
          hintmask 00010000
          77 1 -11 -37 -7 hvcurveto
          hintmask 11100100
          -84 callgsubr
          endchar
        </CharString>
        <CharString name="U_uni032F">
          796 -211 -21 132 44 35 33 638 33 6 callsubr
          hintmask 00111011
          -102 callgsubr
          hintmask 00000100
          77 1 -11 -37 -7 hvcurveto
          hintmask 00111001
          -84 callgsubr
          hintmask 11000000
          -315 -882 14 callsubr
        </CharString>
        <CharString name="Uacute">
          41 callsubr
          82 -21 165 -20 6 callsubr
          hintmask 11001011
          -102 callgsubr
          hintmask 00000100
          77 1 -11 -37 -7 hvcurveto
          hintmask 11001001
          -84 callgsubr
          hintmask 00110000
          -148 212 -97 callgsubr
        </CharString>
        <CharString name="Ubreve">
          41 callsubr
          61 44 132 -20 6 callsubr
          hintmask 11001011
          -102 callgsubr
          hintmask 00000100
          77 1 -11 -37 -7 hvcurveto
          hintmask 11001001
          -84 callgsubr
          hintmask 00110000
          -122 270 -98 callsubr
          endchar
        </CharString>
        <CharString name="Ucaron">
          41 callsubr
          72 -21 133 -20 6 callsubr
          hintmask 11001011
          -102 callgsubr
          hintmask 00000100
          77 1 -11 -37 -7 hvcurveto
          hintmask 11001001
          -84 callgsubr
          hintmask 00110000
          -143 201 -61 callsubr
        </CharString>
        <CharString name="Ucircumflex">
          41 callsubr
          72 -21 133 -20 6 callsubr
          hintmask 11001011
          -102 callgsubr
          hintmask 00000100
          77 1 -11 -37 -7 hvcurveto
          hintmask 11001001
          -84 callgsubr
          hintmask 00110000
          -160 100 -96 callgsubr
          endchar
        </CharString>
        <CharString name="Udblgrave">
          41 callsubr
          82 -21 189 -20 6 callsubr
          hintmask 11001011
          -102 callgsubr
          hintmask 00000100
          77 1 -11 -37 -7 hvcurveto
          hintmask 11001001
          -84 callgsubr
          hintmask 00110000
          -178 110 rmoveto
          -33 -94 callsubr
          -148 16 rmoveto
          -33 -94 callsubr
          endchar
        </CharString>
        <CharString name="Udieresis">
          41 callsubr
          51 100 57 callsubr
          59 99 116 99 3 33 hintmask 1101010010000000
          -102 callgsubr
          hintmask 0000100000000000
          77 1 -11 -37 -7 hvcurveto
          hintmask 1101000010000000
          -84 callgsubr
          hintmask 0010001100000000
          -35 callgsubr
          endchar
        </CharString>
        <CharString name="Udieresisacute">
          41 callsubr
          51 100 81 -21 165 -20 57 callsubr
          59 99 116 99 3 33 hintmask 1100010100100000
          -102 callgsubr
          hintmask 0000001000000000
          77 1 -11 -37 -7 hvcurveto
          hintmask 1100010000100000
          -84 callgsubr
          hintmask 0011100011000000
          -35 callgsubr
          26 229 -97 callgsubr
        </CharString>
        <CharString name="Udieresiscaron">
          41 callsubr
          51 100 71 -21 133 -20 57 callsubr
          59 99 116 99 3 33 hintmask 1100010100100000
          -102 callgsubr
          hintmask 0000001000000000
          77 1 -11 -37 -7 hvcurveto
          hintmask 1100010000100000
          -84 callgsubr
          hintmask 0011100011000000
          -35 callgsubr
          31 218 -61 callsubr
        </CharString>
        <CharString name="Udieresisgrave">
          41 callsubr
          51 100 81 -21 165 -20 57 callsubr
          59 99 116 99 3 33 hintmask 1100010100100000
          -102 callgsubr
          hintmask 0000001000000000
          77 1 -11 -37 -7 hvcurveto
          hintmask 1100010000100000
          -84 callgsubr
          hintmask 0011100011000000
          -35 callgsubr
          -62 137 -76 callsubr
        </CharString>
        <CharString name="Udotbelow">
          41 callsubr
          57 callsubr
          6 110 260 33 hintmask 11101010
          -102 callgsubr
          hintmask 00010000
          77 1 -11 -37 -7 hvcurveto
          hintmask 11100010
          -84 callgsubr
          hintmask 00000100
          -406 -795 -99 callgsubr
          endchar
        </CharString>
        <CharString name="Ugrave">
          41 callsubr
          82 -21 165 -20 6 callsubr
          hintmask 11001011
          -102 callgsubr
          hintmask 00000100
          77 1 -11 -37 -7 hvcurveto
          hintmask 11001001
          -84 callgsubr
          hintmask 00110000
          -236 120 -76 callsubr
        </CharString>
        <CharString name="Uhookabove">
          41 callsubr
          93 -21 205 -20 6 callsubr
          hintmask 11001011
          -102 callgsubr
          hintmask 00000100
          77 1 -11 -37 -7 hvcurveto
          hintmask 11001001
          -84 callgsubr
          hintmask 00110000
          -185 244 -102 callsubr
        </CharString>
        <CharString name="Uhorn">
          49 callgsubr
          111 53 callgsubr
          hintmask 0001100000000000
          889 726 rmoveto
          36 6 -17 32 -34 hhcurveto
          -37 -22 -28 -27 -5 hvcurveto
          -28 -4 13 -28 37 5 4 1 4 hhcurveto
          -19 -25 -32 -17 -34 -4 8 45 rcurveline
          hintmask 0010000010000000
          -2 -5 -6 -1 -6 hhcurveto
          hintmask 1001010010000000
          -1 callsubr
          hintmask 1000010100000000
          -64 -386 -11 -67 18 -63 42 -46 rlinecurve
          -47 43 62 -26 70 hhcurveto
          64 65 27 46 52 hvcurveto
          53 47 34 63 11 66 63 378 rcurveline
          67 7 62 49 11 64 rrcurveto
          endchar
        </CharString>
        <CharString name="Uhornacute">
          49 callgsubr
          82 -21 50 -20 135 53 callgsubr
          hintmask 0001010000000000
          -89 callgsubr
          hintmask 0000101000000000
          -208 136 -97 callgsubr
        </CharString>
        <CharString name="Uhorndotbelow">
          49 callgsubr
          111 -20 hstemhm
          183 92 -28 92 -20 110 224 33 -33 92 hintmask 0001100000000000
          889 726 rmoveto
          36 6 -17 32 -34 hhcurveto
          -37 -22 -28 -27 -5 hvcurveto
          -28 -4 13 -28 37 5 4 1 4 hhcurveto
          -19 -25 -32 -17 -34 -4 8 45 rcurveline
          hintmask 0010000001000000
          -2 -5 -6 -1 -6 hhcurveto
          hintmask 1001010001000000
          -1 callsubr
          hintmask 1000010010000000
          -64 -386 -11 -67 18 -63 42 -46 rlinecurve
          -47 43 62 -26 70 hhcurveto
          64 65 27 46 52 hvcurveto
          53 47 34 63 11 66 63 378 rcurveline
          67 7 62 49 11 64 rrcurveto
          hintmask 0000000100000000
          -460 -871 -99 callgsubr
          endchar
        </CharString>
        <CharString name="Uhorngrave">
          49 callgsubr
          82 -21 50 -20 135 53 callgsubr
          hintmask 0001010000000000
          -89 callgsubr
          hintmask 0000101000000000
          -266 44 -76 callsubr
        </CharString>
        <CharString name="Uhornhookabove">
          49 callgsubr
          93 -21 39 -20 186 53 callgsubr
          hintmask 0001010000000000
          -89 callgsubr
          hintmask 0000101000000000
          -215 168 -102 callsubr
        </CharString>
        <CharString name="Uhorntilde">
          49 callgsubr
          51 54 -9 54 -39 53 callgsubr
          hintmask 0001001000000000
          -89 callgsubr
          hintmask 0000010000000000
          -154 88 83 callgsubr
          hintmask 0000100000000000
          -74 callsubr
          hintmask 0000010000000000
          -71 callgsubr
          hintmask 0000100000000000
          17 -19 rlineto
          hintmask 0000010000000000
          -73 callgsubr
          hintmask 0000100000000000
          -52 callsubr
        </CharString>
        <CharString name="Uhungarumlaut">
          41 callsubr
          82 -21 189 -20 6 callsubr
          hintmask 11001011
          -102 callgsubr
          hintmask 00000100
          77 1 -11 -37 -7 hvcurveto
          hintmask 11001001
          -84 callgsubr
          hintmask 00110000
          -285 244 rmoveto
          -43 callgsubr
          177 hmoveto
          -43 callgsubr
          endchar
        </CharString>
        <CharString name="Umacron">
          41 callsubr
          71 38 6 callsubr
          hintmask 11010110
          -102 callgsubr
          hintmask 00001000
          77 1 -11 -37 -7 hvcurveto
          hintmask 11010010
          -84 callgsubr
          hintmask 00100010
          -119 104 -30 callsubr
        </CharString>
        <CharString name="Uogonek">
          796 -214 53 140 33 638 33 57 callsubr
          0 33 343 33 hintmask 01110101
          -102 callgsubr
          hintmask 00001000
          77 1 -11 -37 -7 hvcurveto
          hintmask 11110011
          -62 -373 -21 -129 83 -99 121 -19 rlinecurve
          -33 -29 -30 -39 -7 -34 17 callgsubr
          -14 49 32 48 9 15 12 13 14 12 rrcurveto
          2 hlineto
          134 124 112 137 23 hvcurveto
          58 348 rlineto
          26 4 8 48 101 hhcurveto
          endchar
        </CharString>
        <CharString name="Upsilon">
          826 0 33 593 78 hstemhm
          381 92 -48 92 hintmask 01010000
          858 552 rmoveto
          60 10 -29 92 -96 hhcurveto
          -164 -73 -202 -43 -15 hvcurveto
          -1 hlineto
          159 -4 -66 86 -104 hhcurveto
          -96 -59 -93 -59 -10 hvcurveto
          -7 -1 -2 -13 17 hhcurveto
          10 6 6 8 2 hvcurveto
          80 21 89 0 8 hhcurveto
          135 6 -174 -104 -17 hvcurveto
          hintmask 10100000
          -44 -266 110 callgsubr
          -94 hhcurveto
          -32 hlineto
          -14 callgsubr
          46 79 0 48 hhcurveto
          48 79 0 -3 44 96 callsubr
          -32 hlineto
          -94 2 14 35 6 hvcurveto
          hintmask 01010000
          44 266 rlineto
          104 17 63 174 135 hhcurveto
          32 64 -14 -62 -3 hvcurveto
          -7 -1 -11 14 17 2 13 7 1 vhcurveto
          endchar
        </CharString>
        <CharString name="Uring">
          41 callsubr
          31 35 106 35 6 callsubr
          hintmask 11001011
          -102 callgsubr
          hintmask 00000100
          77 1 -11 -37 -7 hvcurveto
          hintmask 11001001
          -84 callgsubr
          hintmask 00110000
          -237 152 -61 callgsubr
        </CharString>
        <CharString name="Utilde">
          41 callsubr
          51 54 -9 54 6 callsubr
          hintmask 11001011
          -102 callgsubr
          hintmask 00000100
          77 1 -11 -37 -7 hvcurveto
          hintmask 11001001
          -84 callgsubr
          hintmask 00010000
          -124 164 -74 callgsubr
        </CharString>
        <CharString name="V">
          796 0 -21 600 33 38 33 hstem
          881 650 67 callsubr
          -30 -51 0 -19 hhcurveto
          -19 -46 0 3 -44 hvcurveto
          -81 callsubr
          44 21 -22 -27 -5 hvcurveto
          -1 -8 -2 -3 -6 -11 -279 -484 rcurveline
          -124 508 -3 10 -1 4 1 4 rlinecurve
          29 4 53 0 25 hhcurveto
          6 33 -141 -3 rlineto
          -48 -30 0 3 -50 hvcurveto
          -81 callsubr
          60 22 0 -38 10 hvcurveto
          148 -611 rlineto
          -19 5 7 -3 11 hhcurveto
          18 5 8 14 8 hvcurveto
          336 582 rlineto
          66 38 63 1 20 hhcurveto
          endchar
        </CharString>
        <CharString name="W">
          137 callsubr
          hstem
          -93 callgsubr
          endchar
        </CharString>
        <CharString name="Wacute">
          137 callsubr
          90 callsubr
          hintmask 11000000
          -93 callgsubr
          hintmask 00110000
          -344 212 -97 callgsubr
        </CharString>
        <CharString name="Wcircumflex">
          137 callsubr
          125 callgsubr
          hintmask 11000000
          -93 callgsubr
          hintmask 00110000
          -356 100 -96 callgsubr
          endchar
        </CharString>
        <CharString name="Wdieresis">
          137 callsubr
          51 100 hstemhm
          519 99 116 99 hintmask 11000000
          -93 callgsubr
          hintmask 00111000
          -560 33 callsubr
        </CharString>
        <CharString name="Wgrave">
          137 callsubr
          90 callsubr
          hintmask 11000000
          -93 callgsubr
          hintmask 00110000
          -432 120 -76 callsubr
        </CharString>
        <CharString name="X">
          -46 callgsubr
        </CharString>
        <CharString name="Xi">
          708 0 73 97 -20 136 -21 50 73 50 -20 120 -21 86 73 hstemhm
          72 31 33 31 25 31 -2 31 320 31 -2 31 -29 31 26 31 21 31 hintmask 1100011111000111
          743 517 rmoveto
          18 159 rlineto
          -589 hlineto
          -36 -159 rlineto
          31 hlineto
          5 21 9 42 11 14 rrcurveto
          9 8 55 0 18 hhcurveto
          363 hlineto
          0 71 0 4 -8 vhcurveto
          8 -13 -3 -39 -4 -26 rrcurveto
          -21 -347 rmoveto
          -31 hlineto
          -4 -23 -11 -47 -11 -16 rrcurveto
          -11 -8 -54 0 -24 hhcurveto
          -365 hlineto
          -3 -71 0 8 -6 hvcurveto
          -8 12 5 51 3 26 rrcurveto
          -31 hlineto
          -19 -170 rlineto
          601 hlineto
          -51 265 rmoveto
          hintmask 0001100000101000
          29 173 rlineto
          -31 hlineto
          -8 -50 rlineto
          -349 hlineto
          8 50 rlineto
          -31 hlineto
          hintmask 0011000001010000
          -29 -173 rlineto
          31 hlineto
          9 50 rlineto
          349 hlineto
          -9 -50 rlineto
          endchar
        </CharString>
        <CharString name="Y">
          66 callgsubr
          hstem
          399 89 vstem
          -98 callgsubr
          endchar
        </CharString>
        <CharString name="Yacute">
          66 callgsubr
          90 callsubr
          399 89 hintmask 11100100
          -98 callgsubr
          hintmask 00011000
          -202 212 -97 callgsubr
        </CharString>
        <CharString name="Ycircumflex">
          66 callgsubr
          125 callgsubr
          399 89 hintmask 11100100
          -98 callgsubr
          hintmask 00011000
          -214 100 -96 callgsubr
          endchar
        </CharString>
        <CharString name="Ydieresis">
          66 callgsubr
          51 100 hstemhm
          371 99 -71 89 98 99 hintmask 11100100
          -98 callgsubr
          hintmask 00011010
          -418 33 callsubr
        </CharString>
        <CharString name="Ydotbelow">
          66 callgsubr
          hstemhm
          319 110 -30 89 hintmask 11101000
          -98 callgsubr
          hintmask 00010000
          -459 -795 -99 callgsubr
          endchar
        </CharString>
        <CharString name="Ygrave">
          66 callgsubr
          90 callsubr
          399 89 hintmask 11100100
          -98 callgsubr
          hintmask 00011000
          -290 120 -76 callsubr
        </CharString>
        <CharString name="Yhookabove">
          66 callgsubr
          93 176 callgsubr
          399 89 hintmask 11100100
          -98 callgsubr
          hintmask 00011000
          -238 244 -102 callsubr
        </CharString>
        <CharString name="Ytilde">
          66 callgsubr
          51 97 callsubr
          399 89 hintmask 11100100
          -98 callgsubr
          hintmask 00001000
          -178 164 rmoveto
          -17 -91 callgsubr
          64 hvcurveto
          endchar
        </CharString>
        <CharString name="Z">
          94 callgsubr
          hstem
          -70 callsubr
          endchar
        </CharString>
        <CharString name="Zacute">
          94 callgsubr
          90 callsubr
          -31 callsubr
          36 862 -97 callgsubr
        </CharString>
        <CharString name="Zcaron">
          94 callgsubr
          125 callgsubr
          -31 callsubr
          41 851 -61 callsubr
        </CharString>
        <CharString name="Zdotaccent">
          94 callgsubr
          72 111 hstemhm
          405 110 -31 callsubr
          -62 810 -80 callgsubr
        </CharString>
        <CharString name="Zdotbelow">
          94 callgsubr
          hstemhm
          246 110 -27 callgsubr
          hintmask 00100000
          -221 -145 -99 callgsubr
          endchar
        </CharString>
        <CharString name="Zeta">
          94 callgsubr
          hstem
          -70 callsubr
          endchar
        </CharString>
        <CharString name="a">
          -58 callsubr
          -106 callgsubr
          endchar
        </CharString>
        <CharString name="aacute">
          -58 callsubr
          82 -21 191 -20 -106 callgsubr
          hintmask 00000110
          134 418 -92 callgsubr
        </CharString>
        <CharString name="abreve">
          -58 callsubr
          69 44 132 -20 -106 callgsubr
          hintmask 00000110
          168 451 -98 callsubr
          endchar
        </CharString>
        <CharString name="abreveacute">
          -58 callsubr
          69 44 317 -20 -106 callgsubr
          hintmask 00000110
          168 451 -98 callsubr
          -30 138 -50 callgsubr
        </CharString>
        <CharString name="abrevedotbelow">
          -58 callsubr
          69 44 132 -26 callsubr
          168 451 -98 callsubr
          hintmask 00000001
          -245 -836 -99 callgsubr
          endchar
        </CharString>
        <CharString name="abrevegrave">
          -58 callsubr
          69 44 132 -20 -106 callgsubr
          hintmask 00000110
          168 451 -98 callsubr
          -44 46 rmoveto
          -20 -26 -162 89 -11 6 -8 0 callgsubr
        </CharString>
        <CharString name="abrevehookabove">
          -58 callsubr
          69 44 226 44 67 -20 -106 callgsubr
          hintmask 00000111
          168 451 -98 callsubr
          -34 139 -102 callsubr
        </CharString>
        <CharString name="abrevetilde">
          -58 callsubr
          69 44 172 54 -9 54 -106 callgsubr
          hintmask 00000101
          168 451 -98 callsubr
          35 120 83 callgsubr
          hintmask 00000010
          -45 -48 -59 callsubr
          hintmask 00000001
          11 callsubr
          hintmask 00000010
          17 -19 rlineto
          hintmask 00000001
          24 callgsubr
          22 hvcurveto
          hintmask 00000010
          -13 24 15 callsubr
        </CharString>
        <CharString name="acaron">
          25 callgsubr
          176 -20 -106 callgsubr
          hintmask 00000110
          157 437 rmoveto
          -57 callgsubr
        </CharString>
        <CharString name="acircumflex">
          25 callgsubr
          176 -20 -106 callgsubr
          hintmask 00000110
          132 289 -65 callsubr
          endchar
        </CharString>
        <CharString name="acircumflexacute">
          25 callgsubr
          318 -37 callsubr
          14 271 rmoveto
          24 9 -14 23 -25 hhcurveto
          -6 -10 -2 -9 -13 hvcurveto
          -173 -128 11 -26 191 89 13 6 11 7 6 16 rlinecurve
          endchar
        </CharString>
        <CharString name="acircumflexdotbelow">
          25 callgsubr
          176 -26 callsubr
          132 289 -65 callsubr
          hintmask 00000001
          -194 -660 -99 callgsubr
          endchar
        </CharString>
        <CharString name="acircumflexgrave">
          25 callgsubr
          133 -37 callsubr
          179 vmoveto
          -21 -26 -161 89 rlineto
          -11 6 -9 7 16 vvcurveto
          -8 callgsubr
        </CharString>
        <CharString name="acircumflexhookabove">
          25 callgsubr
          338 -37 callsubr
          113 272 rmoveto
          4 -45 callsubr
          -25 3 -31 hhcurveto
          -49 -48 -21 -43 -9 hvcurveto
          -1 -3 rlineto
          -18 -3 13 -12 16 hhcurveto
          16 16 12 19 3 hvcurveto
          3 14 -7 10 -11 4 rrcurveto
          9 14 21 5 22 hhcurveto
          20 15 -3 -8 8 hvcurveto
          5 -6 1 7 callgsubr
          4 26 28 19 45 19 rlinecurve
          19 9 18 16 3 20 rrcurveto
          endchar
        </CharString>
        <CharString name="acircumflextilde">
          25 callgsubr
          173 54 -9 54 -106 callgsubr
          hintmask 00000101
          132 291 -96 callgsubr
          79 253 83 callgsubr
          hintmask 00000010
          53 callsubr
          hintmask 00000001
          11 callsubr
          hintmask 00000010
          17 -19 rlineto
          hintmask 00000001
          54 callgsubr
          hintmask 00000010
          -13 25 15 callsubr
        </CharString>
        <CharString name="acute">
          531 528 114 callgsubr
          hstem
          508 658 -92 callgsubr
        </CharString>
        <CharString name="acute.cap">
          531 512 122 callgsubr
          hstem
          512 609 -97 callgsubr
        </CharString>
        <CharString name="acute.dup">
          531 528 114 callgsubr
          hstem
          508 658 -92 callgsubr
        </CharString>
        <CharString name="acute.ts1">
          531 531 126 callsubr
          hstem
          527 659 rmoveto
          21 3 -16 19 -21 hhcurveto
          -24 -17 -23 -16 -16 hvcurveto
          -50 -51 -27 -26 -25 -27 -27 -25 rlinecurve
          -8 3 9 -13 7 hhcurveto
          5 1 5 5 4 2 33 22 rcurveline
          106 71 19 12 25 13 4 23 rlinecurve
          endchar
        </CharString>
        <CharString name="adblgrave">
          -58 callsubr
          83 -21 189 -20 -106 callgsubr
          hintmask 00000110
          110 284 rmoveto
          -32 -94 callsubr
          -149 16 rmoveto
          -32 -94 callsubr
          endchar
        </CharString>
        <CharString name="adieresis">
          -58 callsubr
          107 100 hstemhm
          226 99 82 99 -107 callsubr
          hintmask 00000111
          -49 362 -62 callsubr
        </CharString>
        <CharString name="adotbelow">
          -58 callsubr
          hstemhm
          187 110 -107 callsubr
          hintmask 00000100
          -77 -385 -99 callgsubr
          endchar
        </CharString>
        <CharString name="ae">
          -82 callgsubr
          endchar
        </CharString>
        <CharString name="ae.dup">
          -82 callgsubr
          endchar
        </CharString>
        <CharString name="aeacute">
          -82 callgsubr
          hintmask 11100000
          247 525 -92 callgsubr
        </CharString>
        <CharString name="agrave">
          -58 callsubr
          82 -21 191 -20 -106 callgsubr
          hintmask 00000110
          45 290 -65 callgsubr
        </CharString>
        <CharString name="ahookabove">
          -58 callsubr
          75 -21 205 -20 -106 callgsubr
          hintmask 00000110
          102 399 -104 callsubr
        </CharString>
        <CharString name="amacron">
          -58 callsubr
          138 38 -106 callgsubr
          hintmask 00000100
          180 344 22 callsubr
        </CharString>
        <CharString name="ampersand">
          826 -21 33 311 33 -4 28 18 33 120 33 103 28 hstemhm
          233 31 82 89 45 31 244 31 -31 89 hintmask 0101000000100000
          838 398 67 callsubr
          -32 -44 0 -27 hhcurveto
          -45 -14 0 3 -60 hvcurveto
          -81 callsubr
          49 14 -21 -21 -4 hvcurveto
          -2 -12 -18 -22 -13 -17 -52 -63 -53 -66 -62 -56 rrcurveto
          hintmask 1011111111000000
          -12 17 -89 129 -28 114 154 133 7 46 4 24 rrcurveto
          48 8 -7 84 -74 hhcurveto
          -68 -88 -57 -107 -18 hvcurveto
          -10 -59 2 -73 16 -67 -121 -103 rcurveline
          -43 -36 -33 -27 -9 -55 rrcurveto
          -90 -15 77 -62 105 hhcurveto
          82 75 39 35 48 hvcurveto
          -19 20 60 -55 94 hhcurveto
          77 80 53 89 17 hvcurveto
          -31 hlineto
          -76 -14 -72 -33 -47 hhcurveto
          -44 -41 27 57 -45 hvcurveto
          67 64 36 42 88 110 34 43 34 42 87 1 rrcurveto
          -358 186 rmoveto
          -8 -52 -45 -41 -87 -81 -12 64 3 59 7 40 rrcurveto
          91 15 55 23 27 hhcurveto
          52 -2 -75 -28 -5 hvcurveto
          -63 -511 rmoveto
          -43 -64 -58 -18 -50 hhcurveto
          -82 -13 89 57 9 hvcurveto
          8 48 22 33 14 17 rrcurveto
          hintmask 0100000000000000
          8 10 2 1 66 56 30 -93 34 -64 74 -93 rrcurveto
          endchar
        </CharString>
        <CharString name="anglearc">
          826 -83 -21 708 -20 hstemhm
          631 46 -43 46 hintmask 00100000
          770 23 rmoveto
          2 10 -5 9 -9 3 -131 47 rcurveline
          24 51 17 53 9 54 rrcurveto
          hintmask 11010000
          9 54 1 53 -7 51 146 47 rcurveline
          10 3 8 9 2 10 2 16 -14 11 -15 -5 -147 -48 rcurveline
          -11 52 -20 48 -28 44 rrcurveto
          6 -3 -6 3 -7 171 callsubr
          -1 -5 1 -5 3 -4 25 -40 18 -44 11 -47 -507 -164 rcurveline
          -10 -3 -8 -9 -1 -10 -2 -10 5 -9 9 -3 452 -164 rcurveline
          -27 -47 -33 -44 -38 -40 -4 -4 -3 -5 -1 -5 rrcurveto
          -13 -2 9 -10 13 hhcurveto
          7 7 3 6 5 hvcurveto
          42 44 36 48 29 52 131 -48 rcurveline
          13 -5 18 11 3 16 rrcurveto
          -139 227 rmoveto
          -8 -49 -15 -48 -22 -46 -391 143 rcurveline
          439 143 rlineto
          hintmask 00100000
          6 -46 -1 -48 -8 -49 rrcurveto
          endchar
        </CharString>
        <CharString name="angleleft">
          150 callsubr
          315 -227 rmoveto
          2 13 -6 16 -3 11 -95 413 rcurveline
          -2 7 -4 10 1 8 1 4 2 4 3 4 11 20 rcurveline
          220 391 9 15 18 22 2 16 rlinecurve
          13 2 -8 11 -13 hhcurveto
          hintmask 11000000
          -5 -1 -12 -2 -6 -11 -6 -10 rlinecurve
          -12 -22 -80 -139 -123 -219 -36 -63 -5 -10 -9 -12 -2 -11 rlinecurve
          -3 -20 14 -35 5 -26 86 -369 rcurveline
          6 -25 rlineto
          -12 3 4 -13 15 hhcurveto
          12 12 12 10 2 hvcurveto
          endchar
        </CharString>
        <CharString name="angleright">
          150 callsubr
          337 251 rmoveto
          2 10 -5 11 -2 9 -98 422 rcurveline
          -3 12 rlineto
          15 -2 -3 21 -18 hhcurveto
          hintmask 11000000
          -6 -1 rlineto
          -11 -9 -13 -8 -1 hvcurveto
          -2 -12 5 -13 3 -10 37 -165 rcurveline
          46 -195 4 -19 5 -18 3 -19 rlinecurve
          2 -8 5 -10 -1 -9 -1 -4 -2 -4 -3 -4 -10 -19 rcurveline
          -219 -387 -10 -17 -18 -24 -3 -17 rlinecurve
          -13 -2 5 -11 15 hhcurveto
          2 hlineto
          21 2 9 27 9 15 240 424 rcurveline
          5 10 9 11 2 11 rrcurveto
          endchar
        </CharString>
        <CharString name="aogonek">
          531 -10 28 -23 38 385 28 -44 callgsubr
          endchar
        </CharString>
        <CharString name="aogonekacute">
          531 -10 28 -23 38 385 28 82 -21 191 -20 -44 callgsubr
          hintmask 00011000
          134 418 -92 callgsubr
        </CharString>
        <CharString name="aring">
          -58 callsubr
          81 35 106 35 -106 callgsubr
          hintmask 00000110
          60 375 -61 callgsubr
        </CharString>
        <CharString name="aringacute">
          -58 callsubr
          81 35 106 35 185 -20 -106 callgsubr
          hintmask 00000111
          60 375 -84 callsubr
          41 227 -50 callgsubr
        </CharString>
        <CharString name="asciicircum">
          556 583 -21 123 59 hstem
          92 566 vstem
          658 584 rmoveto
          -256 160 -310 -160 8 -22 291 123 252 -123 rlineto
          endchar
        </CharString>
        <CharString name="asciitilde">
          556 193 179 callgsubr
          603 290 144 callsubr
          -31 hvcurveto
          17 -27 144 callgsubr
          -21 -10 -22 68 callgsubr
          28 8 10 23 161 callsubr
        </CharString>
        <CharString name="asciitilde.low">
          556 0 179 callgsubr
          571 97 144 callsubr
          -32 hvcurveto
          17 -26 144 callgsubr
          -22 -10 -21 68 callgsubr
          27 8 10 24 161 callsubr
        </CharString>
        <CharString name="asterisk">
          531 340 -21 431 -20 hstemhm
          325 58 -29 58 hintmask 00100000
          535 442 rmoveto
          3 19 -12 6 -9 4 -134 63 rcurveline
          155 64 10 4 14 6 4 19 rlinecurve
          15 2 -9 16 -18 hhcurveto
          -7 -3 -1 -8 -14 hvcurveto
          -145 -90 rlineto
          hintmask 01010000
          40 151 rlineto
          17 5 1 23 -28 hhcurveto
          -18 -16 -15 -14 hvcurveto
          -1 -10 -11 -152 -114 90 rlineto
          9 -11 -6 0 -4 hhcurveto
          -18 -15 -16 -15 -2 hvcurveto
          -4 -19 12 -6 10 -4 rrcurveto
          hintmask 10100000
          133 -63 -154 -64 -11 -4 -14 -6 -3 -19 rlinecurve
          -6 -1 -2 -25 35 hhcurveto
          161 99 -41 -156 -1 -5 rlineto
          -7 -5 5 -23 24 hhcurveto
          hintmask 00010000
          27 8 22 17 1 hvcurveto
          10 152 114 -90 rlineto
          -9 12 6 0 4 hhcurveto
          18 14 16 15 3 hvcurveto
          endchar
        </CharString>
        <CharString name="asterisk.math">
          531 57 -21 430 -20 hstem
          307 56 vstem
          487 161 rmoveto
          4 27 -46 12 -20 9 -55 27 rcurveline
          -10 5 -10 5 -11 4 rrcurveto
          2 vlineto
          13 4 12 5 11 5 64 27 rcurveline
          29 11 45 11 4 26 rrcurveto
          15 2 -9 19 -17 hhcurveto
          -16 -16 -14 -8 -13 hvcurveto
          -122 -76 37 139 1 6 2 6 1 6 rlinecurve
          16 3 -5 16 -22 hhcurveto
          -14 -17 -10 -16 -4 hvcurveto
          -1 -6 rlineto
          -2 -17 -1 -18 -17 vvcurveto
          -8 -105 -96 76 rlineto
          8 -11 -10 14 -16 hhcurveto
          -17 -17 -19 -15 -2 hvcurveto
          -5 -27 46 -12 21 -9 54 -27 rcurveline
          11 -5 10 -5 11 -4 rrcurveto
          -2 vlineto
          -13 -4 -12 -5 -12 -5 -63 -27 rcurveline
          -29 -11 -45 -11 -4 -26 rrcurveto
          -15 -3 10 -19 17 hhcurveto
          16 16 14 8 13 hvcurveto
          122 76 -38 -139 -1 -6 -2 -6 -1 -6 rlinecurve
          -16 -2 5 -16 22 hhcurveto
          15 16 11 16 5 hvcurveto
          2 16 0 16 1 16 8 114 rcurveline
          96 -76 rlineto
          -8 11 10 -14 16 hhcurveto
          17 16 19 15 3 hvcurveto
          endchar
        </CharString>
        <CharString name="at">
          826 -10 28 109 28 384 28 109 28 hstem
          117 31 111 76 172 76 28 31 vstem
          778 72 rmoveto
          12 2 -11 0 -15 hhcurveto
          -9 hlineto
          -15 -2 0 -8 -18 hvcurveto
          -51 -128 -108 -7 -54 hhcurveto
          -193 -108 156 173 29 hvcurveto
          183 30 172 146 175 hhcurveto
          160 142 -125 -213 -36 hvcurveto
          -101 -16 -28 -82 -62 hhcurveto
          -31 3 40 23 3 hvcurveto
          40 238 rlineto
          25 4 1 2 -28 hhcurveto
          -35 hlineto
          65 -35 -55 19 -45 hhcurveto
          -114 -114 -97 -123 -20 hvcurveto
          -124 -21 81 -96 114 hhcurveto
          55 52 27 41 43 hvcurveto
          -58 3 63 -10 26 hhcurveto
          90 39 102 112 19 hvcurveto
          219 36 -148 144 -181 hhcurveto
          -197 -183 -161 -196 -33 hvcurveto
          -186 -31 116 -171 214 hhcurveto
          165 143 53 18 44 hvcurveto
          5 2 4 4 1 5 rrcurveto
          -186 193 rmoveto
          -3 -19 0 -2 -17 -19 rrcurveto
          -38 -32 -50 -32 -51 hhcurveto
          -71 -52 81 111 19 hvcurveto
          111 18 78 81 72 hhcurveto
          51 39 -31 -38 18 hvcurveto
          12 -20 0 -2 -3 -19 rrcurveto
          endchar
        </CharString>
        <CharString name="atilde">
          -58 callsubr
          107 54 -9 54 -106 callgsubr
          hintmask 00000010
          174 393 83 callgsubr
          hintmask 00000100
          -74 callsubr
          hintmask 00000010
          -71 callgsubr
          hintmask 00000100
          17 -19 rlineto
          hintmask 00000010
          -73 callgsubr
          hintmask 00000100
          -52 callsubr
        </CharString>
        <CharString name="b">
          168 callsubr
          209 44 hstemhm
          188 73 240 89 hintmask 01111100
          114 callsubr
          53 314 -151 -86 callgsubr
          -99 -594 rlineto
          31 hlineto
          46 62 rlineto
          hintmask 10110110
          16 callgsubr
        </CharString>
        <CharString name="backslash">
          531 750 -20 hstem
          433 -227 rmoveto
          0 1 6 -3 12 vhcurveto
          -203 935 rlineto
          12 -3 -2 12 -16 171 callsubr
          0 -1 -6 3 -12 vhcurveto
          203 -935 rlineto
          -12 3 2 -12 16 148 callgsubr
        </CharString>
        <CharString name="baht">
          128 callsubr
          hstem
          352 32 25 32 25 32 cntrmask 00011100
          105 callgsubr
          112 23 74 66 12 68 rrcurveto
          89 15 -87 80 -134 hhcurveto
          -44 hlineto
          5 32 rlineto
          126 callgsubr
          140 callsubr
          -5 -32 rlineto
          -304 39 callsubr
          304 hlineto
          -5 -32 rlineto
          89 callsubr
          108 callsubr
          5 32 rlineto
          72 hlineto
          62 callgsubr
          -7 hlineto
          46 281 rlineto
          37 hlineto
          99 33 -77 -59 -10 hvcurveto
          -237 -145 rmoveto
          -118 hlineto
          40 240 rlineto
          34 5 3 7 46 hhcurveto
          70 hlineto
          162 -466 rmoveto
          -81 -14 -78 -70 -102 hhcurveto
          -38 hlineto
          51 308 rlineto
          53 hlineto
          97 44 -78 -79 -13 hvcurveto
          -264 -151 rmoveto
          -70 hlineto
          -46 -1 7 34 5 hvcurveto
          45 267 rlineto
          118 hlineto
          endchar
        </CharString>
        <CharString name="bar">
          295 750 -20 hstem
          88 46 109 46 vstem
          134 -214 rmoveto
          155 928 92 callsubr
          -155 -928 92 callgsubr
          endchar
        </CharString>
        <CharString name="bigcircle">
          683 0 46 591 46 hstem
          57 46 591 46 vstem
          -75 callsubr
          endchar
        </CharString>
        <CharString name="blanksymbol">
          168 callsubr
          -10 28 -24 44 155 28 -12 44 hstemhm
          188 73 240 89 hintmask 0011001000000000
          114 callsubr
          28 164 117 90 4 3 3 5 1 4 rlinecurve
          9 1 -6 7 -9 hhcurveto
          -4 -4 -1 -3 -3 hvcurveto
          -93 -72 rlineto
          hintmask 0000100100000000
          18 108 -151 -86 callgsubr
          -12 -72 -81 -63 rlineto
          -4 -3 -3 -4 -5 vvcurveto
          89 callsubr
          hintmask 0100010010000000
          4 4 2 2 4 hvcurveto
          56 44 -80 -479 rlineto
          31 hlineto
          46 62 rlineto
          hintmask 1011000011000000
          16 callgsubr
        </CharString>
        <CharString name="braceleft">
          159 callsubr
          369 75 cntrmask 11100000
          416 -236 rmoveto
          13 2 -10 1 -5 hhcurveto
          -82 5 -33 37 -5 41 -2 9 1 2 6 36 25 150 rcurveline
          16 95 2 14 -20 30 -8 11 -16 23 -57 19 121 36 10 62 8 48 25 150 rcurveline
          16 93 2 16 32 26 33 27 38 12 40 2 13 1 8 0 2 13 rrcurveto
          14 2 -10 0 -13 hhcurveto
          -108 -103 -49 -77 -14 hvcurveto
          -39 -234 -5 -29 -5 -32 -42 -30 rlinecurve
          -24 -18 -34 -14 -44 -3 -12 -1 -8 0 -2 -13 rrcurveto
          -13 -2 9 -1 5 hhcurveto
          98 -6 20 -54 3 -25 1 -12 -1 -6 -5 -31 -34 -204 rcurveline
          -5 -30 -7 -44 49 -36 rrcurveto
          -34 47 73 -4 22 hhcurveto
          13 10 0 14 3 hvcurveto
          endchar
        </CharString>
        <CharString name="braceright">
          159 callsubr
          289 75 cntrmask 11100000
          497 250 rmoveto
          13 2 -10 1 -5 hhcurveto
          -111 6 -12 71 3 27 39 234 rcurveline
          6 31 7 43 -50 36 rrcurveto
          31 -42 -68 7 -32 hhcurveto
          -13 -11 0 -14 -2 hvcurveto
          -13 -2 9 -1 5 hhcurveto
          69 -4 46 -27 7 -52 1 -9 0 -2 -6 -36 -25 -150 rcurveline
          -6 -32 -8 -51 1 -14 4 -49 41 -30 51 -16 -121 -34 -11 -67 -8 -45 -25 -150 rcurveline
          -5 -32 -9 -51 -4 -11 -27 -55 -63 -24 -54 -3 -12 -1 -8 0 -2 -13 rrcurveto
          -14 -3 11 0 13 hhcurveto
          106 105 48 78 14 hvcurveto
          39 234 5 29 6 32 42 30 rlinecurve
          41 30 43 4 16 1 13 1 8 0 2 13 rrcurveto
          endchar
        </CharString>
        <CharString name="bracketleft">
          295 -250 46 908 46 hstem
          229 -250 rmoveto
          8 46 rlineto
          -101 hlineto
          151 908 rlineto
          101 hlineto
          8 46 rlineto
          -147 hlineto
          -167 -1000 rlineto
          endchar
        </CharString>
        <CharString name="bracketright">
          295 -250 46 908 46 hstem
          128 -250 rmoveto
          167 1000 rlineto
          -147 hlineto
          -8 -46 rlineto
          101 hlineto
          -151 -908 rlineto
          -101 hlineto
          -8 -46 rlineto
          endchar
        </CharString>
        <CharString name="breve">
          176 callsubr
          132 -20 hstem
          542 691 -98 callsubr
          endchar
        </CharString>
        <CharString name="breve.cap">
          531 491 44 132 -20 hstem
          538 667 -98 callsubr
          endchar
        </CharString>
        <CharString name="breve.ts1">
          649 518 44 133 -20 hstem
          220 28 384 28 vstem
          660 695 rmoveto
          -28 hlineto
          -93 -16 -114 -40 -85 hhcurveto
          -84 -100 42 91 15 hvcurveto
          -28 hlineto
          -111 -19 102 -66 107 hhcurveto
          105 126 65 112 19 hvcurveto
          endchar
        </CharString>
        <CharString name="brokenbar">
          295 750 -20 hstemhm
          88 46 16 46 -15 46 16 46 hintmask 10011000
          227 343 rmoveto
          62 371 92 callsubr
          -62 -371 rlineto
          -11 -2 11 -5 12 hhcurveto
          12 11 5 11 2 hvcurveto
          -93 -557 rmoveto
          hintmask 01100000
          62 371 rlineto
          11 2 -10 5 -12 hhcurveto
          -12 -12 -5 -11 -2 hvcurveto
          -62 -371 92 callgsubr
          endchar
        </CharString>
        <CharString name="bullet">
          826 78 294 hstem
          74 callsubr
          endchar
        </CharString>
        <CharString name="c">
          48 callgsubr
          155 callgsubr
          hintmask 10111000
          -53 callsubr
          hintmask 00000100
          70 callgsubr
          hintmask 01001000
          -27 -5 16 -20 28 hhcurveto
          hintmask 10110100
          26 24 18 30 5 hvcurveto
          62 10 -63 30 -94 hhcurveto
          -139 -112 -111 -119 -20 hvcurveto
          -127 -21 87 -99 126 hhcurveto
          141 55 118 12 2 hvcurveto
          endchar
        </CharString>
        <CharString name="cacute">
          48 callgsubr
          82 -21 191 -55 callsubr
          41 538 -92 callgsubr
        </CharString>
        <CharString name="caron">
          129 callsubr
          176 -20 hstem
          531 677 rmoveto
          -57 callgsubr
        </CharString>
        <CharString name="caron.cap">
          143 callsubr
          133 -20 hstem
          517 598 -61 callsubr
        </CharString>
        <CharString name="caron.ts1">
          649 571 -21 156 -20 hstem
          637 681 rmoveto
          -12 25 -15 -5 -184 -92 -154 92 -13 5 -7 -7 -13 -18 177 -131 rlineto
          endchar
        </CharString>
        <CharString name="ccaron">
          48 callgsubr
          90 -21 176 -55 callsubr
          64 557 rmoveto
          -57 callgsubr
        </CharString>
        <CharString name="ccedilla">
          48 callgsubr
          155 callgsubr
          hintmask 10111000
          -53 callsubr
          hintmask 00000100
          70 callgsubr
          hintmask 01001000
          -27 -5 16 -20 28 hhcurveto
          hintmask 00110100
          26 24 18 30 5 hvcurveto
          62 10 -63 30 -94 hhcurveto
          -139 -112 -111 -119 -20 hvcurveto
          -19 -114 69 -92 106 -17 -15 -88 rcurveline
          12 callgsubr
          112 140 0 69 11 hvcurveto
          47 8 -53 21 -54 hhcurveto
          9 54 121 14 48 104 2 11 rlinecurve
          endchar
        </CharString>
        <CharString name="ccircumflex">
          48 callgsubr
          90 -21 176 -55 callsubr
          39 409 -65 callsubr
          endchar
        </CharString>
        <CharString name="cdotaccent">
          48 callgsubr
          101 111 hstemhm
          71 89 145 110 -75 94 -39 94 hintmask 10101010
          -39 callgsubr
          hintmask 10101001
          26 24 18 30 5 hvcurveto
          62 10 -63 30 -94 hhcurveto
          -139 -112 -111 -119 -20 hvcurveto
          -127 -21 87 -99 126 hhcurveto
          141 55 118 12 2 hvcurveto
          hintmask 00010100
          -46 482 -80 callgsubr
        </CharString>
        <CharString name="cedilla">
          24 callsubr
        </CharString>
        <CharString name="cedilla.dup">
          24 callsubr
        </CharString>
        <CharString name="cent">
          48 callgsubr
          hstemhm
          71 89 79 32 -29 32 -26 32 33 32 -27 32 -29 32 -13 94 -81 94 -52 94 hintmask 1010001100010000
          130 callgsubr
          12 2 -13 0 -3 hhcurveto
          -7 -5 -1 -10 -5 hvcurveto
          -21 -10 -41 -79 -99 hhcurveto
          65 394 rlineto
          hintmask 0000000000100000
          16 45 -2 -16 28 hvcurveto
          hintmask 0000000000001000
          70 callgsubr
          hintmask 0100000000100000
          -27 -5 16 -20 28 hhcurveto
          hintmask 0010000010001000
          26 24 18 30 5 hvcurveto
          10 60 -59 30 -90 2 rrcurveto
          hintmask 0000000000010000
          3 17 rlineto
          hintmask 0000000000100000
          8 2 -6 8 -9 hhcurveto
          hintmask 0000000001000000
          -9 -8 -8 -8 -2 hvcurveto
          hintmask 0001010010000000
          -3 -18 -128 -12 -100 -105 -19 -112 rlinecurve
          -20 -120 77 -95 114 -10 rrcurveto
          hintmask 0000100000000000
          -3 -23 rlineto
          89 callsubr
          108 callsubr
          hintmask 1001010100000000
          3 22 133 6 52 112 2 12 rlinecurve
          -213 -95 rmoveto
          -54 14 -54 54 20 124 21 126 67 57 65 12 rrcurveto
          hintmask 0000001000000000
          endchar
        </CharString>
        <CharString name="cent.oldstyle">
          48 callgsubr
          hstemhm
          71 89 180 94 -79 32 8 94 hintmask 10001000
          130 callgsubr
          12 2 -13 0 -3 hhcurveto
          -7 -5 -1 -10 -5 hvcurveto
          -21 -10 -41 -79 -100 hhcurveto
          -17 -19 4 8 -17 hvcurveto
          150 380 19 -2 22 -4 17 -10 rlinecurve
          hintmask 00000010
          70 callgsubr
          hintmask 01001000
          -27 -5 16 -20 28 hhcurveto
          hintmask 10110110
          26 24 18 30 5 hvcurveto
          9 51 -42 30 -69 8 7 16 rcurveline
          10 3 -5 10 -11 hhcurveto
          -7 -8 -6 -7 -2 hvcurveto
          -9 -20 rlineto
          -13 hlineto
          -139 -112 -111 -119 -20 hvcurveto
          -16 -97 47 -81 80 -33 -14 -33 rcurveline
          -10 -3 6 -10 10 hhcurveto
          8 7 5 7 2 hvcurveto
          13 32 rlineto
          -4 17 17 -2 18 hhcurveto
          141 55 118 12 2 hvcurveto
          -118 295 rmoveto
          -144 -365 -32 29 -21 52 14 86 rlinecurve
          hintmask 00101000
          144 24 83 54 73 hhcurveto
          endchar
        </CharString>
        <CharString name="centigrade">
          1003 -20 33 435 46 144 46 -12 33 hstemhm
          198 31 -3 104 hintmask 10010000
          982 234 rmoveto
          14 2 -3 7 -11 hhcurveto
          -11 -6 -7 -11 -1 hvcurveto
          -2 -7 rlineto
          -117 -30 -110 -100 -135 hhcurveto
          -81 -74 41 65 -38 hvcurveto
          -36 62 -3 80 12 77 11 65 20 67 41 59 rrcurveto
          84 57 104 59 95 hhcurveto
          133 63 -110 -116 3 hvcurveto
          -13 -5 -17 18 14 5 8 10 1 vhcurveto
          43 253 rlineto
          8 1 1 10 -11 hhcurveto
          -20 -63 -86 -2 -1 hvcurveto
          51 -52 -41 37 -91 hhcurveto
          -193 -192 -154 -194 -41 hvcurveto
          -3 -14 rlineto
          -208 -34 148 -155 196 hhcurveto
          136 159 102 152 25 hvcurveto
          -652 331 rmoveto
          hintmask 01101000
          59 10 -35 60 -76 hhcurveto
          -8 hlineto
          -62 -7 -54 -50 -10 -60 rrcurveto
          -59 -10 35 -60 76 hhcurveto
          8 hlineto
          hintmask 01000100
          62 7 54 50 10 60 rrcurveto
          -46 1 rmoveto
          -38 -6 -40 -34 -38 hhcurveto
          hintmask 01101000
          -2 hlineto
          -35 1 -25 29 1 35 1 7 rcurveline
          38 7 39 34 38 hhcurveto
          hintmask 00100100
          2 hlineto
          36 -1 24 -29 -35 vvcurveto
          endchar
        </CharString>
        <CharString name="circumflex">
          129 callsubr
          176 -20 hstem
          506 529 -65 callsubr
          endchar
        </CharString>
        <CharString name="circumflex.cap">
          143 callsubr
          133 -20 hstem
          500 497 -96 callgsubr
          endchar
        </CharString>
        <CharString name="circumflex.dup">
          129 callsubr
          176 -20 hstem
          506 529 -65 callsubr
          endchar
        </CharString>
        <CharString name="colon">
          295 0 111 209 111 hstemhm
          101 111 -57 111 hintmask 11010000
          266 375 rmoveto
          34 5 59 callsubr
          5 hvcurveto
          -54 -320 rmoveto
          34 6 166 callsubr
          hintmask 10100000
          -34 -27 -27 -28 -5 hvcurveto
          -34 -5 156 callgsubr
          4 hvcurveto
          endchar
        </CharString>
        <CharString name="colonmonetary">
          139 callsubr
          hstemhm
          116 104 181 32 -25 32 -26 104 -78 104 -26 32 -27 32 -30 32 159 104 -60 32 hintmask 1000001000100000
          746 234 rmoveto
          10 2 1 9 -16 hhcurveto
          -11 -4 -5 -10 -2 hvcurveto
          -154 -34 -136 -72 -106 hhcurveto
          hintmask 0100000100010000
          110 659 rlineto
          94 105 -67 -172 -3 hvcurveto
          -8 0 -7 14 17 1 7 19 3 vhcurveto
          hintmask 0100000000100000
          39 235 rlineto
          16 3 1 10 -13 hhcurveto
          hintmask 0100000010010000
          -7 -1 -1 -13 -11 hvcurveto
          -63 -74 -29 38 -54 47 -91 3 rlinecurve
          hintmask 0000000001000000
          2 11 rlineto
          hintmask 0000001000000000
          126 callgsubr
          hintmask 0000000001000000
          140 callsubr
          hintmask 0011000010000000
          -2 -12 -193 -11 -182 -156 -32 -194 rlinecurve
          -32 -194 128 -157 191 -11 -2 -12 rcurveline
          hintmask 0000010000000000
          89 callsubr
          hintmask 1011000100000000
          108 callsubr
          1 11 164 5 128 130 20 120 rlinecurve
          -338 -220 rmoveto
          -91 12 -138 69 41 247 40 241 157 73 101 13 rrcurveto
          hintmask 0000100000000000
          endchar
        </CharString>
        <CharString name="comma">
          295 -173 -21 194 111 hstem
          216 4 rmoveto
          55 9 -11 52 -48 152 callgsubr
          22 16 12 3 4 hvcurveto
          -6 -30 -13 -82 -88 -71 -4 -3 -3 -2 -1 -6 rrcurveto
          -9 -1 8 -6 5 hhcurveto
          13 96 78 120 20 hvcurveto
          endchar
        </CharString>
        <CharString name="copyleft">
          134 callgsubr
          215 46 330 46 hintmask 10111110
          -75 callsubr
          -109 hmoveto
          103 17 -72 83 -103 hhcurveto
          -50 -38 -25 -20 -21 hvcurveto
          -21 38 rlineto
          7 -3 -1 0 -3 hhcurveto
          -7 -1 -5 -8 -1 hvcurveto
          -20 -121 rlineto
          -10 -2 0 -3 9 hhcurveto
          7 0 3 4 2 hvcurveto
          89 28 65 34 48 hhcurveto
          49 88 -31 -138 -23 hvcurveto
          -143 -24 -102 -27 -44 hhcurveto
          -54 -58 37 79 9 hvcurveto
          hintmask 01000100
          6 -1 2 -6 -8 0 -4 -6 -1 vhcurveto
          -62 -11 46 -69 86 hhcurveto
          104 100 83 104 17 hvcurveto
          endchar
        </CharString>
        <CharString name="copyright">
          134 callgsubr
          425 46 120 46 hintmask 11011010
          -75 callsubr
          -158 -56 rmoveto
          6 1 0 4 -8 hhcurveto
          -6 -1 -2 -6 -2 hvcurveto
          -79 -17 -70 -37 -54 hhcurveto
          -44 -93 27 143 24 hvcurveto
          138 23 97 31 49 hhcurveto
          hintmask 00100100
          48 55 -34 -89 -2 hvcurveto
          -4 -1 -4 7 9 1 4 10 2 vhcurveto
          20 121 rlineto
          8 1 1 5 -6 hhcurveto
          -4 -1 0 -7 -5 hvcurveto
          -32 -38 rlineto
          20 -16 -30 25 -49 hhcurveto
          -104 -100 -83 -103 -17 hvcurveto
          -104 -17 72 -83 104 hhcurveto
          87 67 69 62 11 hvcurveto
          endchar
        </CharString>
        <CharString name="copyright.alt">
          692 -131 46 600 46 hstem
          36 46 479 46 75 46 vstem
          728 215 rmoveto
          213 35 -111 133 -212 hhcurveto
          -212 -157 -133 -213 -35 hvcurveto
          -212 -35 111 -134 212 hhcurveto
          212 157 134 212 35 hvcurveto
          -46 hmoveto
          -184 -31 -135 -116 -184 hhcurveto
          -184 -97 116 184 31 hvcurveto
          184 31 135 116 184 hhcurveto
          184 97 -116 -184 -31 hvcurveto
          -121 -68 rmoveto
          7 1 1 5 -10 hhcurveto
          -7 -3 -3 -6 -1 hvcurveto
          -97 -21 -86 -45 -67 hhcurveto
          -54 -114 32 175 29 hvcurveto
          170 28 121 38 60 hhcurveto
          59 66 -42 -109 -3 hvcurveto
          -5 1 0 -4 9 hhcurveto
          10 1 4 12 2 hvcurveto
          24 148 rlineto
          10 2 1 7 -8 hhcurveto
          -4 -1 -1 -8 -7 hvcurveto
          -40 -47 rlineto
          25 -18 -37 31 -61 hhcurveto
          -126 -123 -102 -127 -21 hvcurveto
          -127 -21 88 -101 128 hhcurveto
          106 83 84 76 13 hvcurveto
          endchar
        </CharString>
</ttFont>
